solid OpenSCAD_Model
  facet normal -0.994522 -0.104528 0
    outer loop
      vertex -19.563 -4.15823 3.5
      vertex -20 1.1331e-014 3.5
      vertex -20 1.1331e-014 -3.5
    endloop
  endfacet
  facet normal -0.994522 -0.104528 0
    outer loop
      vertex -19.563 -4.15823 -3.5
      vertex -19.563 -4.15823 3.5
      vertex -20 1.1331e-014 -3.5
    endloop
  endfacet
  facet normal 0 0 -1
    outer loop
      vertex -18.2709 -8.13473 -3.5
      vertex -19.563 -4.15823 -3.5
      vertex -16.6285 -3.5345 -3.5
    endloop
  endfacet
  facet normal 0 0 -1
    outer loop
      vertex -16.6285 3.5345 -3.5
      vertex -17 9.63135e-015 -3.5
      vertex -20 1.1331e-014 -3.5
    endloop
  endfacet
  facet normal -0 0 -1
    outer loop
      vertex -16.6285 -3.5345 -3.5
      vertex -19.563 -4.15823 -3.5
      vertex -20 1.1331e-014 -3.5
    endloop
  endfacet
  facet normal 0 0 -1
    outer loop
      vertex -16.1803 -11.7557 -3.5
      vertex -18.2709 -8.13473 -3.5
      vertex -13.7533 -9.99235 -3.5
    endloop
  endfacet
  facet normal 0 0 -1
    outer loop
      vertex -20 1.1331e-014 -3.5
      vertex -17 9.63135e-015 -3.5
      vertex -16.6285 -3.5345 -3.5
    endloop
  endfacet
  facet normal 0 0 -1
    outer loop
      vertex -19.563 4.15823 -3.5
      vertex -18.2709 8.13473 -3.5
      vertex -16.6285 3.5345 -3.5
    endloop
  endfacet
  facet normal 0 0 -1
    outer loop
      vertex -16.1803 -11.7557 -3.5
      vertex -13.7533 -9.99235 -3.5
      vertex -13.3826 -14.8629 -3.5
    endloop
  endfacet
  facet normal 0 0 -1
    outer loop
      vertex -6.18034 -19.0211 -3.5
      vertex -10 -17.3205 -3.5
      vertex -8.5 -14.7224 -3.5
    endloop
  endfacet
  facet normal 0 -0 -1
    outer loop
      vertex -16.6285 -3.5345 -3.5
      vertex -15.5303 -6.91452 -3.5
      vertex -18.2709 -8.13473 -3.5
    endloop
  endfacet
  facet normal 0 -0 -1
    outer loop
      vertex -11.3752 -12.6335 -3.5
      vertex -10 -17.3205 -3.5
      vertex -13.3826 -14.8629 -3.5
    endloop
  endfacet
  facet normal 0 0 -1
    outer loop
      vertex -13.3826 -14.8629 -3.5
      vertex -13.7533 -9.99235 -3.5
      vertex -11.3752 -12.6335 -3.5
    endloop
  endfacet
  facet normal 0 0 -1
    outer loop
      vertex -13.7533 -9.99235 -3.5
      vertex -18.2709 -8.13473 -3.5
      vertex -15.5303 -6.91452 -3.5
    endloop
  endfacet
  facet normal 0 0 -1
    outer loop
      vertex -6.18034 -19.0211 -3.5
      vertex -1.77698 -16.9069 -3.5
      vertex -2.09057 -19.8904 -3.5
    endloop
  endfacet
  facet normal -0 0 -1
    outer loop
      vertex 6.18034 -19.0211 -3.5
      vertex 2.09057 -19.8904 -3.5
      vertex 5.25329 -16.168 -3.5
    endloop
  endfacet
  facet normal 0 0 -1
    outer loop
      vertex -11.3752 -12.6335 -3.5
      vertex -8.5 -14.7224 -3.5
      vertex -10 -17.3205 -3.5
    endloop
  endfacet
  facet normal 0 -0 -1
    outer loop
      vertex -1.77698 -16.9069 -3.5
      vertex 2.09057 -19.8904 -3.5
      vertex -2.09057 -19.8904 -3.5
    endloop
  endfacet
  facet normal 0 0 -1
    outer loop
      vertex -6.18034 -19.0211 -3.5
      vertex -5.25329 -16.168 -3.5
      vertex -1.77698 -16.9069 -3.5
    endloop
  endfacet
  facet normal -0 0 -1
    outer loop
      vertex -5.25329 -16.168 -3.5
      vertex -6.18034 -19.0211 -3.5
      vertex -8.5 -14.7224 -3.5
    endloop
  endfacet
  facet normal 0 0 -1
    outer loop
      vertex 6.18034 -19.0211 -3.5
      vertex 8.5 -14.7224 -3.5
      vertex 10 -17.3205 -3.5
    endloop
  endfacet
  facet normal 0 0 -1
    outer loop
      vertex 16.1803 -11.7557 -3.5
      vertex 13.3826 -14.8629 -3.5
      vertex 11.3752 -12.6335 -3.5
    endloop
  endfacet
  facet normal 0 0 -1
    outer loop
      vertex -1.77698 -16.9069 -3.5
      vertex 1.77698 -16.9069 -3.5
      vertex 2.09057 -19.8904 -3.5
    endloop
  endfacet
  facet normal 0 0 -1
    outer loop
      vertex 8.5 -14.7224 -3.5
      vertex 13.3826 -14.8629 -3.5
      vertex 10 -17.3205 -3.5
    endloop
  endfacet
  facet normal 0 0 -1
    outer loop
      vertex 6.18034 -19.0211 -3.5
      vertex 5.25329 -16.168 -3.5
      vertex 8.5 -14.7224 -3.5
    endloop
  endfacet
  facet normal 0 0 -1
    outer loop
      vertex 5.25329 -16.168 -3.5
      vertex 2.09057 -19.8904 -3.5
      vertex 1.77698 -16.9069 -3.5
    endloop
  endfacet
  facet normal 0 0 -1
    outer loop
      vertex 16.1803 -11.7557 -3.5
      vertex 15.5303 -6.91452 -3.5
      vertex 18.2709 -8.13473 -3.5
    endloop
  endfacet
  facet normal -0 0 -1
    outer loop
      vertex 20 0 -3.5
      vertex 19.563 -4.15823 -3.5
      vertex 17 0 -3.5
    endloop
  endfacet
  facet normal 0 0 -1
    outer loop
      vertex 8.5 -14.7224 -3.5
      vertex 11.3752 -12.6335 -3.5
      vertex 13.3826 -14.8629 -3.5
    endloop
  endfacet
  facet normal 0 0 -1
    outer loop
      vertex 15.5303 -6.91452 -3.5
      vertex 19.563 -4.15823 -3.5
      vertex 18.2709 -8.13473 -3.5
    endloop
  endfacet
  facet normal 0 0 -1
    outer loop
      vertex 16.1803 -11.7557 -3.5
      vertex 13.7533 -9.99235 -3.5
      vertex 15.5303 -6.91452 -3.5
    endloop
  endfacet
  facet normal 0 -0 -1
    outer loop
      vertex 13.7533 -9.99235 -3.5
      vertex 16.1803 -11.7557 -3.5
      vertex 11.3752 -12.6335 -3.5
    endloop
  endfacet
  facet normal 0 0 -1
    outer loop
      vertex 20 0 -3.5
      vertex 16.6285 3.5345 -3.5
      vertex 19.563 4.15823 -3.5
    endloop
  endfacet
  facet normal 0 -0 -1
    outer loop
      vertex 16.1803 11.7557 -3.5
      vertex 18.2709 8.13473 -3.5
      vertex 13.7533 9.99235 -3.5
    endloop
  endfacet
  facet normal 0 0 -1
    outer loop
      vertex 15.5303 -6.91452 -3.5
      vertex 16.6285 -3.5345 -3.5
      vertex 19.563 -4.15823 -3.5
    endloop
  endfacet
  facet normal 0 0 -1
    outer loop
      vertex 16.6285 3.5345 -3.5
      vertex 18.2709 8.13473 -3.5
      vertex 19.563 4.15823 -3.5
    endloop
  endfacet
  facet normal 0 0 -1
    outer loop
      vertex 20 0 -3.5
      vertex 17 0 -3.5
      vertex 16.6285 3.5345 -3.5
    endloop
  endfacet
  facet normal 0 -0 -1
    outer loop
      vertex 17 0 -3.5
      vertex 19.563 -4.15823 -3.5
      vertex 16.6285 -3.5345 -3.5
    endloop
  endfacet
  facet normal -0 0 -1
    outer loop
      vertex 16.1803 11.7557 -3.5
      vertex 13.7533 9.99235 -3.5
      vertex 13.3826 14.8629 -3.5
    endloop
  endfacet
  facet normal 0 0 -1
    outer loop
      vertex 6.18034 19.0211 -3.5
      vertex 10 17.3205 -3.5
      vertex 8.5 14.7224 -3.5
    endloop
  endfacet
  facet normal 0 0 -1
    outer loop
      vertex 16.6285 3.5345 -3.5
      vertex 15.5303 6.91452 -3.5
      vertex 18.2709 8.13473 -3.5
    endloop
  endfacet
  facet normal 0 0 -1
    outer loop
      vertex 8.5 14.7224 -3.5
      vertex 10 17.3205 -3.5
      vertex 13.3826 14.8629 -3.5
    endloop
  endfacet
  facet normal 0 -0 -1
    outer loop
      vertex 13.3826 14.8629 -3.5
      vertex 13.7533 9.99235 -3.5
      vertex 11.3752 12.6335 -3.5
    endloop
  endfacet
  facet normal 0 0 -1
    outer loop
      vertex 13.7533 9.99235 -3.5
      vertex 18.2709 8.13473 -3.5
      vertex 15.5303 6.91452 -3.5
    endloop
  endfacet
  facet normal -0 0 -1
    outer loop
      vertex 6.18034 19.0211 -3.5
      vertex 1.77698 16.9069 -3.5
      vertex 2.09057 19.8904 -3.5
    endloop
  endfacet
  facet normal 0 0 -1
    outer loop
      vertex -6.18034 19.0211 -3.5
      vertex -2.09057 19.8904 -3.5
      vertex -5.25329 16.168 -3.5
    endloop
  endfacet
  facet normal 0 0 -1
    outer loop
      vertex 11.3752 12.6335 -3.5
      vertex 8.5 14.7224 -3.5
      vertex 13.3826 14.8629 -3.5
    endloop
  endfacet
  facet normal 0 0 -1
    outer loop
      vertex -1.77698 16.9069 -3.5
      vertex -2.09057 19.8904 -3.5
      vertex 2.09057 19.8904 -3.5
    endloop
  endfacet
  facet normal 0 0 -1
    outer loop
      vertex 6.18034 19.0211 -3.5
      vertex 5.25329 16.168 -3.5
      vertex 1.77698 16.9069 -3.5
    endloop
  endfacet
  facet normal 0 0 -1
    outer loop
      vertex 5.25329 16.168 -3.5
      vertex 6.18034 19.0211 -3.5
      vertex 8.5 14.7224 -3.5
    endloop
  endfacet
  facet normal 0 -0 -1
    outer loop
      vertex -6.18034 19.0211 -3.5
      vertex -5.25329 16.168 -3.5
      vertex -10 17.3205 -3.5
    endloop
  endfacet
  facet normal 0 0 -1
    outer loop
      vertex -16.1803 11.7557 -3.5
      vertex -13.3826 14.8629 -3.5
      vertex -13.7533 9.99235 -3.5
    endloop
  endfacet
  facet normal 0 0 -1
    outer loop
      vertex 1.77698 16.9069 -3.5
      vertex -1.77698 16.9069 -3.5
      vertex 2.09057 19.8904 -3.5
    endloop
  endfacet
  facet normal 0 0 -1
    outer loop
      vertex -8.5 14.7224 -3.5
      vertex -13.3826 14.8629 -3.5
      vertex -10 17.3205 -3.5
    endloop
  endfacet
  facet normal 0 0 -1
    outer loop
      vertex -5.25329 16.168 -3.5
      vertex -2.09057 19.8904 -3.5
      vertex -1.77698 16.9069 -3.5
    endloop
  endfacet
  facet normal -0 0 -1
    outer loop
      vertex -5.25329 16.168 -3.5
      vertex -8.5 14.7224 -3.5
      vertex -10 17.3205 -3.5
    endloop
  endfacet
  facet normal -0 0 -1
    outer loop
      vertex -8.5 14.7224 -3.5
      vertex -11.3752 12.6335 -3.5
      vertex -13.3826 14.8629 -3.5
    endloop
  endfacet
  facet normal 0 0 -1
    outer loop
      vertex -15.5303 6.91452 -3.5
      vertex -18.2709 8.13473 -3.5
      vertex -16.1803 11.7557 -3.5
    endloop
  endfacet
  facet normal 0 0 -1
    outer loop
      vertex -13.7533 9.99235 -3.5
      vertex -13.3826 14.8629 -3.5
      vertex -11.3752 12.6335 -3.5
    endloop
  endfacet
  facet normal 0 0 -1
    outer loop
      vertex -15.5303 6.91452 -3.5
      vertex -16.1803 11.7557 -3.5
      vertex -13.7533 9.99235 -3.5
    endloop
  endfacet
  facet normal -0 0 -1
    outer loop
      vertex -15.5303 6.91452 -3.5
      vertex -16.6285 3.5345 -3.5
      vertex -18.2709 8.13473 -3.5
    endloop
  endfacet
  facet normal -0 0 -1
    outer loop
      vertex -16.6285 3.5345 -3.5
      vertex -20 1.1331e-014 -3.5
      vertex -19.563 4.15823 -3.5
    endloop
  endfacet
  facet normal 0 -1 0
    outer loop
      vertex 2.09057 -19.8904 -3.5
      vertex -2.09057 -19.8904 3.5
      vertex -2.09057 -19.8904 -3.5
    endloop
  endfacet
  facet normal 0 -1 0
    outer loop
      vertex 2.09057 -19.8904 -3.5
      vertex 2.09057 -19.8904 3.5
      vertex -2.09057 -19.8904 3.5
    endloop
  endfacet
  facet normal 0.207912 -0.978148 0
    outer loop
      vertex 6.18034 -19.0211 -3.5
      vertex 2.09057 -19.8904 3.5
      vertex 2.09057 -19.8904 -3.5
    endloop
  endfacet
  facet normal 0.207912 -0.978148 0
    outer loop
      vertex 6.18034 -19.0211 -3.5
      vertex 6.18034 -19.0211 3.5
      vertex 2.09057 -19.8904 3.5
    endloop
  endfacet
  facet normal -0.951057 -0.309017 0
    outer loop
      vertex -18.2709 -8.13473 3.5
      vertex -19.563 -4.15823 3.5
      vertex -19.563 -4.15823 -3.5
    endloop
  endfacet
  facet normal -0.951057 -0.309017 0
    outer loop
      vertex -18.2709 -8.13473 -3.5
      vertex -18.2709 -8.13473 3.5
      vertex -19.563 -4.15823 -3.5
    endloop
  endfacet
  facet normal -0.866025 0.5 0
    outer loop
      vertex -18.2709 8.13473 3.5
      vertex -16.1803 11.7557 -3.5
      vertex -18.2709 8.13473 -3.5
    endloop
  endfacet
  facet normal -0.866025 0.5 0
    outer loop
      vertex -18.2709 8.13473 3.5
      vertex -16.1803 11.7557 3.5
      vertex -16.1803 11.7557 -3.5
    endloop
  endfacet
  facet normal -0.743145 -0.669131 0
    outer loop
      vertex -13.3826 -14.8629 3.5
      vertex -16.1803 -11.7557 3.5
      vertex -16.1803 -11.7557 -3.5
    endloop
  endfacet
  facet normal -0.743145 -0.669131 0
    outer loop
      vertex -13.3826 -14.8629 -3.5
      vertex -13.3826 -14.8629 3.5
      vertex -16.1803 -11.7557 -3.5
    endloop
  endfacet
  facet normal -0.866025 -0.5 0
    outer loop
      vertex -16.1803 -11.7557 3.5
      vertex -18.2709 -8.13473 3.5
      vertex -18.2709 -8.13473 -3.5
    endloop
  endfacet
  facet normal -0.866025 -0.5 0
    outer loop
      vertex -16.1803 -11.7557 -3.5
      vertex -16.1803 -11.7557 3.5
      vertex -18.2709 -8.13473 -3.5
    endloop
  endfacet
  facet normal 0.406737 -0.913545 0
    outer loop
      vertex 10 -17.3205 -3.5
      vertex 6.18034 -19.0211 3.5
      vertex 6.18034 -19.0211 -3.5
    endloop
  endfacet
  facet normal 0.406737 -0.913545 0
    outer loop
      vertex 10 -17.3205 -3.5
      vertex 10 -17.3205 3.5
      vertex 6.18034 -19.0211 3.5
    endloop
  endfacet
  facet normal 0.866025 -0.5 0
    outer loop
      vertex 18.2709 -8.13473 -3.5
      vertex 16.1803 -11.7557 3.5
      vertex 16.1803 -11.7557 -3.5
    endloop
  endfacet
  facet normal 0.866025 -0.5 0
    outer loop
      vertex 18.2709 -8.13473 -3.5
      vertex 18.2709 -8.13473 3.5
      vertex 16.1803 -11.7557 3.5
    endloop
  endfacet
  facet normal 0.207912 0.978148 0
    outer loop
      vertex 2.09057 19.8904 3.5
      vertex 6.18034 19.0211 -3.5
      vertex 2.09057 19.8904 -3.5
    endloop
  endfacet
  facet normal 0.207912 0.978148 0
    outer loop
      vertex 2.09057 19.8904 3.5
      vertex 6.18034 19.0211 3.5
      vertex 6.18034 19.0211 -3.5
    endloop
  endfacet
  facet normal -0.406737 0.913545 0
    outer loop
      vertex -10 17.3205 3.5
      vertex -6.18034 19.0211 -3.5
      vertex -10 17.3205 -3.5
    endloop
  endfacet
  facet normal -0.406737 0.913545 0
    outer loop
      vertex -10 17.3205 3.5
      vertex -6.18034 19.0211 3.5
      vertex -6.18034 19.0211 -3.5
    endloop
  endfacet
  facet normal -0.994522 0.104528 0
    outer loop
      vertex -20 1.1331e-014 3.5
      vertex -19.563 4.15823 -3.5
      vertex -20 1.1331e-014 -3.5
    endloop
  endfacet
  facet normal -0.994522 0.104528 0
    outer loop
      vertex -20 1.1331e-014 3.5
      vertex -19.563 4.15823 3.5
      vertex -19.563 4.15823 -3.5
    endloop
  endfacet
  facet normal -0.207912 -0.978148 0
    outer loop
      vertex -2.09057 -19.8904 -3.5
      vertex -6.18034 -19.0211 3.5
      vertex -6.18034 -19.0211 -3.5
    endloop
  endfacet
  facet normal -0.207912 -0.978148 0
    outer loop
      vertex -2.09057 -19.8904 -3.5
      vertex -2.09057 -19.8904 3.5
      vertex -6.18034 -19.0211 3.5
    endloop
  endfacet
  facet normal -0.587785 -0.809017 0
    outer loop
      vertex -10 -17.3205 -3.5
      vertex -13.3826 -14.8629 3.5
      vertex -13.3826 -14.8629 -3.5
    endloop
  endfacet
  facet normal -0.587785 -0.809017 0
    outer loop
      vertex -10 -17.3205 -3.5
      vertex -10 -17.3205 3.5
      vertex -13.3826 -14.8629 3.5
    endloop
  endfacet
  facet normal 0.994522 0.104528 0
    outer loop
      vertex 20 0 3.5
      vertex 20 0 -3.5
      vertex 19.563 4.15823 -3.5
    endloop
  endfacet
  facet normal 0.994522 0.104528 0
    outer loop
      vertex 19.563 4.15823 3.5
      vertex 20 0 3.5
      vertex 19.563 4.15823 -3.5
    endloop
  endfacet
  facet normal 0.587785 -0.809017 0
    outer loop
      vertex 13.3826 -14.8629 -3.5
      vertex 10 -17.3205 3.5
      vertex 10 -17.3205 -3.5
    endloop
  endfacet
  facet normal 0.587785 -0.809017 0
    outer loop
      vertex 13.3826 -14.8629 -3.5
      vertex 13.3826 -14.8629 3.5
      vertex 10 -17.3205 3.5
    endloop
  endfacet
  facet normal 0.951057 -0.309017 0
    outer loop
      vertex 19.563 -4.15823 -3.5
      vertex 18.2709 -8.13473 3.5
      vertex 18.2709 -8.13473 -3.5
    endloop
  endfacet
  facet normal 0.951057 -0.309017 0
    outer loop
      vertex 19.563 -4.15823 -3.5
      vertex 19.563 -4.15823 3.5
      vertex 18.2709 -8.13473 3.5
    endloop
  endfacet
  facet normal 0.587785 0.809017 0
    outer loop
      vertex 10 17.3205 3.5
      vertex 13.3826 14.8629 -3.5
      vertex 10 17.3205 -3.5
    endloop
  endfacet
  facet normal 0.587785 0.809017 0
    outer loop
      vertex 10 17.3205 3.5
      vertex 13.3826 14.8629 3.5
      vertex 13.3826 14.8629 -3.5
    endloop
  endfacet
  facet normal 0.743145 0.669131 0
    outer loop
      vertex 16.1803 11.7557 3.5
      vertex 16.1803 11.7557 -3.5
      vertex 13.3826 14.8629 -3.5
    endloop
  endfacet
  facet normal 0.743145 0.669131 0
    outer loop
      vertex 13.3826 14.8629 3.5
      vertex 16.1803 11.7557 3.5
      vertex 13.3826 14.8629 -3.5
    endloop
  endfacet
  facet normal 0.406737 0.913545 0
    outer loop
      vertex 6.18034 19.0211 3.5
      vertex 10 17.3205 -3.5
      vertex 6.18034 19.0211 -3.5
    endloop
  endfacet
  facet normal 0.406737 0.913545 0
    outer loop
      vertex 6.18034 19.0211 3.5
      vertex 10 17.3205 3.5
      vertex 10 17.3205 -3.5
    endloop
  endfacet
  facet normal -0.207912 0.978148 0
    outer loop
      vertex -6.18034 19.0211 3.5
      vertex -2.09057 19.8904 -3.5
      vertex -6.18034 19.0211 -3.5
    endloop
  endfacet
  facet normal -0.207912 0.978148 0
    outer loop
      vertex -6.18034 19.0211 3.5
      vertex -2.09057 19.8904 3.5
      vertex -2.09057 19.8904 -3.5
    endloop
  endfacet
  facet normal -0.587785 0.809017 0
    outer loop
      vertex -13.3826 14.8629 3.5
      vertex -10 17.3205 -3.5
      vertex -13.3826 14.8629 -3.5
    endloop
  endfacet
  facet normal -0.587785 0.809017 0
    outer loop
      vertex -13.3826 14.8629 3.5
      vertex -10 17.3205 3.5
      vertex -10 17.3205 -3.5
    endloop
  endfacet
  facet normal -0.743145 0.669131 0
    outer loop
      vertex -16.1803 11.7557 3.5
      vertex -13.3826 14.8629 -3.5
      vertex -16.1803 11.7557 -3.5
    endloop
  endfacet
  facet normal -0.743145 0.669131 0
    outer loop
      vertex -16.1803 11.7557 3.5
      vertex -13.3826 14.8629 3.5
      vertex -13.3826 14.8629 -3.5
    endloop
  endfacet
  facet normal -0.406737 -0.913545 0
    outer loop
      vertex -6.18034 -19.0211 -3.5
      vertex -10 -17.3205 3.5
      vertex -10 -17.3205 -3.5
    endloop
  endfacet
  facet normal -0.406737 -0.913545 0
    outer loop
      vertex -6.18034 -19.0211 -3.5
      vertex -6.18034 -19.0211 3.5
      vertex -10 -17.3205 3.5
    endloop
  endfacet
  facet normal 0.866025 0.5 0
    outer loop
      vertex 18.2709 8.13473 3.5
      vertex 18.2709 8.13473 -3.5
      vertex 16.1803 11.7557 -3.5
    endloop
  endfacet
  facet normal 0.866025 0.5 0
    outer loop
      vertex 16.1803 11.7557 3.5
      vertex 18.2709 8.13473 3.5
      vertex 16.1803 11.7557 -3.5
    endloop
  endfacet
  facet normal 0.743145 -0.669131 0
    outer loop
      vertex 16.1803 -11.7557 -3.5
      vertex 13.3826 -14.8629 3.5
      vertex 13.3826 -14.8629 -3.5
    endloop
  endfacet
  facet normal 0.743145 -0.669131 0
    outer loop
      vertex 16.1803 -11.7557 -3.5
      vertex 16.1803 -11.7557 3.5
      vertex 13.3826 -14.8629 3.5
    endloop
  endfacet
  facet normal 0.994522 -0.104528 0
    outer loop
      vertex 20 0 -3.5
      vertex 19.563 -4.15823 3.5
      vertex 19.563 -4.15823 -3.5
    endloop
  endfacet
  facet normal 0.994522 -0.104528 0
    outer loop
      vertex 20 0 -3.5
      vertex 20 0 3.5
      vertex 19.563 -4.15823 3.5
    endloop
  endfacet
  facet normal 0 1 0
    outer loop
      vertex -2.09057 19.8904 3.5
      vertex 2.09057 19.8904 -3.5
      vertex -2.09057 19.8904 -3.5
    endloop
  endfacet
  facet normal -0 1 0
    outer loop
      vertex -2.09057 19.8904 3.5
      vertex 2.09057 19.8904 3.5
      vertex 2.09057 19.8904 -3.5
    endloop
  endfacet
  facet normal 0 0 1
    outer loop
      vertex -18.2709 8.13473 3.5
      vertex -19.563 4.15823 3.5
      vertex -13.6941 2.91076 3.5
    endloop
  endfacet
  facet normal 0 -0 1
    outer loop
      vertex -19.563 -4.15823 3.5
      vertex -13.6941 -2.91076 3.5
      vertex -20 1.1331e-014 3.5
    endloop
  endfacet
  facet normal 0 0 1
    outer loop
      vertex -13.6941 2.91076 3.5
      vertex -19.563 4.15823 3.5
      vertex -20 1.1331e-014 3.5
    endloop
  endfacet
  facet normal 0 0 1
    outer loop
      vertex -13.3826 14.8629 3.5
      vertex -16.1803 11.7557 3.5
      vertex -11.3262 8.22899 3.5
    endloop
  endfacet
  facet normal 0 0 1
    outer loop
      vertex -16.1803 11.7557 3.5
      vertex -18.2709 8.13473 3.5
      vertex -12.7896 5.69431 3.5
    endloop
  endfacet
  facet normal 0 0 1
    outer loop
      vertex -13.6941 -2.91076 3.5
      vertex -19.563 -4.15823 3.5
      vertex -18.2709 -8.13473 3.5
    endloop
  endfacet
  facet normal -0 0 1
    outer loop
      vertex -20 1.1331e-014 3.5
      vertex -14 7.9317e-015 3.5
      vertex -13.6941 2.91076 3.5
    endloop
  endfacet
  facet normal 0 0 1
    outer loop
      vertex -14 7.9317e-015 3.5
      vertex -20 1.1331e-014 3.5
      vertex -13.6941 -2.91076 3.5
    endloop
  endfacet
  facet normal -0 0 1
    outer loop
      vertex -13.3826 14.8629 3.5
      vertex -9.36783 10.404 3.5
      vertex -10 17.3205 3.5
    endloop
  endfacet
  facet normal 0 0 1
    outer loop
      vertex -2.09057 19.8904 3.5
      vertex -6.18034 19.0211 3.5
      vertex -4.32624 13.3148 3.5
    endloop
  endfacet
  facet normal 0 -0 1
    outer loop
      vertex -13.6941 2.91076 3.5
      vertex -12.7896 5.69431 3.5
      vertex -18.2709 8.13473 3.5
    endloop
  endfacet
  facet normal 0 0 1
    outer loop
      vertex -4.32624 13.3148 3.5
      vertex -6.18034 19.0211 3.5
      vertex -10 17.3205 3.5
    endloop
  endfacet
  facet normal 0 0 1
    outer loop
      vertex -13.3826 14.8629 3.5
      vertex -11.3262 8.22899 3.5
      vertex -9.36783 10.404 3.5
    endloop
  endfacet
  facet normal 0 0 1
    outer loop
      vertex -11.3262 8.22899 3.5
      vertex -16.1803 11.7557 3.5
      vertex -12.7896 5.69431 3.5
    endloop
  endfacet
  facet normal -0 0 1
    outer loop
      vertex -2.09057 19.8904 3.5
      vertex -1.4634 13.9233 3.5
      vertex 2.09057 19.8904 3.5
    endloop
  endfacet
  facet normal 0 0 1
    outer loop
      vertex 10 17.3205 3.5
      vertex 6.18034 19.0211 3.5
      vertex 7 12.1244 3.5
    endloop
  endfacet
  facet normal 0 -0 1
    outer loop
      vertex -9.36783 10.404 3.5
      vertex -7 12.1244 3.5
      vertex -10 17.3205 3.5
    endloop
  endfacet
  facet normal 0 0 1
    outer loop
      vertex 1.4634 13.9233 3.5
      vertex 6.18034 19.0211 3.5
      vertex 2.09057 19.8904 3.5
    endloop
  endfacet
  facet normal 0 0 1
    outer loop
      vertex -2.09057 19.8904 3.5
      vertex -4.32624 13.3148 3.5
      vertex -1.4634 13.9233 3.5
    endloop
  endfacet
  facet normal 0 0 1
    outer loop
      vertex -4.32624 13.3148 3.5
      vertex -10 17.3205 3.5
      vertex -7 12.1244 3.5
    endloop
  endfacet
  facet normal 0 0 1
    outer loop
      vertex 10 17.3205 3.5
      vertex 7 12.1244 3.5
      vertex 13.3826 14.8629 3.5
    endloop
  endfacet
  facet normal 0 0 1
    outer loop
      vertex 18.2709 8.13473 3.5
      vertex 16.1803 11.7557 3.5
      vertex 11.3262 8.22899 3.5
    endloop
  endfacet
  facet normal -0 0 1
    outer loop
      vertex -1.4634 13.9233 3.5
      vertex 1.4634 13.9233 3.5
      vertex 2.09057 19.8904 3.5
    endloop
  endfacet
  facet normal 0 0 1
    outer loop
      vertex 11.3262 8.22899 3.5
      vertex 16.1803 11.7557 3.5
      vertex 13.3826 14.8629 3.5
    endloop
  endfacet
  facet normal 0 0 1
    outer loop
      vertex 6.18034 19.0211 3.5
      vertex 4.32624 13.3148 3.5
      vertex 7 12.1244 3.5
    endloop
  endfacet
  facet normal 0 -0 1
    outer loop
      vertex 4.32624 13.3148 3.5
      vertex 6.18034 19.0211 3.5
      vertex 1.4634 13.9233 3.5
    endloop
  endfacet
  facet normal 0 0 1
    outer loop
      vertex 18.2709 8.13473 3.5
      vertex 13.6941 2.91076 3.5
      vertex 19.563 4.15823 3.5
    endloop
  endfacet
  facet normal 0 -0 1
    outer loop
      vertex 19.563 -4.15823 3.5
      vertex 20 0 3.5
      vertex 14 0 3.5
    endloop
  endfacet
  facet normal -0 0 1
    outer loop
      vertex 7 12.1244 3.5
      vertex 9.36783 10.404 3.5
      vertex 13.3826 14.8629 3.5
    endloop
  endfacet
  facet normal -0 0 1
    outer loop
      vertex 13.6941 2.91076 3.5
      vertex 20 0 3.5
      vertex 19.563 4.15823 3.5
    endloop
  endfacet
  facet normal 0 0 1
    outer loop
      vertex 18.2709 8.13473 3.5
      vertex 11.3262 8.22899 3.5
      vertex 12.7896 5.69431 3.5
    endloop
  endfacet
  facet normal 0 -0 1
    outer loop
      vertex 11.3262 8.22899 3.5
      vertex 13.3826 14.8629 3.5
      vertex 9.36783 10.404 3.5
    endloop
  endfacet
  facet normal 0 0 1
    outer loop
      vertex 19.563 -4.15823 3.5
      vertex 12.7896 -5.69431 3.5
      vertex 18.2709 -8.13473 3.5
    endloop
  endfacet
  facet normal 0 -0 1
    outer loop
      vertex 13.3826 -14.8629 3.5
      vertex 16.1803 -11.7557 3.5
      vertex 11.3262 -8.22899 3.5
    endloop
  endfacet
  facet normal -0 0 1
    outer loop
      vertex 12.7896 5.69431 3.5
      vertex 13.6941 2.91076 3.5
      vertex 18.2709 8.13473 3.5
    endloop
  endfacet
  facet normal 0 0 1
    outer loop
      vertex 12.7896 -5.69431 3.5
      vertex 16.1803 -11.7557 3.5
      vertex 18.2709 -8.13473 3.5
    endloop
  endfacet
  facet normal 0 0 1
    outer loop
      vertex 19.563 -4.15823 3.5
      vertex 14 0 3.5
      vertex 13.6941 -2.91076 3.5
    endloop
  endfacet
  facet normal 0 -0 1
    outer loop
      vertex 14 0 3.5
      vertex 20 0 3.5
      vertex 13.6941 2.91076 3.5
    endloop
  endfacet
  facet normal 0 0 1
    outer loop
      vertex 13.3826 -14.8629 3.5
      vertex 7 -12.1244 3.5
      vertex 10 -17.3205 3.5
    endloop
  endfacet
  facet normal 0 0 1
    outer loop
      vertex 2.09057 -19.8904 3.5
      vertex 6.18034 -19.0211 3.5
      vertex 4.32624 -13.3148 3.5
    endloop
  endfacet
  facet normal 0 0 1
    outer loop
      vertex 13.6941 -2.91076 3.5
      vertex 12.7896 -5.69431 3.5
      vertex 19.563 -4.15823 3.5
    endloop
  endfacet
  facet normal 0 0 1
    outer loop
      vertex 7 -12.1244 3.5
      vertex 6.18034 -19.0211 3.5
      vertex 10 -17.3205 3.5
    endloop
  endfacet
  facet normal 0 0 1
    outer loop
      vertex 13.3826 -14.8629 3.5
      vertex 11.3262 -8.22899 3.5
      vertex 9.36783 -10.404 3.5
    endloop
  endfacet
  facet normal -0 0 1
    outer loop
      vertex 11.3262 -8.22899 3.5
      vertex 16.1803 -11.7557 3.5
      vertex 12.7896 -5.69431 3.5
    endloop
  endfacet
  facet normal 0 0 1
    outer loop
      vertex 2.09057 -19.8904 3.5
      vertex -1.4634 -13.9233 3.5
      vertex -2.09057 -19.8904 3.5
    endloop
  endfacet
  facet normal -0 0 1
    outer loop
      vertex -10 -17.3205 3.5
      vertex -6.18034 -19.0211 3.5
      vertex -7 -12.1244 3.5
    endloop
  endfacet
  facet normal 0 0 1
    outer loop
      vertex 9.36783 -10.404 3.5
      vertex 7 -12.1244 3.5
      vertex 13.3826 -14.8629 3.5
    endloop
  endfacet
  facet normal 0 0 1
    outer loop
      vertex -1.4634 -13.9233 3.5
      vertex -6.18034 -19.0211 3.5
      vertex -2.09057 -19.8904 3.5
    endloop
  endfacet
  facet normal -0 0 1
    outer loop
      vertex 4.32624 -13.3148 3.5
      vertex 6.18034 -19.0211 3.5
      vertex 7 -12.1244 3.5
    endloop
  endfacet
  facet normal 0 0 1
    outer loop
      vertex 4.32624 -13.3148 3.5
      vertex 1.4634 -13.9233 3.5
      vertex 2.09057 -19.8904 3.5
    endloop
  endfacet
  facet normal 0 0 1
    outer loop
      vertex -7 -12.1244 3.5
      vertex -13.3826 -14.8629 3.5
      vertex -10 -17.3205 3.5
    endloop
  endfacet
  facet normal 0 0 1
    outer loop
      vertex 1.4634 -13.9233 3.5
      vertex -1.4634 -13.9233 3.5
      vertex 2.09057 -19.8904 3.5
    endloop
  endfacet
  facet normal 0 0 1
    outer loop
      vertex -1.4634 -13.9233 3.5
      vertex -4.32624 -13.3148 3.5
      vertex -6.18034 -19.0211 3.5
    endloop
  endfacet
  facet normal 0 0 1
    outer loop
      vertex -4.32624 -13.3148 3.5
      vertex -7 -12.1244 3.5
      vertex -6.18034 -19.0211 3.5
    endloop
  endfacet
  facet normal 0 0 1
    outer loop
      vertex -11.3262 -8.22899 3.5
      vertex -16.1803 -11.7557 3.5
      vertex -13.3826 -14.8629 3.5
    endloop
  endfacet
  facet normal 0 0 1
    outer loop
      vertex -7 -12.1244 3.5
      vertex -9.36783 -10.404 3.5
      vertex -13.3826 -14.8629 3.5
    endloop
  endfacet
  facet normal 0 0 1
    outer loop
      vertex -11.3262 -8.22899 3.5
      vertex -18.2709 -8.13473 3.5
      vertex -16.1803 -11.7557 3.5
    endloop
  endfacet
  facet normal 0 0 1
    outer loop
      vertex -9.36783 -10.404 3.5
      vertex -11.3262 -8.22899 3.5
      vertex -13.3826 -14.8629 3.5
    endloop
  endfacet
  facet normal 0 0 1
    outer loop
      vertex -11.3262 -8.22899 3.5
      vertex -12.7896 -5.69431 3.5
      vertex -18.2709 -8.13473 3.5
    endloop
  endfacet
  facet normal 0 0 1
    outer loop
      vertex -12.7896 -5.69431 3.5
      vertex -13.6941 -2.91076 3.5
      vertex -18.2709 -8.13473 3.5
    endloop
  endfacet
  facet normal -0.951057 0.309017 0
    outer loop
      vertex -19.563 4.15823 3.5
      vertex -18.2709 8.13473 -3.5
      vertex -19.563 4.15823 -3.5
    endloop
  endfacet
  facet normal -0.951057 0.309017 0
    outer loop
      vertex -19.563 4.15823 3.5
      vertex -18.2709 8.13473 3.5
      vertex -18.2709 8.13473 -3.5
    endloop
  endfacet
  facet normal 0.951057 0.309017 0
    outer loop
      vertex 19.563 4.15823 3.5
      vertex 19.563 4.15823 -3.5
      vertex 18.2709 8.13473 -3.5
    endloop
  endfacet
  facet normal 0.951057 0.309017 0
    outer loop
      vertex 18.2709 8.13473 3.5
      vertex 19.563 4.15823 3.5
      vertex 18.2709 8.13473 -3.5
    endloop
  endfacet
  facet normal -0.994522 -0.104528 0
    outer loop
      vertex -16.6285 -3.5345 -3.5
      vertex -17 9.63135e-015 -3.5
      vertex -17 9.63135e-015 -14
    endloop
  endfacet
  facet normal -0.994522 -0.104528 0
    outer loop
      vertex -16.6285 -3.5345 -14
      vertex -16.6285 -3.5345 -3.5
      vertex -17 9.63135e-015 -14
    endloop
  endfacet
  facet normal 0 0 -1
    outer loop
      vertex -15.5303 -6.91452 -14
      vertex -16.6285 -3.5345 -14
      vertex -13.6941 -2.91076 -14
    endloop
  endfacet
  facet normal 0 0 -1
    outer loop
      vertex -13.6941 2.91076 -14
      vertex -14 7.9317e-015 -14
      vertex -17 9.63135e-015 -14
    endloop
  endfacet
  facet normal -0 0 -1
    outer loop
      vertex -13.6941 -2.91076 -14
      vertex -16.6285 -3.5345 -14
      vertex -17 9.63135e-015 -14
    endloop
  endfacet
  facet normal 0 0 -1
    outer loop
      vertex -17 9.63135e-015 -14
      vertex -16.6285 3.5345 -14
      vertex -13.6941 2.91076 -14
    endloop
  endfacet
  facet normal 0 0 -1
    outer loop
      vertex -13.7533 -9.99235 -14
      vertex -15.5303 -6.91452 -14
      vertex -11.3262 -8.22899 -14
    endloop
  endfacet
  facet normal 0 0 -1
    outer loop
      vertex -17 9.63135e-015 -14
      vertex -14 7.9317e-015 -14
      vertex -13.6941 -2.91076 -14
    endloop
  endfacet
  facet normal 0 0 -1
    outer loop
      vertex -15.5303 6.91452 -14
      vertex -13.7533 9.99235 -14
      vertex -11.3262 8.22899 -14
    endloop
  endfacet
  facet normal 0 0 -1
    outer loop
      vertex -13.7533 -9.99235 -14
      vertex -11.3262 -8.22899 -14
      vertex -11.3752 -12.6335 -14
    endloop
  endfacet
  facet normal 0 0 -1
    outer loop
      vertex -5.25329 -16.168 -14
      vertex -8.5 -14.7224 -14
      vertex -7 -12.1244 -14
    endloop
  endfacet
  facet normal 0 -0 -1
    outer loop
      vertex -13.6941 -2.91076 -14
      vertex -12.7896 -5.69431 -14
      vertex -15.5303 -6.91452 -14
    endloop
  endfacet
  facet normal 0 -0 -1
    outer loop
      vertex -9.36783 -10.404 -14
      vertex -8.5 -14.7224 -14
      vertex -11.3752 -12.6335 -14
    endloop
  endfacet
  facet normal 0 0 -1
    outer loop
      vertex -11.3752 -12.6335 -14
      vertex -11.3262 -8.22899 -14
      vertex -9.36783 -10.404 -14
    endloop
  endfacet
  facet normal 0 0 -1
    outer loop
      vertex -11.3262 -8.22899 -14
      vertex -15.5303 -6.91452 -14
      vertex -12.7896 -5.69431 -14
    endloop
  endfacet
  facet normal 0 0 -1
    outer loop
      vertex -5.25329 -16.168 -14
      vertex -1.4634 -13.9233 -14
      vertex -1.77698 -16.9069 -14
    endloop
  endfacet
  facet normal -0 0 -1
    outer loop
      vertex 5.25329 -16.168 -14
      vertex 1.77698 -16.9069 -14
      vertex 1.4634 -13.9233 -14
    endloop
  endfacet
  facet normal 0 0 -1
    outer loop
      vertex -9.36783 -10.404 -14
      vertex -7 -12.1244 -14
      vertex -8.5 -14.7224 -14
    endloop
  endfacet
  facet normal 0 -0 -1
    outer loop
      vertex 1.4634 -13.9233 -14
      vertex 1.77698 -16.9069 -14
      vertex -1.77698 -16.9069 -14
    endloop
  endfacet
  facet normal 0 0 -1
    outer loop
      vertex -5.25329 -16.168 -14
      vertex -4.32624 -13.3148 -14
      vertex -1.4634 -13.9233 -14
    endloop
  endfacet
  facet normal -0 0 -1
    outer loop
      vertex -4.32624 -13.3148 -14
      vertex -5.25329 -16.168 -14
      vertex -7 -12.1244 -14
    endloop
  endfacet
  facet normal 0 0 -1
    outer loop
      vertex 5.25329 -16.168 -14
      vertex 7 -12.1244 -14
      vertex 8.5 -14.7224 -14
    endloop
  endfacet
  facet normal -0 0 -1
    outer loop
      vertex 13.7533 -9.99235 -14
      vertex 11.3752 -12.6335 -14
      vertex 11.3262 -8.22899 -14
    endloop
  endfacet
  facet normal 0 -0 -1
    outer loop
      vertex -1.4634 -13.9233 -14
      vertex 1.4634 -13.9233 -14
      vertex -1.77698 -16.9069 -14
    endloop
  endfacet
  facet normal 0 0 -1
    outer loop
      vertex 7 -12.1244 -14
      vertex 11.3752 -12.6335 -14
      vertex 8.5 -14.7224 -14
    endloop
  endfacet
  facet normal 0 0 -1
    outer loop
      vertex 5.25329 -16.168 -14
      vertex 4.32624 -13.3148 -14
      vertex 7 -12.1244 -14
    endloop
  endfacet
  facet normal 0 -0 -1
    outer loop
      vertex 4.32624 -13.3148 -14
      vertex 5.25329 -16.168 -14
      vertex 1.4634 -13.9233 -14
    endloop
  endfacet
  facet normal 0 0 -1
    outer loop
      vertex 13.7533 -9.99235 -14
      vertex 11.3262 -8.22899 -14
      vertex 15.5303 -6.91452 -14
    endloop
  endfacet
  facet normal -0 0 -1
    outer loop
      vertex 17 0 -14
      vertex 16.6285 -3.5345 -14
      vertex 14 0 -14
    endloop
  endfacet
  facet normal 0 0 -1
    outer loop
      vertex 7 -12.1244 -14
      vertex 9.36783 -10.404 -14
      vertex 11.3752 -12.6335 -14
    endloop
  endfacet
  facet normal 0 0 -1
    outer loop
      vertex 12.7896 -5.69431 -14
      vertex 16.6285 -3.5345 -14
      vertex 15.5303 -6.91452 -14
    endloop
  endfacet
  facet normal -0 0 -1
    outer loop
      vertex 15.5303 -6.91452 -14
      vertex 11.3262 -8.22899 -14
      vertex 12.7896 -5.69431 -14
    endloop
  endfacet
  facet normal 0 -0 -1
    outer loop
      vertex 11.3262 -8.22899 -14
      vertex 11.3752 -12.6335 -14
      vertex 9.36783 -10.404 -14
    endloop
  endfacet
  facet normal 0 0 -1
    outer loop
      vertex 17 0 -14
      vertex 13.6941 2.91076 -14
      vertex 16.6285 3.5345 -14
    endloop
  endfacet
  facet normal 0 -0 -1
    outer loop
      vertex 13.7533 9.99235 -14
      vertex 15.5303 6.91452 -14
      vertex 11.3262 8.22899 -14
    endloop
  endfacet
  facet normal 0 0 -1
    outer loop
      vertex 12.7896 -5.69431 -14
      vertex 13.6941 -2.91076 -14
      vertex 16.6285 -3.5345 -14
    endloop
  endfacet
  facet normal 0 0 -1
    outer loop
      vertex 13.6941 2.91076 -14
      vertex 15.5303 6.91452 -14
      vertex 16.6285 3.5345 -14
    endloop
  endfacet
  facet normal 0 0 -1
    outer loop
      vertex 17 0 -14
      vertex 14 0 -14
      vertex 13.6941 2.91076 -14
    endloop
  endfacet
  facet normal 0 -0 -1
    outer loop
      vertex 14 0 -14
      vertex 16.6285 -3.5345 -14
      vertex 13.6941 -2.91076 -14
    endloop
  endfacet
  facet normal -0 0 -1
    outer loop
      vertex 13.7533 9.99235 -14
      vertex 11.3262 8.22899 -14
      vertex 11.3752 12.6335 -14
    endloop
  endfacet
  facet normal 0 0 -1
    outer loop
      vertex 5.25329 16.168 -14
      vertex 8.5 14.7224 -14
      vertex 7 12.1244 -14
    endloop
  endfacet
  facet normal 0 0 -1
    outer loop
      vertex 13.6941 2.91076 -14
      vertex 12.7896 5.69431 -14
      vertex 15.5303 6.91452 -14
    endloop
  endfacet
  facet normal 0 0 -1
    outer loop
      vertex 7 12.1244 -14
      vertex 8.5 14.7224 -14
      vertex 11.3752 12.6335 -14
    endloop
  endfacet
  facet normal 0 0 -1
    outer loop
      vertex 11.3752 12.6335 -14
      vertex 11.3262 8.22899 -14
      vertex 9.36783 10.404 -14
    endloop
  endfacet
  facet normal 0 0 -1
    outer loop
      vertex 11.3262 8.22899 -14
      vertex 15.5303 6.91452 -14
      vertex 12.7896 5.69431 -14
    endloop
  endfacet
  facet normal -0 0 -1
    outer loop
      vertex 5.25329 16.168 -14
      vertex 4.32624 13.3148 -14
      vertex 1.77698 16.9069 -14
    endloop
  endfacet
  facet normal 0 0 -1
    outer loop
      vertex -5.25329 16.168 -14
      vertex -1.77698 16.9069 -14
      vertex -1.4634 13.9233 -14
    endloop
  endfacet
  facet normal 0 0 -1
    outer loop
      vertex 9.36783 10.404 -14
      vertex 7 12.1244 -14
      vertex 11.3752 12.6335 -14
    endloop
  endfacet
  facet normal 0 0 -1
    outer loop
      vertex -1.4634 13.9233 -14
      vertex -1.77698 16.9069 -14
      vertex 1.77698 16.9069 -14
    endloop
  endfacet
  facet normal 0 -0 -1
    outer loop
      vertex 1.77698 16.9069 -14
      vertex 4.32624 13.3148 -14
      vertex 1.4634 13.9233 -14
    endloop
  endfacet
  facet normal 0 0 -1
    outer loop
      vertex 4.32624 13.3148 -14
      vertex 5.25329 16.168 -14
      vertex 7 12.1244 -14
    endloop
  endfacet
  facet normal 0 -0 -1
    outer loop
      vertex -5.25329 16.168 -14
      vertex -4.32624 13.3148 -14
      vertex -8.5 14.7224 -14
    endloop
  endfacet
  facet normal 0 0 -1
    outer loop
      vertex -13.7533 9.99235 -14
      vertex -11.3752 12.6335 -14
      vertex -11.3262 8.22899 -14
    endloop
  endfacet
  facet normal 0 0 -1
    outer loop
      vertex 1.4634 13.9233 -14
      vertex -1.4634 13.9233 -14
      vertex 1.77698 16.9069 -14
    endloop
  endfacet
  facet normal 0 0 -1
    outer loop
      vertex -9.36783 10.404 -14
      vertex -11.3752 12.6335 -14
      vertex -8.5 14.7224 -14
    endloop
  endfacet
  facet normal 0 0 -1
    outer loop
      vertex -4.32624 13.3148 -14
      vertex -5.25329 16.168 -14
      vertex -1.4634 13.9233 -14
    endloop
  endfacet
  facet normal 0 0 -1
    outer loop
      vertex -7 12.1244 -14
      vertex -8.5 14.7224 -14
      vertex -4.32624 13.3148 -14
    endloop
  endfacet
  facet normal 0 0 -1
    outer loop
      vertex -9.36783 10.404 -14
      vertex -8.5 14.7224 -14
      vertex -7 12.1244 -14
    endloop
  endfacet
  facet normal -0 0 -1
    outer loop
      vertex -9.36783 10.404 -14
      vertex -11.3262 8.22899 -14
      vertex -11.3752 12.6335 -14
    endloop
  endfacet
  facet normal 0 0 -1
    outer loop
      vertex -11.3262 8.22899 -14
      vertex -12.7896 5.69431 -14
      vertex -15.5303 6.91452 -14
    endloop
  endfacet
  facet normal 0 0 -1
    outer loop
      vertex -13.6941 2.91076 -14
      vertex -16.6285 3.5345 -14
      vertex -15.5303 6.91452 -14
    endloop
  endfacet
  facet normal 0 0 -1
    outer loop
      vertex -13.6941 2.91076 -14
      vertex -15.5303 6.91452 -14
      vertex -12.7896 5.69431 -14
    endloop
  endfacet
  facet normal 0.587785 0.809017 0
    outer loop
      vertex 8.5 14.7224 -3.5
      vertex 11.3752 12.6335 -14
      vertex 8.5 14.7224 -14
    endloop
  endfacet
  facet normal 0.587785 0.809017 0
    outer loop
      vertex 8.5 14.7224 -3.5
      vertex 11.3752 12.6335 -3.5
      vertex 11.3752 12.6335 -14
    endloop
  endfacet
  facet normal -0.951057 0.309017 0
    outer loop
      vertex -16.6285 3.5345 -3.5
      vertex -15.5303 6.91452 -14
      vertex -16.6285 3.5345 -14
    endloop
  endfacet
  facet normal -0.951057 0.309017 0
    outer loop
      vertex -16.6285 3.5345 -3.5
      vertex -15.5303 6.91452 -3.5
      vertex -15.5303 6.91452 -14
    endloop
  endfacet
  facet normal -0.587785 -0.809017 0
    outer loop
      vertex -8.5 -14.7224 -14
      vertex -11.3752 -12.6335 -3.5
      vertex -11.3752 -12.6335 -14
    endloop
  endfacet
  facet normal -0.587785 -0.809017 0
    outer loop
      vertex -8.5 -14.7224 -14
      vertex -8.5 -14.7224 -3.5
      vertex -11.3752 -12.6335 -3.5
    endloop
  endfacet
  facet normal -0.951057 -0.309017 0
    outer loop
      vertex -15.5303 -6.91452 -3.5
      vertex -16.6285 -3.5345 -3.5
      vertex -16.6285 -3.5345 -14
    endloop
  endfacet
  facet normal -0.951057 -0.309017 0
    outer loop
      vertex -15.5303 -6.91452 -14
      vertex -15.5303 -6.91452 -3.5
      vertex -16.6285 -3.5345 -14
    endloop
  endfacet
  facet normal -0.994522 0.104528 0
    outer loop
      vertex -17 9.63135e-015 -3.5
      vertex -16.6285 3.5345 -14
      vertex -17 9.63135e-015 -14
    endloop
  endfacet
  facet normal -0.994522 0.104528 0
    outer loop
      vertex -17 9.63135e-015 -3.5
      vertex -16.6285 3.5345 -3.5
      vertex -16.6285 3.5345 -14
    endloop
  endfacet
  facet normal 0.951057 -0.309017 0
    outer loop
      vertex 16.6285 -3.5345 -14
      vertex 15.5303 -6.91452 -3.5
      vertex 15.5303 -6.91452 -14
    endloop
  endfacet
  facet normal 0.951057 -0.309017 0
    outer loop
      vertex 16.6285 -3.5345 -14
      vertex 16.6285 -3.5345 -3.5
      vertex 15.5303 -6.91452 -3.5
    endloop
  endfacet
  facet normal 0.587785 -0.809017 0
    outer loop
      vertex 11.3752 -12.6335 -14
      vertex 8.5 -14.7224 -3.5
      vertex 8.5 -14.7224 -14
    endloop
  endfacet
  facet normal 0.587785 -0.809017 0
    outer loop
      vertex 11.3752 -12.6335 -14
      vertex 11.3752 -12.6335 -3.5
      vertex 8.5 -14.7224 -3.5
    endloop
  endfacet
  facet normal 0.207912 -0.978148 0
    outer loop
      vertex 5.25329 -16.168 -14
      vertex 1.77698 -16.9069 -3.5
      vertex 1.77698 -16.9069 -14
    endloop
  endfacet
  facet normal 0.207912 -0.978148 0
    outer loop
      vertex 5.25329 -16.168 -14
      vertex 5.25329 -16.168 -3.5
      vertex 1.77698 -16.9069 -3.5
    endloop
  endfacet
  facet normal 0.866025 0.5 0
    outer loop
      vertex 15.5303 6.91452 -3.5
      vertex 15.5303 6.91452 -14
      vertex 13.7533 9.99235 -14
    endloop
  endfacet
  facet normal 0.866025 0.5 0
    outer loop
      vertex 13.7533 9.99235 -3.5
      vertex 15.5303 6.91452 -3.5
      vertex 13.7533 9.99235 -14
    endloop
  endfacet
  facet normal 0.994522 0.104528 0
    outer loop
      vertex 17 0 -3.5
      vertex 17 0 -14
      vertex 16.6285 3.5345 -14
    endloop
  endfacet
  facet normal 0.994522 0.104528 0
    outer loop
      vertex 16.6285 3.5345 -3.5
      vertex 17 0 -3.5
      vertex 16.6285 3.5345 -14
    endloop
  endfacet
  facet normal -0.207912 0.978148 0
    outer loop
      vertex -5.25329 16.168 -3.5
      vertex -1.77698 16.9069 -14
      vertex -5.25329 16.168 -14
    endloop
  endfacet
  facet normal -0.207912 0.978148 0
    outer loop
      vertex -5.25329 16.168 -3.5
      vertex -1.77698 16.9069 -3.5
      vertex -1.77698 16.9069 -14
    endloop
  endfacet
  facet normal -0.587785 0.809017 0
    outer loop
      vertex -11.3752 12.6335 -3.5
      vertex -8.5 14.7224 -14
      vertex -11.3752 12.6335 -14
    endloop
  endfacet
  facet normal -0.587785 0.809017 0
    outer loop
      vertex -11.3752 12.6335 -3.5
      vertex -8.5 14.7224 -3.5
      vertex -8.5 14.7224 -14
    endloop
  endfacet
  facet normal -0.866025 0.5 0
    outer loop
      vertex -15.5303 6.91452 -3.5
      vertex -13.7533 9.99235 -14
      vertex -15.5303 6.91452 -14
    endloop
  endfacet
  facet normal -0.866025 0.5 0
    outer loop
      vertex -15.5303 6.91452 -3.5
      vertex -13.7533 9.99235 -3.5
      vertex -13.7533 9.99235 -14
    endloop
  endfacet
  facet normal -0.406737 -0.913545 0
    outer loop
      vertex -5.25329 -16.168 -14
      vertex -8.5 -14.7224 -3.5
      vertex -8.5 -14.7224 -14
    endloop
  endfacet
  facet normal -0.406737 -0.913545 0
    outer loop
      vertex -5.25329 -16.168 -14
      vertex -5.25329 -16.168 -3.5
      vertex -8.5 -14.7224 -3.5
    endloop
  endfacet
  facet normal -9.99647e-016 -1 0
    outer loop
      vertex 1.77698 -16.9069 -14
      vertex -1.77698 -16.9069 -3.5
      vertex -1.77698 -16.9069 -14
    endloop
  endfacet
  facet normal -9.99647e-016 -1 0
    outer loop
      vertex 1.77698 -16.9069 -14
      vertex 1.77698 -16.9069 -3.5
      vertex -1.77698 -16.9069 -3.5
    endloop
  endfacet
  facet normal -0.207912 -0.978148 0
    outer loop
      vertex -1.77698 -16.9069 -14
      vertex -5.25329 -16.168 -3.5
      vertex -5.25329 -16.168 -14
    endloop
  endfacet
  facet normal -0.207912 -0.978148 0
    outer loop
      vertex -1.77698 -16.9069 -14
      vertex -1.77698 -16.9069 -3.5
      vertex -5.25329 -16.168 -3.5
    endloop
  endfacet
  facet normal -0.866025 -0.5 0
    outer loop
      vertex -13.7533 -9.99235 -3.5
      vertex -15.5303 -6.91452 -3.5
      vertex -15.5303 -6.91452 -14
    endloop
  endfacet
  facet normal -0.866025 -0.5 0
    outer loop
      vertex -13.7533 -9.99235 -14
      vertex -13.7533 -9.99235 -3.5
      vertex -15.5303 -6.91452 -14
    endloop
  endfacet
  facet normal -0.743145 -0.669131 0
    outer loop
      vertex -11.3752 -12.6335 -3.5
      vertex -13.7533 -9.99235 -3.5
      vertex -13.7533 -9.99235 -14
    endloop
  endfacet
  facet normal -0.743145 -0.669131 0
    outer loop
      vertex -11.3752 -12.6335 -14
      vertex -11.3752 -12.6335 -3.5
      vertex -13.7533 -9.99235 -14
    endloop
  endfacet
  facet normal 0.994522 -0.104528 0
    outer loop
      vertex 17 0 -14
      vertex 16.6285 -3.5345 -3.5
      vertex 16.6285 -3.5345 -14
    endloop
  endfacet
  facet normal 0.994522 -0.104528 0
    outer loop
      vertex 17 0 -14
      vertex 17 0 -3.5
      vertex 16.6285 -3.5345 -3.5
    endloop
  endfacet
  facet normal 0.406737 -0.913545 0
    outer loop
      vertex 8.5 -14.7224 -14
      vertex 5.25329 -16.168 -3.5
      vertex 5.25329 -16.168 -14
    endloop
  endfacet
  facet normal 0.406737 -0.913545 0
    outer loop
      vertex 8.5 -14.7224 -14
      vertex 8.5 -14.7224 -3.5
      vertex 5.25329 -16.168 -3.5
    endloop
  endfacet
  facet normal 0.743145 0.669131 0
    outer loop
      vertex 13.7533 9.99235 -3.5
      vertex 13.7533 9.99235 -14
      vertex 11.3752 12.6335 -14
    endloop
  endfacet
  facet normal 0.743145 0.669131 0
    outer loop
      vertex 11.3752 12.6335 -3.5
      vertex 13.7533 9.99235 -3.5
      vertex 11.3752 12.6335 -14
    endloop
  endfacet
  facet normal -0.406737 0.913545 0
    outer loop
      vertex -8.5 14.7224 -3.5
      vertex -5.25329 16.168 -14
      vertex -8.5 14.7224 -14
    endloop
  endfacet
  facet normal -0.406737 0.913545 0
    outer loop
      vertex -8.5 14.7224 -3.5
      vertex -5.25329 16.168 -3.5
      vertex -5.25329 16.168 -14
    endloop
  endfacet
  facet normal -0.743145 0.669131 0
    outer loop
      vertex -13.7533 9.99235 -3.5
      vertex -11.3752 12.6335 -14
      vertex -13.7533 9.99235 -14
    endloop
  endfacet
  facet normal -0.743145 0.669131 0
    outer loop
      vertex -13.7533 9.99235 -3.5
      vertex -11.3752 12.6335 -3.5
      vertex -11.3752 12.6335 -14
    endloop
  endfacet
  facet normal 0.866025 -0.5 0
    outer loop
      vertex 15.5303 -6.91452 -14
      vertex 13.7533 -9.99235 -3.5
      vertex 13.7533 -9.99235 -14
    endloop
  endfacet
  facet normal 0.866025 -0.5 0
    outer loop
      vertex 15.5303 -6.91452 -14
      vertex 15.5303 -6.91452 -3.5
      vertex 13.7533 -9.99235 -3.5
    endloop
  endfacet
  facet normal 0.406737 0.913545 0
    outer loop
      vertex 5.25329 16.168 -3.5
      vertex 8.5 14.7224 -14
      vertex 5.25329 16.168 -14
    endloop
  endfacet
  facet normal 0.406737 0.913545 0
    outer loop
      vertex 5.25329 16.168 -3.5
      vertex 8.5 14.7224 -3.5
      vertex 8.5 14.7224 -14
    endloop
  endfacet
  facet normal 9.99647e-016 1 0
    outer loop
      vertex -1.77698 16.9069 -3.5
      vertex 1.77698 16.9069 -14
      vertex -1.77698 16.9069 -14
    endloop
  endfacet
  facet normal 9.99647e-016 1 0
    outer loop
      vertex -1.77698 16.9069 -3.5
      vertex 1.77698 16.9069 -3.5
      vertex 1.77698 16.9069 -14
    endloop
  endfacet
  facet normal 0.207912 0.978148 0
    outer loop
      vertex 1.77698 16.9069 -3.5
      vertex 5.25329 16.168 -14
      vertex 1.77698 16.9069 -14
    endloop
  endfacet
  facet normal 0.207912 0.978148 0
    outer loop
      vertex 1.77698 16.9069 -3.5
      vertex 5.25329 16.168 -3.5
      vertex 5.25329 16.168 -14
    endloop
  endfacet
  facet normal 0.743145 -0.669131 0
    outer loop
      vertex 13.7533 -9.99235 -14
      vertex 11.3752 -12.6335 -3.5
      vertex 11.3752 -12.6335 -14
    endloop
  endfacet
  facet normal 0.743145 -0.669131 0
    outer loop
      vertex 13.7533 -9.99235 -14
      vertex 13.7533 -9.99235 -3.5
      vertex 11.3752 -12.6335 -3.5
    endloop
  endfacet
  facet normal 0.951057 0.309017 0
    outer loop
      vertex 16.6285 3.5345 -3.5
      vertex 16.6285 3.5345 -14
      vertex 15.5303 6.91452 -14
    endloop
  endfacet
  facet normal 0.951057 0.309017 0
    outer loop
      vertex 15.5303 6.91452 -3.5
      vertex 16.6285 3.5345 -3.5
      vertex 15.5303 6.91452 -14
    endloop
  endfacet
  facet normal 0.994522 0.104528 -0
    outer loop
      vertex -14 7.9317e-015 -14
      vertex -14 7.9317e-015 3.5
      vertex -13.6941 -2.91076 3.5
    endloop
  endfacet
  facet normal 0.994522 0.104528 -0
    outer loop
      vertex -13.6941 -2.91076 -14
      vertex -14 7.9317e-015 -14
      vertex -13.6941 -2.91076 3.5
    endloop
  endfacet
  facet normal 0.951057 -0.309017 0
    outer loop
      vertex -13.6941 2.91076 3.5
      vertex -12.7896 5.69431 -14
      vertex -12.7896 5.69431 3.5
    endloop
  endfacet
  facet normal 0.951057 -0.309017 0
    outer loop
      vertex -13.6941 2.91076 3.5
      vertex -13.6941 2.91076 -14
      vertex -12.7896 5.69431 -14
    endloop
  endfacet
  facet normal -0.406737 -0.913545 0
    outer loop
      vertex 4.32624 13.3148 3.5
      vertex 7 12.1244 -14
      vertex 7 12.1244 3.5
    endloop
  endfacet
  facet normal -0.406737 -0.913545 -0
    outer loop
      vertex 4.32624 13.3148 3.5
      vertex 4.32624 13.3148 -14
      vertex 7 12.1244 -14
    endloop
  endfacet
  facet normal 0.207912 0.978148 -0
    outer loop
      vertex -1.4634 -13.9233 -14
      vertex -4.32624 -13.3148 3.5
      vertex -1.4634 -13.9233 3.5
    endloop
  endfacet
  facet normal 0.207912 0.978148 0
    outer loop
      vertex -1.4634 -13.9233 -14
      vertex -4.32624 -13.3148 -14
      vertex -4.32624 -13.3148 3.5
    endloop
  endfacet
  facet normal -0.951057 -0.309017 0
    outer loop
      vertex 12.7896 5.69431 -14
      vertex 13.6941 2.91076 -14
      vertex 13.6941 2.91076 3.5
    endloop
  endfacet
  facet normal -0.951057 -0.309017 -0
    outer loop
      vertex 12.7896 5.69431 3.5
      vertex 12.7896 5.69431 -14
      vertex 13.6941 2.91076 3.5
    endloop
  endfacet
  facet normal 0.207912 -0.978148 0
    outer loop
      vertex -4.32624 13.3148 3.5
      vertex -1.4634 13.9233 -14
      vertex -1.4634 13.9233 3.5
    endloop
  endfacet
  facet normal 0.207912 -0.978148 0
    outer loop
      vertex -4.32624 13.3148 3.5
      vertex -4.32624 13.3148 -14
      vertex -1.4634 13.9233 -14
    endloop
  endfacet
  facet normal 0.587785 0.809017 -0
    outer loop
      vertex -7 -12.1244 -14
      vertex -9.36783 -10.404 3.5
      vertex -7 -12.1244 3.5
    endloop
  endfacet
  facet normal 0.587785 0.809017 0
    outer loop
      vertex -7 -12.1244 -14
      vertex -9.36783 -10.404 -14
      vertex -9.36783 -10.404 3.5
    endloop
  endfacet
  facet normal 0.951057 0.309017 -0
    outer loop
      vertex -13.6941 -2.91076 -14
      vertex -13.6941 -2.91076 3.5
      vertex -12.7896 -5.69431 3.5
    endloop
  endfacet
  facet normal 0.951057 0.309017 -0
    outer loop
      vertex -12.7896 -5.69431 -14
      vertex -13.6941 -2.91076 -14
      vertex -12.7896 -5.69431 3.5
    endloop
  endfacet
  facet normal 0.587785 -0.809017 0
    outer loop
      vertex -9.36783 10.404 3.5
      vertex -7 12.1244 -14
      vertex -7 12.1244 3.5
    endloop
  endfacet
  facet normal 0.587785 -0.809017 0
    outer loop
      vertex -9.36783 10.404 3.5
      vertex -9.36783 10.404 -14
      vertex -7 12.1244 -14
    endloop
  endfacet
  facet normal 0.994522 -0.104528 0
    outer loop
      vertex -14 7.9317e-015 3.5
      vertex -13.6941 2.91076 -14
      vertex -13.6941 2.91076 3.5
    endloop
  endfacet
  facet normal 0.994522 -0.104528 0
    outer loop
      vertex -14 7.9317e-015 3.5
      vertex -14 7.9317e-015 -14
      vertex -13.6941 2.91076 -14
    endloop
  endfacet
  facet normal -0.951057 0.309017 0
    outer loop
      vertex 13.6941 -2.91076 -14
      vertex 12.7896 -5.69431 3.5
      vertex 13.6941 -2.91076 3.5
    endloop
  endfacet
  facet normal -0.951057 0.309017 0
    outer loop
      vertex 13.6941 -2.91076 -14
      vertex 12.7896 -5.69431 -14
      vertex 12.7896 -5.69431 3.5
    endloop
  endfacet
  facet normal -0.587785 0.809017 0
    outer loop
      vertex 9.36783 -10.404 -14
      vertex 7 -12.1244 3.5
      vertex 9.36783 -10.404 3.5
    endloop
  endfacet
  facet normal -0.587785 0.809017 0
    outer loop
      vertex 9.36783 -10.404 -14
      vertex 7 -12.1244 -14
      vertex 7 -12.1244 3.5
    endloop
  endfacet
  facet normal -0.207912 0.978148 0
    outer loop
      vertex 4.32624 -13.3148 -14
      vertex 1.4634 -13.9233 3.5
      vertex 4.32624 -13.3148 3.5
    endloop
  endfacet
  facet normal -0.207912 0.978148 0
    outer loop
      vertex 4.32624 -13.3148 -14
      vertex 1.4634 -13.9233 -14
      vertex 1.4634 -13.9233 3.5
    endloop
  endfacet
  facet normal -0.994522 -0.104528 0
    outer loop
      vertex 13.6941 2.91076 -14
      vertex 14 0 -14
      vertex 14 0 3.5
    endloop
  endfacet
  facet normal -0.994522 -0.104528 -0
    outer loop
      vertex 13.6941 2.91076 3.5
      vertex 13.6941 2.91076 -14
      vertex 14 0 3.5
    endloop
  endfacet
  facet normal 0.406737 0.913545 -0
    outer loop
      vertex -4.32624 -13.3148 -14
      vertex -7 -12.1244 3.5
      vertex -4.32624 -13.3148 3.5
    endloop
  endfacet
  facet normal 0.406737 0.913545 0
    outer loop
      vertex -4.32624 -13.3148 -14
      vertex -7 -12.1244 -14
      vertex -7 -12.1244 3.5
    endloop
  endfacet
  facet normal 6.06929e-016 1 -0
    outer loop
      vertex 1.4634 -13.9233 -14
      vertex -1.4634 -13.9233 3.5
      vertex 1.4634 -13.9233 3.5
    endloop
  endfacet
  facet normal 6.06929e-016 1 0
    outer loop
      vertex 1.4634 -13.9233 -14
      vertex -1.4634 -13.9233 -14
      vertex -1.4634 -13.9233 3.5
    endloop
  endfacet
  facet normal 0.866025 0.5 -0
    outer loop
      vertex -12.7896 -5.69431 -14
      vertex -12.7896 -5.69431 3.5
      vertex -11.3262 -8.22899 3.5
    endloop
  endfacet
  facet normal 0.866025 0.5 -0
    outer loop
      vertex -11.3262 -8.22899 -14
      vertex -12.7896 -5.69431 -14
      vertex -11.3262 -8.22899 3.5
    endloop
  endfacet
  facet normal 0.743145 0.669131 -0
    outer loop
      vertex -11.3262 -8.22899 -14
      vertex -11.3262 -8.22899 3.5
      vertex -9.36783 -10.404 3.5
    endloop
  endfacet
  facet normal 0.743145 0.669131 -0
    outer loop
      vertex -9.36783 -10.404 -14
      vertex -11.3262 -8.22899 -14
      vertex -9.36783 -10.404 3.5
    endloop
  endfacet
  facet normal 0.743145 -0.669131 0
    outer loop
      vertex -11.3262 8.22899 3.5
      vertex -9.36783 10.404 -14
      vertex -9.36783 10.404 3.5
    endloop
  endfacet
  facet normal 0.743145 -0.669131 0
    outer loop
      vertex -11.3262 8.22899 3.5
      vertex -11.3262 8.22899 -14
      vertex -9.36783 10.404 -14
    endloop
  endfacet
  facet normal 0.866025 -0.5 0
    outer loop
      vertex -12.7896 5.69431 3.5
      vertex -11.3262 8.22899 -14
      vertex -11.3262 8.22899 3.5
    endloop
  endfacet
  facet normal 0.866025 -0.5 0
    outer loop
      vertex -12.7896 5.69431 3.5
      vertex -12.7896 5.69431 -14
      vertex -11.3262 8.22899 -14
    endloop
  endfacet
  facet normal -0.994522 0.104528 0
    outer loop
      vertex 14 0 -14
      vertex 13.6941 -2.91076 3.5
      vertex 14 0 3.5
    endloop
  endfacet
  facet normal -0.994522 0.104528 0
    outer loop
      vertex 14 0 -14
      vertex 13.6941 -2.91076 -14
      vertex 13.6941 -2.91076 3.5
    endloop
  endfacet
  facet normal -0.406737 0.913545 0
    outer loop
      vertex 7 -12.1244 -14
      vertex 4.32624 -13.3148 3.5
      vertex 7 -12.1244 3.5
    endloop
  endfacet
  facet normal -0.406737 0.913545 0
    outer loop
      vertex 7 -12.1244 -14
      vertex 4.32624 -13.3148 -14
      vertex 4.32624 -13.3148 3.5
    endloop
  endfacet
  facet normal -0.743145 -0.669131 0
    outer loop
      vertex 9.36783 10.404 -14
      vertex 11.3262 8.22899 -14
      vertex 11.3262 8.22899 3.5
    endloop
  endfacet
  facet normal -0.743145 -0.669131 -0
    outer loop
      vertex 9.36783 10.404 3.5
      vertex 9.36783 10.404 -14
      vertex 11.3262 8.22899 3.5
    endloop
  endfacet
  facet normal -0.743145 0.669131 0
    outer loop
      vertex 11.3262 -8.22899 -14
      vertex 9.36783 -10.404 3.5
      vertex 11.3262 -8.22899 3.5
    endloop
  endfacet
  facet normal -0.743145 0.669131 0
    outer loop
      vertex 11.3262 -8.22899 -14
      vertex 9.36783 -10.404 -14
      vertex 9.36783 -10.404 3.5
    endloop
  endfacet
  facet normal -0.866025 0.5 0
    outer loop
      vertex 12.7896 -5.69431 -14
      vertex 11.3262 -8.22899 3.5
      vertex 12.7896 -5.69431 3.5
    endloop
  endfacet
  facet normal -0.866025 0.5 0
    outer loop
      vertex 12.7896 -5.69431 -14
      vertex 11.3262 -8.22899 -14
      vertex 11.3262 -8.22899 3.5
    endloop
  endfacet
  facet normal -0.866025 -0.5 0
    outer loop
      vertex 11.3262 8.22899 -14
      vertex 12.7896 5.69431 -14
      vertex 12.7896 5.69431 3.5
    endloop
  endfacet
  facet normal -0.866025 -0.5 -0
    outer loop
      vertex 11.3262 8.22899 3.5
      vertex 11.3262 8.22899 -14
      vertex 12.7896 5.69431 3.5
    endloop
  endfacet
  facet normal -0.587785 -0.809017 0
    outer loop
      vertex 7 12.1244 3.5
      vertex 9.36783 10.404 -14
      vertex 9.36783 10.404 3.5
    endloop
  endfacet
  facet normal -0.587785 -0.809017 -0
    outer loop
      vertex 7 12.1244 3.5
      vertex 7 12.1244 -14
      vertex 9.36783 10.404 -14
    endloop
  endfacet
  facet normal -6.06929e-016 -1 0
    outer loop
      vertex -1.4634 13.9233 3.5
      vertex 1.4634 13.9233 -14
      vertex 1.4634 13.9233 3.5
    endloop
  endfacet
  facet normal -6.06929e-016 -1 -0
    outer loop
      vertex -1.4634 13.9233 3.5
      vertex -1.4634 13.9233 -14
      vertex 1.4634 13.9233 -14
    endloop
  endfacet
  facet normal -0.207912 -0.978148 0
    outer loop
      vertex 1.4634 13.9233 3.5
      vertex 4.32624 13.3148 -14
      vertex 4.32624 13.3148 3.5
    endloop
  endfacet
  facet normal -0.207912 -0.978148 -0
    outer loop
      vertex 1.4634 13.9233 3.5
      vertex 1.4634 13.9233 -14
      vertex 4.32624 13.3148 -14
    endloop
  endfacet
  facet normal 0.406737 -0.913545 0
    outer loop
      vertex -7 12.1244 3.5
      vertex -4.32624 13.3148 -14
      vertex -4.32624 13.3148 3.5
    endloop
  endfacet
  facet normal 0.406737 -0.913545 0
    outer loop
      vertex -7 12.1244 3.5
      vertex -7 12.1244 -14
      vertex -4.32624 13.3148 -14
    endloop
  endfacet
endsolid OpenSCAD_Model
