solid CATIA STL
  facet normal  9.659258e-001 -2.588191e-001  0.000000e+000
    outer loop
      vertex -1.385641e+000  8.000000e-001  1.350000e+001
      vertex -1.385641e+000  8.000000e-001  1.500000e+001
      vertex -1.600000e+000  1.959370e-016  1.500000e+001
    endloop
  endfacet
  facet normal  9.659258e-001 -2.588191e-001  0.000000e+000
    outer loop
      vertex -1.385641e+000  8.000000e-001  1.350000e+001
      vertex -1.600000e+000  1.959370e-016  1.500000e+001
      vertex -1.600000e+000  1.959370e-016  1.500000e+000
    endloop
  endfacet
  facet normal  9.289973e-001 -3.699985e-001  8.071625e-003
    outer loop
      vertex -1.385641e+000  8.000000e-001  1.350000e+001
      vertex -1.600000e+000  1.959370e-016  1.500000e+000
      vertex -1.161895e+000  1.100000e+000  1.500000e+000
    endloop
  endfacet
  facet normal  6.427711e-001 -7.660248e-001 -7.165854e-003
    outer loop
      vertex -1.385641e+000  8.000000e-001  1.350000e+001
      vertex -1.161895e+000  1.100000e+000  1.500000e+000
      vertex -5.472322e-001  1.503508e+000  1.350000e+001
    endloop
  endfacet
  facet normal  0.000000e+000 -9.999960e-001 -2.824622e-003
    outer loop
      vertex  5.472322e-001  1.503508e+000  1.350000e+001
      vertex -5.472322e-001  1.503508e+000  1.350000e+001
      vertex -4.281865e-001  1.541641e+000  0.000000e+000
    endloop
  endfacet
  facet normal  0.000000e+000 -9.999961e-001 -2.824622e-003
    outer loop
      vertex  5.472322e-001  1.503508e+000  1.350000e+001
      vertex -4.281865e-001  1.541641e+000  0.000000e+000
      vertex  4.281865e-001  1.541641e+000  0.000000e+000
    endloop
  endfacet
  facet normal -5.157096e-001 -8.567608e-001  2.127595e-003
    outer loop
      vertex  5.472322e-001  1.503508e+000  1.350000e+001
      vertex  4.281865e-001  1.541641e+000  0.000000e+000
      vertex  1.161895e+000  1.100000e+000  0.000000e+000
    endloop
  endfacet
  facet normal -5.487854e-001 -8.359632e-001  0.000000e+000
    outer loop
      vertex  5.472322e-001  1.503508e+000  1.350000e+001
      vertex  1.161895e+000  1.100000e+000  0.000000e+000
      vertex  1.161895e+000  1.100000e+000  1.500000e+000
    endloop
  endfacet
  facet normal -6.427711e-001 -7.660248e-001 -7.165854e-003
    outer loop
      vertex  5.472322e-001  1.503508e+000  1.350000e+001
      vertex  1.161895e+000  1.100000e+000  1.500000e+000
      vertex  1.385641e+000  8.000000e-001  1.350000e+001
    endloop
  endfacet
  facet normal  5.189499e-001 -8.548020e-001  2.161701e-003
    outer loop
      vertex -5.472322e-001  1.503508e+000  1.350000e+001
      vertex -1.161895e+000  1.100000e+000  1.500000e+000
      vertex -4.281865e-001  1.541641e+000  0.000000e+000
    endloop
  endfacet
  facet normal  5.157107e-001 -8.567628e-001  0.000000e+000
    outer loop
      vertex -4.281865e-001  1.541641e+000  0.000000e+000
      vertex -1.161895e+000  1.100000e+000  1.500000e+000
      vertex -1.161895e+000  1.100000e+000  0.000000e+000
    endloop
  endfacet
  facet normal -9.289973e-001 -3.699985e-001  8.071625e-003
    outer loop
      vertex  1.161895e+000  1.100000e+000  1.500000e+000
      vertex  1.600000e+000  0.000000e+000  1.500000e+000
      vertex  1.385641e+000  8.000000e-001  1.350000e+001
    endloop
  endfacet
  facet normal -9.659258e-001 -2.588191e-001  0.000000e+000
    outer loop
      vertex  1.385641e+000  8.000000e-001  1.350000e+001
      vertex  1.600000e+000  0.000000e+000  1.500000e+000
      vertex  1.600000e+000  0.000000e+000  1.500000e+001
    endloop
  endfacet
  facet normal -9.659258e-001 -2.588191e-001  0.000000e+000
    outer loop
      vertex  1.385641e+000  8.000000e-001  1.350000e+001
      vertex  1.600000e+000  0.000000e+000  1.500000e+001
      vertex  1.385641e+000  8.000000e-001  1.500000e+001
    endloop
  endfacet
  facet normal -9.659258e-001  2.588191e-001  0.000000e+000
    outer loop
      vertex  1.385641e+000 -8.000000e-001  1.350000e+001
      vertex  1.385641e+000 -8.000000e-001  1.500000e+001
      vertex  1.600000e+000  0.000000e+000  1.500000e+001
    endloop
  endfacet
  facet normal -9.659258e-001  2.588191e-001  0.000000e+000
    outer loop
      vertex  1.385641e+000 -8.000000e-001  1.350000e+001
      vertex  1.600000e+000  0.000000e+000  1.500000e+001
      vertex  1.600000e+000  0.000000e+000  1.500000e+000
    endloop
  endfacet
  facet normal -9.289973e-001  3.699985e-001  8.071625e-003
    outer loop
      vertex  1.385641e+000 -8.000000e-001  1.350000e+001
      vertex  1.600000e+000  0.000000e+000  1.500000e+000
      vertex  1.161895e+000 -1.100000e+000  1.500000e+000
    endloop
  endfacet
  facet normal -6.427711e-001  7.660248e-001 -7.165854e-003
    outer loop
      vertex  1.385641e+000 -8.000000e-001  1.350000e+001
      vertex  1.161895e+000 -1.100000e+000  1.500000e+000
      vertex  5.472322e-001 -1.503508e+000  1.350000e+001
    endloop
  endfacet
  facet normal  0.000000e+000  9.999960e-001 -2.824622e-003
    outer loop
      vertex -5.472322e-001 -1.503508e+000  1.350000e+001
      vertex  5.472322e-001 -1.503508e+000  1.350000e+001
      vertex  4.281865e-001 -1.541641e+000  0.000000e+000
    endloop
  endfacet
  facet normal  0.000000e+000  9.999961e-001 -2.824622e-003
    outer loop
      vertex -5.472322e-001 -1.503508e+000  1.350000e+001
      vertex  4.281865e-001 -1.541641e+000  0.000000e+000
      vertex -4.281865e-001 -1.541641e+000  0.000000e+000
    endloop
  endfacet
  facet normal  5.157096e-001  8.567608e-001  2.127595e-003
    outer loop
      vertex -5.472322e-001 -1.503508e+000  1.350000e+001
      vertex -4.281865e-001 -1.541641e+000  0.000000e+000
      vertex -1.161895e+000 -1.100000e+000  0.000000e+000
    endloop
  endfacet
  facet normal  5.487854e-001  8.359632e-001  -0.000000e+000
    outer loop
      vertex -5.472322e-001 -1.503508e+000  1.350000e+001
      vertex -1.161895e+000 -1.100000e+000  0.000000e+000
      vertex -1.161895e+000 -1.100000e+000  1.500000e+000
    endloop
  endfacet
  facet normal  6.427711e-001  7.660248e-001 -7.165854e-003
    outer loop
      vertex -5.472322e-001 -1.503508e+000  1.350000e+001
      vertex -1.161895e+000 -1.100000e+000  1.500000e+000
      vertex -1.385641e+000 -8.000000e-001  1.350000e+001
    endloop
  endfacet
  facet normal -5.189499e-001  8.548020e-001  2.161701e-003
    outer loop
      vertex  5.472322e-001 -1.503508e+000  1.350000e+001
      vertex  1.161895e+000 -1.100000e+000  1.500000e+000
      vertex  4.281865e-001 -1.541641e+000  0.000000e+000
    endloop
  endfacet
  facet normal -5.157107e-001  8.567628e-001  0.000000e+000
    outer loop
      vertex  4.281865e-001 -1.541641e+000  0.000000e+000
      vertex  1.161895e+000 -1.100000e+000  1.500000e+000
      vertex  1.161895e+000 -1.100000e+000  0.000000e+000
    endloop
  endfacet
  facet normal  9.289973e-001  3.699985e-001  8.071625e-003
    outer loop
      vertex -1.161895e+000 -1.100000e+000  1.500000e+000
      vertex -1.600000e+000  1.959370e-016  1.500000e+000
      vertex -1.385641e+000 -8.000000e-001  1.350000e+001
    endloop
  endfacet
  facet normal  9.659258e-001  2.588191e-001  0.000000e+000
    outer loop
      vertex -1.385641e+000 -8.000000e-001  1.350000e+001
      vertex -1.600000e+000  1.959370e-016  1.500000e+000
      vertex -1.600000e+000  1.959370e-016  1.500000e+001
    endloop
  endfacet
  facet normal  9.659258e-001  2.588191e-001  0.000000e+000
    outer loop
      vertex -1.385641e+000 -8.000000e-001  1.350000e+001
      vertex -1.600000e+000  1.959370e-016  1.500000e+001
      vertex -1.385641e+000 -8.000000e-001  1.500000e+001
    endloop
  endfacet
  facet normal  -0.000000e+000  0.000000e+000  1.000000e+000
    outer loop
      vertex  3.355965e+000  8.000000e-001  1.500000e+001
      vertex  1.385641e+000  8.000000e-001  1.500000e+001
      vertex  3.450000e+000  0.000000e+000  1.500000e+001
    endloop
  endfacet
  facet normal  0.000000e+000  0.000000e+000  1.000000e+000
    outer loop
      vertex  3.450000e+000  0.000000e+000  1.500000e+001
      vertex  1.385641e+000  8.000000e-001  1.500000e+001
      vertex  1.600000e+000  0.000000e+000  1.500000e+001
    endloop
  endfacet
  facet normal  -0.000000e+000  0.000000e+000  1.000000e+000
    outer loop
      vertex  3.450000e+000  0.000000e+000  1.500000e+001
      vertex  1.600000e+000  0.000000e+000  1.500000e+001
      vertex  3.355965e+000 -8.000000e-001  1.500000e+001
    endloop
  endfacet
  facet normal  0.000000e+000  0.000000e+000  1.000000e+000
    outer loop
      vertex  3.355965e+000 -8.000000e-001  1.500000e+001
      vertex  1.600000e+000  0.000000e+000  1.500000e+001
      vertex  1.385641e+000 -8.000000e-001  1.500000e+001
    endloop
  endfacet
  facet normal  -0.000000e+000  0.000000e+000  1.000000e+000
    outer loop
      vertex -1.385641e+000  8.000000e-001  1.500000e+001
      vertex -3.355965e+000  8.000000e-001  1.500000e+001
      vertex -1.600000e+000  1.959370e-016  1.500000e+001
    endloop
  endfacet
  facet normal  0.000000e+000  0.000000e+000  1.000000e+000
    outer loop
      vertex -1.600000e+000  1.959370e-016  1.500000e+001
      vertex -3.355965e+000  8.000000e-001  1.500000e+001
      vertex -3.450000e+000 -1.109619e-015  1.500000e+001
    endloop
  endfacet
  facet normal  -0.000000e+000  0.000000e+000  1.000000e+000
    outer loop
      vertex -1.600000e+000  1.959370e-016  1.500000e+001
      vertex -3.450000e+000 -1.109619e-015  1.500000e+001
      vertex -1.385641e+000 -8.000000e-001  1.500000e+001
    endloop
  endfacet
  facet normal  0.000000e+000  0.000000e+000  1.000000e+000
    outer loop
      vertex -1.385641e+000 -8.000000e-001  1.500000e+001
      vertex -3.450000e+000 -1.109619e-015  1.500000e+001
      vertex -3.355965e+000 -8.000000e-001  1.500000e+001
    endloop
  endfacet
  facet normal  0.000000e+000  -0.000000e+000  1.000000e+000
    outer loop
      vertex -2.138048e+000 -2.707628e+000  1.350000e+001
      vertex -8.557784e-016 -3.450000e+000  1.350000e+001
      vertex  2.138048e+000 -2.707628e+000  1.350000e+001
    endloop
  endfacet
  facet normal  0.000000e+000  0.000000e+000  1.000000e+000
    outer loop
      vertex -2.138048e+000 -2.707628e+000  1.350000e+001
      vertex  2.138048e+000 -2.707628e+000  1.350000e+001
      vertex  5.472322e-001 -1.503508e+000  1.350000e+001
    endloop
  endfacet
  facet normal  0.000000e+000  0.000000e+000  1.000000e+000
    outer loop
      vertex -2.138048e+000 -2.707628e+000  1.350000e+001
      vertex  5.472322e-001 -1.503508e+000  1.350000e+001
      vertex -5.472322e-001 -1.503508e+000  1.350000e+001
    endloop
  endfacet
  facet normal  0.000000e+000  0.000000e+000  1.000000e+000
    outer loop
      vertex -2.138048e+000 -2.707628e+000  1.350000e+001
      vertex -5.472322e-001 -1.503508e+000  1.350000e+001
      vertex -1.385641e+000 -8.000000e-001  1.350000e+001
    endloop
  endfacet
  facet normal  0.000000e+000  0.000000e+000  9.999999e-001
    outer loop
      vertex -2.138048e+000 -2.707628e+000  1.350000e+001
      vertex -1.385641e+000 -8.000000e-001  1.350000e+001
      vertex -3.355965e+000 -8.000000e-001  1.350000e+001
    endloop
  endfacet
  facet normal  0.000000e+000  0.000000e+000  1.000000e+000
    outer loop
      vertex  5.472322e-001 -1.503508e+000  1.350000e+001
      vertex  2.138048e+000 -2.707628e+000  1.350000e+001
      vertex  1.385641e+000 -8.000000e-001  1.350000e+001
    endloop
  endfacet
  facet normal  -0.000000e+000  0.000000e+000  9.999999e-001
    outer loop
      vertex  1.385641e+000 -8.000000e-001  1.350000e+001
      vertex  2.138048e+000 -2.707628e+000  1.350000e+001
      vertex  3.355965e+000 -8.000000e-001  1.350000e+001
    endloop
  endfacet
  facet normal  0.000000e+000 -9.999999e-001  0.000000e+000
    outer loop
      vertex  1.385641e+000 -8.000000e-001  1.350000e+001
      vertex  3.355965e+000 -8.000000e-001  1.350000e+001
      vertex  1.385641e+000 -8.000000e-001  1.500000e+001
    endloop
  endfacet
  facet normal  0.000000e+000 -9.999999e-001  0.000000e+000
    outer loop
      vertex  1.385641e+000 -8.000000e-001  1.500000e+001
      vertex  3.355965e+000 -8.000000e-001  1.350000e+001
      vertex  3.355965e+000 -8.000000e-001  1.500000e+001
    endloop
  endfacet
  facet normal  0.000000e+000 -9.999999e-001  0.000000e+000
    outer loop
      vertex -3.355965e+000 -8.000000e-001  1.350000e+001
      vertex -1.385641e+000 -8.000000e-001  1.350000e+001
      vertex -3.355965e+000 -8.000000e-001  1.500000e+001
    endloop
  endfacet
  facet normal  0.000000e+000 -9.999999e-001  0.000000e+000
    outer loop
      vertex -3.355965e+000 -8.000000e-001  1.500000e+001
      vertex -1.385641e+000 -8.000000e-001  1.350000e+001
      vertex -1.385641e+000 -8.000000e-001  1.500000e+001
    endloop
  endfacet
  facet normal  0.000000e+000  0.000000e+000  1.000000e+000
    outer loop
      vertex -2.138048e+000  2.707628e+000  1.350000e+001
      vertex  2.138048e+000  2.707628e+000  1.350000e+001
      vertex  1.278268e-015  3.450000e+000  1.350000e+001
    endloop
  endfacet
  facet normal  0.000000e+000  0.000000e+000  9.999999e-001
    outer loop
      vertex -3.355965e+000  8.000000e-001  1.350000e+001
      vertex -1.385641e+000  8.000000e-001  1.350000e+001
      vertex -2.138048e+000  2.707628e+000  1.350000e+001
    endloop
  endfacet
  facet normal  0.000000e+000  0.000000e+000  1.000000e+000
    outer loop
      vertex -2.138048e+000  2.707628e+000  1.350000e+001
      vertex -1.385641e+000  8.000000e-001  1.350000e+001
      vertex -5.472322e-001  1.503508e+000  1.350000e+001
    endloop
  endfacet
  facet normal  0.000000e+000  -0.000000e+000  1.000000e+000
    outer loop
      vertex -2.138048e+000  2.707628e+000  1.350000e+001
      vertex -5.472322e-001  1.503508e+000  1.350000e+001
      vertex  2.138048e+000  2.707628e+000  1.350000e+001
    endloop
  endfacet
  facet normal  0.000000e+000  0.000000e+000  9.999999e-001
    outer loop
      vertex  2.138048e+000  2.707628e+000  1.350000e+001
      vertex -5.472322e-001  1.503508e+000  1.350000e+001
      vertex  5.472322e-001  1.503508e+000  1.350000e+001
    endloop
  endfacet
  facet normal  -0.000000e+000  0.000000e+000  1.000000e+000
    outer loop
      vertex  2.138048e+000  2.707628e+000  1.350000e+001
      vertex  5.472322e-001  1.503508e+000  1.350000e+001
      vertex  3.355965e+000  8.000000e-001  1.350000e+001
    endloop
  endfacet
  facet normal  0.000000e+000  0.000000e+000  1.000000e+000
    outer loop
      vertex  3.355965e+000  8.000000e-001  1.350000e+001
      vertex  5.472322e-001  1.503508e+000  1.350000e+001
      vertex  1.385641e+000  8.000000e-001  1.350000e+001
    endloop
  endfacet
  facet normal  0.000000e+000  9.999999e-001  0.000000e+000
    outer loop
      vertex  1.385641e+000  8.000000e-001  1.350000e+001
      vertex  1.385641e+000  8.000000e-001  1.500000e+001
      vertex  3.355965e+000  8.000000e-001  1.350000e+001
    endloop
  endfacet
  facet normal  0.000000e+000  9.999999e-001  -0.000000e+000
    outer loop
      vertex  3.355965e+000  8.000000e-001  1.350000e+001
      vertex  1.385641e+000  8.000000e-001  1.500000e+001
      vertex  3.355965e+000  8.000000e-001  1.500000e+001
    endloop
  endfacet
  facet normal  0.000000e+000  9.999999e-001  0.000000e+000
    outer loop
      vertex -3.355965e+000  8.000000e-001  1.350000e+001
      vertex -3.355965e+000  8.000000e-001  1.500000e+001
      vertex -1.385641e+000  8.000000e-001  1.350000e+001
    endloop
  endfacet
  facet normal  0.000000e+000  9.999999e-001  -0.000000e+000
    outer loop
      vertex -1.385641e+000  8.000000e-001  1.350000e+001
      vertex -3.355965e+000  8.000000e-001  1.500000e+001
      vertex -1.385641e+000  8.000000e-001  1.500000e+001
    endloop
  endfacet
  facet normal  0.000000e+000  1.000000e+000  -0.000000e+000
    outer loop
      vertex -1.161895e+000 -1.100000e+000  1.500000e+000
      vertex -1.161895e+000 -1.100000e+000  0.000000e+000
      vertex -3.500000e+000 -1.100000e+000  1.500000e+000
    endloop
  endfacet
  facet normal  0.000000e+000  1.000000e+000  0.000000e+000
    outer loop
      vertex -3.500000e+000 -1.100000e+000  1.500000e+000
      vertex -1.161895e+000 -1.100000e+000  0.000000e+000
      vertex -3.500000e+000 -1.100000e+000  0.000000e+000
    endloop
  endfacet
  facet normal  0.000000e+000  1.000000e+000  -0.000000e+000
    outer loop
      vertex  3.500000e+000 -1.100000e+000  1.500000e+000
      vertex  3.500000e+000 -1.100000e+000  0.000000e+000
      vertex  1.161895e+000 -1.100000e+000  1.500000e+000
    endloop
  endfacet
  facet normal  0.000000e+000  1.000000e+000  0.000000e+000
    outer loop
      vertex  1.161895e+000 -1.100000e+000  1.500000e+000
      vertex  3.500000e+000 -1.100000e+000  0.000000e+000
      vertex  1.161895e+000 -1.100000e+000  0.000000e+000
    endloop
  endfacet
  facet normal  0.000000e+000  0.000000e+000 -1.000000e+000
    outer loop
      vertex -1.161895e+000 -1.100000e+000  1.500000e+000
      vertex -3.500000e+000 -1.100000e+000  1.500000e+000
      vertex -1.600000e+000  1.959370e-016  1.500000e+000
    endloop
  endfacet
  facet normal  -0.000000e+000  0.000000e+000 -1.000000e+000
    outer loop
      vertex -1.600000e+000  1.959370e-016  1.500000e+000
      vertex -3.500000e+000 -1.100000e+000  1.500000e+000
      vertex -3.500000e+000  1.100000e+000  1.500000e+000
    endloop
  endfacet
  facet normal  0.000000e+000  0.000000e+000 -1.000000e+000
    outer loop
      vertex -1.600000e+000  1.959370e-016  1.500000e+000
      vertex -3.500000e+000  1.100000e+000  1.500000e+000
      vertex -1.161895e+000  1.100000e+000  1.500000e+000
    endloop
  endfacet
  facet normal  0.000000e+000  -0.000000e+000 -1.000000e+000
    outer loop
      vertex  1.161895e+000 -1.100000e+000  1.500000e+000
      vertex  1.600000e+000  0.000000e+000  1.500000e+000
      vertex  3.500000e+000 -1.100000e+000  1.500000e+000
    endloop
  endfacet
  facet normal  0.000000e+000  0.000000e+000 -9.999999e-001
    outer loop
      vertex  3.500000e+000 -1.100000e+000  1.500000e+000
      vertex  1.600000e+000  0.000000e+000  1.500000e+000
      vertex  1.161895e+000  1.100000e+000  1.500000e+000
    endloop
  endfacet
  facet normal  0.000000e+000  0.000000e+000 -1.000000e+000
    outer loop
      vertex  3.500000e+000 -1.100000e+000  1.500000e+000
      vertex  1.161895e+000  1.100000e+000  1.500000e+000
      vertex  3.500000e+000  1.100000e+000  1.500000e+000
    endloop
  endfacet
  facet normal  0.000000e+000 -1.000000e+000  0.000000e+000
    outer loop
      vertex  1.161895e+000  1.100000e+000  1.500000e+000
      vertex  1.161895e+000  1.100000e+000  0.000000e+000
      vertex  3.500000e+000  1.100000e+000  1.500000e+000
    endloop
  endfacet
  facet normal  0.000000e+000 -1.000000e+000  -0.000000e+000
    outer loop
      vertex  3.500000e+000  1.100000e+000  1.500000e+000
      vertex  1.161895e+000  1.100000e+000  0.000000e+000
      vertex  3.500000e+000  1.100000e+000  0.000000e+000
    endloop
  endfacet
  facet normal  0.000000e+000 -1.000000e+000  0.000000e+000
    outer loop
      vertex -3.500000e+000  1.100000e+000  1.500000e+000
      vertex -3.500000e+000  1.100000e+000  0.000000e+000
      vertex -1.161895e+000  1.100000e+000  1.500000e+000
    endloop
  endfacet
  facet normal  0.000000e+000 -1.000000e+000  -0.000000e+000
    outer loop
      vertex -1.161895e+000  1.100000e+000  1.500000e+000
      vertex -3.500000e+000  1.100000e+000  0.000000e+000
      vertex -1.161895e+000  1.100000e+000  0.000000e+000
    endloop
  endfacet
  facet normal  0.000000e+000  0.000000e+000 -9.999999e-001
    outer loop
      vertex -3.500000e+000  2.500000e+000  0.000000e+000
      vertex -1.161895e+000  1.100000e+000  0.000000e+000
      vertex -3.500000e+000  1.100000e+000  0.000000e+000
    endloop
  endfacet
  facet normal  0.000000e+000  0.000000e+000 -1.000000e+000
    outer loop
      vertex -1.161895e+000  1.100000e+000  0.000000e+000
      vertex -3.500000e+000  2.500000e+000  0.000000e+000
      vertex -4.281865e-001  1.541641e+000  0.000000e+000
    endloop
  endfacet
  facet normal  0.000000e+000  0.000000e+000 -9.999999e-001
    outer loop
      vertex -4.281865e-001  1.541641e+000  0.000000e+000
      vertex -3.500000e+000  2.500000e+000  0.000000e+000
      vertex  3.500000e+000  2.500000e+000  0.000000e+000
    endloop
  endfacet
  facet normal  0.000000e+000  0.000000e+000 -1.000000e+000
    outer loop
      vertex -4.281865e-001  1.541641e+000  0.000000e+000
      vertex  3.500000e+000  2.500000e+000  0.000000e+000
      vertex  4.281865e-001  1.541641e+000  0.000000e+000
    endloop
  endfacet
  facet normal  0.000000e+000  0.000000e+000 -1.000000e+000
    outer loop
      vertex  4.281865e-001  1.541641e+000  0.000000e+000
      vertex  3.500000e+000  2.500000e+000  0.000000e+000
      vertex  3.500000e+000  1.100000e+000  0.000000e+000
    endloop
  endfacet
  facet normal  0.000000e+000  0.000000e+000 -1.000000e+000
    outer loop
      vertex  4.281865e-001  1.541641e+000  0.000000e+000
      vertex  3.500000e+000  1.100000e+000  0.000000e+000
      vertex  1.161895e+000  1.100000e+000  0.000000e+000
    endloop
  endfacet
  facet normal  0.000000e+000  0.000000e+000 -9.999999e-001
    outer loop
      vertex  2.500000e+000  3.500000e+000  0.000000e+000
      vertex  3.207107e+000  3.207107e+000  0.000000e+000
      vertex -2.500000e+000  3.500000e+000  0.000000e+000
    endloop
  endfacet
  facet normal  0.000000e+000  -0.000000e+000 -1.000000e+000
    outer loop
      vertex -2.500000e+000  3.500000e+000  0.000000e+000
      vertex  3.207107e+000  3.207107e+000  0.000000e+000
      vertex -3.207107e+000  3.207107e+000  0.000000e+000
    endloop
  endfacet
  facet normal  0.000000e+000  0.000000e+000 -9.999999e-001
    outer loop
      vertex  3.207107e+000  3.207107e+000  0.000000e+000
      vertex  3.500000e+000  2.500000e+000  0.000000e+000
      vertex -3.207107e+000  3.207107e+000  0.000000e+000
    endloop
  endfacet
  facet normal  0.000000e+000  -0.000000e+000 -1.000000e+000
    outer loop
      vertex -3.207107e+000  3.207107e+000  0.000000e+000
      vertex  3.500000e+000  2.500000e+000  0.000000e+000
      vertex -3.500000e+000  2.500000e+000  0.000000e+000
    endloop
  endfacet
  facet normal  0.000000e+000  0.000000e+000 -9.999999e-001
    outer loop
      vertex -3.500000e+000 -2.500000e+000  0.000000e+000
      vertex -3.500000e+000 -1.100000e+000  0.000000e+000
      vertex -1.161895e+000 -1.100000e+000  0.000000e+000
    endloop
  endfacet
  facet normal  0.000000e+000  -0.000000e+000 -1.000000e+000
    outer loop
      vertex -3.500000e+000 -2.500000e+000  0.000000e+000
      vertex -1.161895e+000 -1.100000e+000  0.000000e+000
      vertex -4.281865e-001 -1.541641e+000  0.000000e+000
    endloop
  endfacet
  facet normal  0.000000e+000  -0.000000e+000 -1.000000e+000
    outer loop
      vertex -3.500000e+000 -2.500000e+000  0.000000e+000
      vertex -4.281865e-001 -1.541641e+000  0.000000e+000
      vertex  4.281865e-001 -1.541641e+000  0.000000e+000
    endloop
  endfacet
  facet normal  0.000000e+000  -0.000000e+000 -9.999999e-001
    outer loop
      vertex -3.500000e+000 -2.500000e+000  0.000000e+000
      vertex  4.281865e-001 -1.541641e+000  0.000000e+000
      vertex  3.500000e+000 -2.500000e+000  0.000000e+000
    endloop
  endfacet
  facet normal  -0.000000e+000  0.000000e+000 -1.000000e+000
    outer loop
      vertex -3.500000e+000 -2.500000e+000  0.000000e+000
      vertex  3.500000e+000 -2.500000e+000  0.000000e+000
      vertex  3.207107e+000 -3.207107e+000  0.000000e+000
    endloop
  endfacet
  facet normal  0.000000e+000  0.000000e+000 -1.000000e+000
    outer loop
      vertex -3.500000e+000 -2.500000e+000  0.000000e+000
      vertex  3.207107e+000 -3.207107e+000  0.000000e+000
      vertex -3.207107e+000 -3.207107e+000  0.000000e+000
    endloop
  endfacet
  facet normal  0.000000e+000  -0.000000e+000 -1.000000e+000
    outer loop
      vertex  4.281865e-001 -1.541641e+000  0.000000e+000
      vertex  1.161895e+000 -1.100000e+000  0.000000e+000
      vertex  3.500000e+000 -2.500000e+000  0.000000e+000
    endloop
  endfacet
  facet normal  0.000000e+000  0.000000e+000 -9.999999e-001
    outer loop
      vertex  3.500000e+000 -2.500000e+000  0.000000e+000
      vertex  1.161895e+000 -1.100000e+000  0.000000e+000
      vertex  3.500000e+000 -1.100000e+000  0.000000e+000
    endloop
  endfacet
  facet normal  0.000000e+000  0.000000e+000 -9.999999e-001
    outer loop
      vertex -2.500000e+000 -3.500000e+000  0.000000e+000
      vertex -3.207107e+000 -3.207107e+000  0.000000e+000
      vertex  2.500000e+000 -3.500000e+000  0.000000e+000
    endloop
  endfacet
  facet normal  0.000000e+000  0.000000e+000 -1.000000e+000
    outer loop
      vertex  2.500000e+000 -3.500000e+000  0.000000e+000
      vertex -3.207107e+000 -3.207107e+000  0.000000e+000
      vertex  3.207107e+000 -3.207107e+000  0.000000e+000
    endloop
  endfacet
  facet normal  0.000000e+000  0.000000e+000  9.999999e-001
    outer loop
      vertex -2.500000e+000  3.500000e+000  2.500000e+000
      vertex -3.207107e+000  3.207107e+000  2.500000e+000
      vertex -1.066109e+000  3.281145e+000  2.500000e+000
    endloop
  endfacet
  facet normal  0.000000e+000  0.000000e+000  9.999999e-001
    outer loop
      vertex  2.500000e+000 -3.500000e+000  2.500000e+000
      vertex  3.207107e+000 -3.207107e+000  2.500000e+000
      vertex  1.066109e+000 -3.281145e+000  2.500000e+000
    endloop
  endfacet
  facet normal  0.000000e+000  0.000000e+000  1.000000e+000
    outer loop
      vertex -3.500000e+000  2.500000e+000  2.500000e+000
      vertex -3.500000e+000 -2.500000e+000  2.500000e+000
      vertex -3.450000e+000 -1.109619e-015  2.500000e+000
    endloop
  endfacet
  facet normal  0.000000e+000  -0.000000e+000  1.000000e+000
    outer loop
      vertex -3.500000e+000  2.500000e+000  2.500000e+000
      vertex -3.450000e+000 -1.109619e-015  2.500000e+000
      vertex -2.791109e+000  2.027859e+000  2.500000e+000
    endloop
  endfacet
  facet normal  0.000000e+000  -0.000000e+000  9.999999e-001
    outer loop
      vertex -3.500000e+000  2.500000e+000  2.500000e+000
      vertex -2.791109e+000  2.027859e+000  2.500000e+000
      vertex -1.066109e+000  3.281145e+000  2.500000e+000
    endloop
  endfacet
  facet normal  0.000000e+000  0.000000e+000  1.000000e+000
    outer loop
      vertex -3.500000e+000  2.500000e+000  2.500000e+000
      vertex -1.066109e+000  3.281145e+000  2.500000e+000
      vertex -3.207107e+000  3.207107e+000  2.500000e+000
    endloop
  endfacet
  facet normal  0.000000e+000  0.000000e+000  1.000000e+000
    outer loop
      vertex  3.500000e+000  2.500000e+000  2.500000e+000
      vertex  3.207107e+000  3.207107e+000  2.500000e+000
      vertex  1.066109e+000  3.281145e+000  2.500000e+000
    endloop
  endfacet
  facet normal  0.000000e+000  0.000000e+000  1.000000e+000
    outer loop
      vertex  3.500000e+000  2.500000e+000  2.500000e+000
      vertex  1.066109e+000  3.281145e+000  2.500000e+000
      vertex  2.791109e+000  2.027859e+000  2.500000e+000
    endloop
  endfacet
  facet normal  -0.000000e+000  0.000000e+000  1.000000e+000
    outer loop
      vertex  3.500000e+000  2.500000e+000  2.500000e+000
      vertex  2.791109e+000  2.027859e+000  2.500000e+000
      vertex  3.450000e+000  0.000000e+000  2.500000e+000
    endloop
  endfacet
  facet normal  -0.000000e+000  0.000000e+000  1.000000e+000
    outer loop
      vertex  3.500000e+000  2.500000e+000  2.500000e+000
      vertex  3.450000e+000  0.000000e+000  2.500000e+000
      vertex  3.500000e+000 -2.500000e+000  2.500000e+000
    endloop
  endfacet
  facet normal  0.000000e+000  0.000000e+000  1.000000e+000
    outer loop
      vertex  2.500000e+000 -3.500000e+000  2.500000e+000
      vertex  1.066109e+000 -3.281145e+000  2.500000e+000
      vertex -2.500000e+000 -3.500000e+000  2.500000e+000
    endloop
  endfacet
  facet normal  0.000000e+000  0.000000e+000  1.000000e+000
    outer loop
      vertex -2.500000e+000 -3.500000e+000  2.500000e+000
      vertex  1.066109e+000 -3.281145e+000  2.500000e+000
      vertex -1.066109e+000 -3.281145e+000  2.500000e+000
    endloop
  endfacet
  facet normal  0.000000e+000  0.000000e+000  9.999999e-001
    outer loop
      vertex -2.500000e+000 -3.500000e+000  2.500000e+000
      vertex -1.066109e+000 -3.281145e+000  2.500000e+000
      vertex -3.207107e+000 -3.207107e+000  2.500000e+000
    endloop
  endfacet
  facet normal  0.000000e+000  -0.000000e+000  1.000000e+000
    outer loop
      vertex -2.500000e+000  3.500000e+000  2.500000e+000
      vertex -1.066109e+000  3.281145e+000  2.500000e+000
      vertex  2.500000e+000  3.500000e+000  2.500000e+000
    endloop
  endfacet
  facet normal  0.000000e+000  0.000000e+000  1.000000e+000
    outer loop
      vertex  2.500000e+000  3.500000e+000  2.500000e+000
      vertex -1.066109e+000  3.281145e+000  2.500000e+000
      vertex  1.066109e+000  3.281145e+000  2.500000e+000
    endloop
  endfacet
  facet normal  -0.000000e+000  0.000000e+000  9.999999e-001
    outer loop
      vertex  2.500000e+000  3.500000e+000  2.500000e+000
      vertex  1.066109e+000  3.281145e+000  2.500000e+000
      vertex  3.207107e+000  3.207107e+000  2.500000e+000
    endloop
  endfacet
  facet normal  0.000000e+000  0.000000e+000  1.000000e+000
    outer loop
      vertex -3.207107e+000 -3.207107e+000  2.500000e+000
      vertex -1.066109e+000 -3.281145e+000  2.500000e+000
      vertex -3.500000e+000 -2.500000e+000  2.500000e+000
    endloop
  endfacet
  facet normal  -0.000000e+000  0.000000e+000  1.000000e+000
    outer loop
      vertex -3.500000e+000 -2.500000e+000  2.500000e+000
      vertex -1.066109e+000 -3.281145e+000  2.500000e+000
      vertex -2.791109e+000 -2.027859e+000  2.500000e+000
    endloop
  endfacet
  facet normal  0.000000e+000  0.000000e+000  1.000000e+000
    outer loop
      vertex -3.500000e+000 -2.500000e+000  2.500000e+000
      vertex -2.791109e+000 -2.027859e+000  2.500000e+000
      vertex -3.450000e+000 -1.109619e-015  2.500000e+000
    endloop
  endfacet
  facet normal  0.000000e+000  0.000000e+000  1.000000e+000
    outer loop
      vertex  1.066109e+000 -3.281145e+000  2.500000e+000
      vertex  3.207107e+000 -3.207107e+000  2.500000e+000
      vertex  2.791109e+000 -2.027859e+000  2.500000e+000
    endloop
  endfacet
  facet normal  0.000000e+000  0.000000e+000  1.000000e+000
    outer loop
      vertex  2.791109e+000 -2.027859e+000  2.500000e+000
      vertex  3.207107e+000 -3.207107e+000  2.500000e+000
      vertex  3.500000e+000 -2.500000e+000  2.500000e+000
    endloop
  endfacet
  facet normal  0.000000e+000  0.000000e+000  1.000000e+000
    outer loop
      vertex  2.791109e+000 -2.027859e+000  2.500000e+000
      vertex  3.500000e+000 -2.500000e+000  2.500000e+000
      vertex  3.450000e+000  0.000000e+000  2.500000e+000
    endloop
  endfacet
  facet normal  1.000000e+000  0.000000e+000  0.000000e+000
    outer loop
      vertex  3.500000e+000 -2.500000e+000  0.000000e+000
      vertex  3.500000e+000 -1.100000e+000  0.000000e+000
      vertex  3.500000e+000 -2.500000e+000  2.500000e+000
    endloop
  endfacet
  facet normal  1.000000e+000  0.000000e+000  0.000000e+000
    outer loop
      vertex  3.500000e+000 -2.500000e+000  2.500000e+000
      vertex  3.500000e+000 -1.100000e+000  0.000000e+000
      vertex  3.500000e+000 -1.100000e+000  1.500000e+000
    endloop
  endfacet
  facet normal  1.000000e+000  0.000000e+000  -0.000000e+000
    outer loop
      vertex  3.500000e+000 -2.500000e+000  2.500000e+000
      vertex  3.500000e+000 -1.100000e+000  1.500000e+000
      vertex  3.500000e+000  2.500000e+000  2.500000e+000
    endloop
  endfacet
  facet normal  1.000000e+000  0.000000e+000  0.000000e+000
    outer loop
      vertex  3.500000e+000  2.500000e+000  2.500000e+000
      vertex  3.500000e+000 -1.100000e+000  1.500000e+000
      vertex  3.500000e+000  1.100000e+000  1.500000e+000
    endloop
  endfacet
  facet normal  1.000000e+000  -0.000000e+000  0.000000e+000
    outer loop
      vertex  3.500000e+000  2.500000e+000  2.500000e+000
      vertex  3.500000e+000  1.100000e+000  1.500000e+000
      vertex  3.500000e+000  2.500000e+000  0.000000e+000
    endloop
  endfacet
  facet normal  1.000000e+000  0.000000e+000  0.000000e+000
    outer loop
      vertex  3.500000e+000  2.500000e+000  0.000000e+000
      vertex  3.500000e+000  1.100000e+000  1.500000e+000
      vertex  3.500000e+000  1.100000e+000  0.000000e+000
    endloop
  endfacet
  facet normal  0.000000e+000 -1.000000e+000  0.000000e+000
    outer loop
      vertex  2.500000e+000 -3.500000e+000  2.500000e+000
      vertex -2.500000e+000 -3.500000e+000  2.500000e+000
      vertex  2.500000e+000 -3.500000e+000  0.000000e+000
    endloop
  endfacet
  facet normal  0.000000e+000 -1.000000e+000  0.000000e+000
    outer loop
      vertex  2.500000e+000 -3.500000e+000  0.000000e+000
      vertex -2.500000e+000 -3.500000e+000  2.500000e+000
      vertex -2.500000e+000 -3.500000e+000  0.000000e+000
    endloop
  endfacet
  facet normal  9.238795e-001 -3.826833e-001  0.000000e+000
    outer loop
      vertex  3.500000e+000 -2.500000e+000  0.000000e+000
      vertex  3.500000e+000 -2.500000e+000  2.500000e+000
      vertex  3.207107e+000 -3.207107e+000  0.000000e+000
    endloop
  endfacet
  facet normal  9.238795e-001 -3.826833e-001  0.000000e+000
    outer loop
      vertex  3.207107e+000 -3.207107e+000  0.000000e+000
      vertex  3.500000e+000 -2.500000e+000  2.500000e+000
      vertex  3.207107e+000 -3.207107e+000  2.500000e+000
    endloop
  endfacet
  facet normal  3.826833e-001 -9.238795e-001  0.000000e+000
    outer loop
      vertex  3.207107e+000 -3.207107e+000  0.000000e+000
      vertex  3.207107e+000 -3.207107e+000  2.500000e+000
      vertex  2.500000e+000 -3.500000e+000  0.000000e+000
    endloop
  endfacet
  facet normal  3.826833e-001 -9.238795e-001  0.000000e+000
    outer loop
      vertex  2.500000e+000 -3.500000e+000  0.000000e+000
      vertex  3.207107e+000 -3.207107e+000  2.500000e+000
      vertex  2.500000e+000 -3.500000e+000  2.500000e+000
    endloop
  endfacet
  facet normal  0.000000e+000  1.000000e+000  0.000000e+000
    outer loop
      vertex -2.500000e+000  3.500000e+000  2.500000e+000
      vertex  2.500000e+000  3.500000e+000  2.500000e+000
      vertex -2.500000e+000  3.500000e+000  0.000000e+000
    endloop
  endfacet
  facet normal  0.000000e+000  1.000000e+000  0.000000e+000
    outer loop
      vertex -2.500000e+000  3.500000e+000  0.000000e+000
      vertex  2.500000e+000  3.500000e+000  2.500000e+000
      vertex  2.500000e+000  3.500000e+000  0.000000e+000
    endloop
  endfacet
  facet normal  3.826833e-001  9.238795e-001  0.000000e+000
    outer loop
      vertex  2.500000e+000  3.500000e+000  0.000000e+000
      vertex  2.500000e+000  3.500000e+000  2.500000e+000
      vertex  3.207107e+000  3.207107e+000  0.000000e+000
    endloop
  endfacet
  facet normal  3.826833e-001  9.238795e-001  -0.000000e+000
    outer loop
      vertex  3.207107e+000  3.207107e+000  0.000000e+000
      vertex  2.500000e+000  3.500000e+000  2.500000e+000
      vertex  3.207107e+000  3.207107e+000  2.500000e+000
    endloop
  endfacet
  facet normal  9.238795e-001  3.826833e-001  0.000000e+000
    outer loop
      vertex  3.207107e+000  3.207107e+000  0.000000e+000
      vertex  3.207107e+000  3.207107e+000  2.500000e+000
      vertex  3.500000e+000  2.500000e+000  0.000000e+000
    endloop
  endfacet
  facet normal  9.238795e-001  3.826833e-001  -0.000000e+000
    outer loop
      vertex  3.500000e+000  2.500000e+000  0.000000e+000
      vertex  3.207107e+000  3.207107e+000  2.500000e+000
      vertex  3.500000e+000  2.500000e+000  2.500000e+000
    endloop
  endfacet
  facet normal -1.000000e+000  0.000000e+000  0.000000e+000
    outer loop
      vertex -3.500000e+000  2.500000e+000  0.000000e+000
      vertex -3.500000e+000  1.100000e+000  0.000000e+000
      vertex -3.500000e+000  2.500000e+000  2.500000e+000
    endloop
  endfacet
  facet normal -1.000000e+000  0.000000e+000  0.000000e+000
    outer loop
      vertex -3.500000e+000  2.500000e+000  2.500000e+000
      vertex -3.500000e+000  1.100000e+000  0.000000e+000
      vertex -3.500000e+000  1.100000e+000  1.500000e+000
    endloop
  endfacet
  facet normal -1.000000e+000  0.000000e+000  0.000000e+000
    outer loop
      vertex -3.500000e+000  2.500000e+000  2.500000e+000
      vertex -3.500000e+000  1.100000e+000  1.500000e+000
      vertex -3.500000e+000 -2.500000e+000  2.500000e+000
    endloop
  endfacet
  facet normal -1.000000e+000  0.000000e+000  0.000000e+000
    outer loop
      vertex -3.500000e+000 -2.500000e+000  2.500000e+000
      vertex -3.500000e+000  1.100000e+000  1.500000e+000
      vertex -3.500000e+000 -1.100000e+000  1.500000e+000
    endloop
  endfacet
  facet normal -1.000000e+000  -0.000000e+000  0.000000e+000
    outer loop
      vertex -3.500000e+000 -2.500000e+000  2.500000e+000
      vertex -3.500000e+000 -1.100000e+000  1.500000e+000
      vertex -3.500000e+000 -2.500000e+000  0.000000e+000
    endloop
  endfacet
  facet normal -1.000000e+000  0.000000e+000  0.000000e+000
    outer loop
      vertex -3.500000e+000 -2.500000e+000  0.000000e+000
      vertex -3.500000e+000 -1.100000e+000  1.500000e+000
      vertex -3.500000e+000 -1.100000e+000  0.000000e+000
    endloop
  endfacet
  facet normal -9.238795e-001  3.826833e-001  0.000000e+000
    outer loop
      vertex -3.500000e+000  2.500000e+000  0.000000e+000
      vertex -3.500000e+000  2.500000e+000  2.500000e+000
      vertex -3.207107e+000  3.207107e+000  0.000000e+000
    endloop
  endfacet
  facet normal -9.238795e-001  3.826833e-001  0.000000e+000
    outer loop
      vertex -3.207107e+000  3.207107e+000  0.000000e+000
      vertex -3.500000e+000  2.500000e+000  2.500000e+000
      vertex -3.207107e+000  3.207107e+000  2.500000e+000
    endloop
  endfacet
  facet normal -3.826833e-001  9.238795e-001  0.000000e+000
    outer loop
      vertex -3.207107e+000  3.207107e+000  0.000000e+000
      vertex -3.207107e+000  3.207107e+000  2.500000e+000
      vertex -2.500000e+000  3.500000e+000  0.000000e+000
    endloop
  endfacet
  facet normal -3.826833e-001  9.238795e-001  0.000000e+000
    outer loop
      vertex -2.500000e+000  3.500000e+000  0.000000e+000
      vertex -3.207107e+000  3.207107e+000  2.500000e+000
      vertex -2.500000e+000  3.500000e+000  2.500000e+000
    endloop
  endfacet
  facet normal -3.826833e-001 -9.238795e-001  -0.000000e+000
    outer loop
      vertex -2.500000e+000 -3.500000e+000  0.000000e+000
      vertex -2.500000e+000 -3.500000e+000  2.500000e+000
      vertex -3.207107e+000 -3.207107e+000  0.000000e+000
    endloop
  endfacet
  facet normal -3.826833e-001 -9.238795e-001  0.000000e+000
    outer loop
      vertex -3.207107e+000 -3.207107e+000  0.000000e+000
      vertex -2.500000e+000 -3.500000e+000  2.500000e+000
      vertex -3.207107e+000 -3.207107e+000  2.500000e+000
    endloop
  endfacet
  facet normal -9.238795e-001 -3.826833e-001  -0.000000e+000
    outer loop
      vertex -3.207107e+000 -3.207107e+000  0.000000e+000
      vertex -3.207107e+000 -3.207107e+000  2.500000e+000
      vertex -3.500000e+000 -2.500000e+000  0.000000e+000
    endloop
  endfacet
  facet normal -9.238795e-001 -3.826833e-001  0.000000e+000
    outer loop
      vertex -3.500000e+000 -2.500000e+000  0.000000e+000
      vertex -3.207107e+000 -3.207107e+000  2.500000e+000
      vertex -3.500000e+000 -2.500000e+000  2.500000e+000
    endloop
  endfacet
  facet normal  5.877182e-001 -8.089248e-001 -1.509694e-002
    outer loop
      vertex  1.066109e+000 -3.281145e+000  2.500000e+000
      vertex  2.791109e+000 -2.027859e+000  2.500000e+000
      vertex  2.138048e+000 -2.707628e+000  1.350000e+001
    endloop
  endfacet
  facet normal  3.279604e-001 -9.445333e-001  1.728657e-002
    outer loop
      vertex  2.138048e+000 -2.707628e+000  1.350000e+001
      vertex -8.557784e-016 -3.450000e+000  1.350000e+001
      vertex  1.066109e+000 -3.281145e+000  2.500000e+000
    endloop
  endfacet
  facet normal  0.000000e+000 -9.998822e-001 -1.534864e-002
    outer loop
      vertex  1.066109e+000 -3.281145e+000  2.500000e+000
      vertex -8.557784e-016 -3.450000e+000  1.350000e+001
      vertex -1.066109e+000 -3.281145e+000  2.500000e+000
    endloop
  endfacet
  facet normal -3.279604e-001 -9.445333e-001  1.728657e-002
    outer loop
      vertex -1.066109e+000 -3.281145e+000  2.500000e+000
      vertex -8.557784e-016 -3.450000e+000  1.350000e+001
      vertex -2.138048e+000 -2.707628e+000  1.350000e+001
    endloop
  endfacet
  facet normal -5.877182e-001 -8.089248e-001 -1.509694e-002
    outer loop
      vertex -1.066109e+000 -3.281145e+000  2.500000e+000
      vertex -2.138048e+000 -2.707628e+000  1.350000e+001
      vertex -2.791109e+000 -2.027859e+000  2.500000e+000
    endloop
  endfacet
  facet normal -9.931625e-001 -1.167402e-001  -0.000000e+000
    outer loop
      vertex -3.355965e+000 -8.000000e-001  1.350000e+001
      vertex -3.355965e+000 -8.000000e-001  1.500000e+001
      vertex -3.450000e+000 -1.109619e-015  1.500000e+001
    endloop
  endfacet
  facet normal -9.931625e-001 -1.167402e-001  -0.000000e+000
    outer loop
      vertex -3.355965e+000 -8.000000e-001  1.350000e+001
      vertex -3.450000e+000 -1.109619e-015  1.500000e+001
      vertex -3.450000e+000 -1.109619e-015  2.500000e+000
    endloop
  endfacet
  facet normal -9.509587e-001 -3.089852e-001 -1.434224e-002
    outer loop
      vertex -3.355965e+000 -8.000000e-001  1.350000e+001
      vertex -3.450000e+000 -1.109619e-015  2.500000e+000
      vertex -2.791109e+000 -2.027859e+000  2.500000e+000
    endloop
  endfacet
  facet normal -8.427470e-001 -5.380481e-001  1.678331e-002
    outer loop
      vertex -3.355965e+000 -8.000000e-001  1.350000e+001
      vertex -2.791109e+000 -2.027859e+000  2.500000e+000
      vertex -2.138048e+000 -2.707628e+000  1.350000e+001
    endloop
  endfacet
  facet normal  8.427470e-001 -5.380481e-001  1.678331e-002
    outer loop
      vertex  3.355965e+000 -8.000000e-001  1.350000e+001
      vertex  2.138048e+000 -2.707628e+000  1.350000e+001
      vertex  2.791109e+000 -2.027859e+000  2.500000e+000
    endloop
  endfacet
  facet normal  9.509587e-001 -3.089852e-001 -1.434224e-002
    outer loop
      vertex  3.355965e+000 -8.000000e-001  1.350000e+001
      vertex  2.791109e+000 -2.027859e+000  2.500000e+000
      vertex  3.450000e+000  0.000000e+000  2.500000e+000
    endloop
  endfacet
  facet normal  9.931625e-001 -1.167402e-001  0.000000e+000
    outer loop
      vertex  3.355965e+000 -8.000000e-001  1.350000e+001
      vertex  3.450000e+000  0.000000e+000  2.500000e+000
      vertex  3.450000e+000  0.000000e+000  1.500000e+001
    endloop
  endfacet
  facet normal  9.931625e-001 -1.167402e-001  0.000000e+000
    outer loop
      vertex  3.355965e+000 -8.000000e-001  1.350000e+001
      vertex  3.450000e+000  0.000000e+000  1.500000e+001
      vertex  3.355965e+000 -8.000000e-001  1.500000e+001
    endloop
  endfacet
  facet normal -5.877182e-001  8.089248e-001 -1.509694e-002
    outer loop
      vertex -1.066109e+000  3.281145e+000  2.500000e+000
      vertex -2.791109e+000  2.027859e+000  2.500000e+000
      vertex -2.138048e+000  2.707628e+000  1.350000e+001
    endloop
  endfacet
  facet normal -3.279604e-001  9.445333e-001  1.728657e-002
    outer loop
      vertex -2.138048e+000  2.707628e+000  1.350000e+001
      vertex  1.278268e-015  3.450000e+000  1.350000e+001
      vertex -1.066109e+000  3.281145e+000  2.500000e+000
    endloop
  endfacet
  facet normal  0.000000e+000  9.998822e-001 -1.534864e-002
    outer loop
      vertex  1.066109e+000  3.281145e+000  2.500000e+000
      vertex -1.066109e+000  3.281145e+000  2.500000e+000
      vertex  1.278268e-015  3.450000e+000  1.350000e+001
    endloop
  endfacet
  facet normal  3.279604e-001  9.445333e-001  1.728657e-002
    outer loop
      vertex  1.278268e-015  3.450000e+000  1.350000e+001
      vertex  2.138048e+000  2.707628e+000  1.350000e+001
      vertex  1.066109e+000  3.281145e+000  2.500000e+000
    endloop
  endfacet
  facet normal  5.877182e-001  8.089248e-001 -1.509694e-002
    outer loop
      vertex  1.066109e+000  3.281145e+000  2.500000e+000
      vertex  2.138048e+000  2.707628e+000  1.350000e+001
      vertex  2.791109e+000  2.027859e+000  2.500000e+000
    endloop
  endfacet
  facet normal  9.931625e-001  1.167402e-001  0.000000e+000
    outer loop
      vertex  3.355965e+000  8.000000e-001  1.350000e+001
      vertex  3.355965e+000  8.000000e-001  1.500000e+001
      vertex  3.450000e+000  0.000000e+000  1.500000e+001
    endloop
  endfacet
  facet normal  9.931625e-001  1.167402e-001  0.000000e+000
    outer loop
      vertex  3.355965e+000  8.000000e-001  1.350000e+001
      vertex  3.450000e+000  0.000000e+000  1.500000e+001
      vertex  3.450000e+000  0.000000e+000  2.500000e+000
    endloop
  endfacet
  facet normal  9.509587e-001  3.089852e-001 -1.434224e-002
    outer loop
      vertex  3.355965e+000  8.000000e-001  1.350000e+001
      vertex  3.450000e+000  0.000000e+000  2.500000e+000
      vertex  2.791109e+000  2.027859e+000  2.500000e+000
    endloop
  endfacet
  facet normal  8.427470e-001  5.380481e-001  1.678331e-002
    outer loop
      vertex  3.355965e+000  8.000000e-001  1.350000e+001
      vertex  2.791109e+000  2.027859e+000  2.500000e+000
      vertex  2.138048e+000  2.707628e+000  1.350000e+001
    endloop
  endfacet
  facet normal -8.427470e-001  5.380481e-001  1.678331e-002
    outer loop
      vertex -3.355965e+000  8.000000e-001  1.350000e+001
      vertex -2.138048e+000  2.707628e+000  1.350000e+001
      vertex -2.791109e+000  2.027859e+000  2.500000e+000
    endloop
  endfacet
  facet normal -9.509587e-001  3.089852e-001 -1.434224e-002
    outer loop
      vertex -3.355965e+000  8.000000e-001  1.350000e+001
      vertex -2.791109e+000  2.027859e+000  2.500000e+000
      vertex -3.450000e+000 -1.109619e-015  2.500000e+000
    endloop
  endfacet
  facet normal -9.931625e-001  1.167402e-001  0.000000e+000
    outer loop
      vertex -3.355965e+000  8.000000e-001  1.350000e+001
      vertex -3.450000e+000 -1.109619e-015  2.500000e+000
      vertex -3.450000e+000 -1.109619e-015  1.500000e+001
    endloop
  endfacet
  facet normal -9.931625e-001  1.167402e-001  0.000000e+000
    outer loop
      vertex -3.355965e+000  8.000000e-001  1.350000e+001
      vertex -3.450000e+000 -1.109619e-015  1.500000e+001
      vertex -3.355965e+000  8.000000e-001  1.500000e+001
    endloop
  endfacet
endsolid CATIA STL
