solid ascii
  facet normal 9.700313e-001 -2.429802e-001 -3.997529e-015
    outer loop
      vertex   1.334932e+000 -4.049471e-001 0.000000e+000
      vertex   1.368195e+000 -2.721510e-001 0.000000e+000
      vertex   1.368195e+000 -2.721510e-001 4.500000e-002
    endloop
  endfacet
  facet normal 9.700313e-001 -2.429802e-001 1.468227e-017
    outer loop
      vertex   1.334932e+000 -4.049471e-001 4.500000e-002
      vertex   1.334932e+000 -4.049471e-001 0.000000e+000
      vertex   1.368195e+000 -2.721510e-001 4.500000e-002
    endloop
  endfacet
  facet normal 9.415441e-001 -3.368899e-001 3.142557e-015
    outer loop
      vertex   1.334932e+000 -4.049471e-001 4.500000e-002
      vertex   1.288812e+000 -5.338434e-001 4.500000e-002
      vertex   1.334932e+000 -4.049471e-001 0.000000e+000
    endloop
  endfacet
  facet normal 9.415441e-001 -3.368899e-001 -7.717706e-016
    outer loop
      vertex   1.334932e+000 -4.049471e-001 0.000000e+000
      vertex   1.288812e+000 -5.338434e-001 4.500000e-002
      vertex   1.288812e+000 -5.338434e-001 0.000000e+000
    endloop
  endfacet
  facet normal 9.039893e-001 -4.275551e-001 1.281358e-015
    outer loop
      vertex   1.288812e+000 -5.338434e-001 0.000000e+000
      vertex   1.288812e+000 -5.338434e-001 4.500000e-002
      vertex   1.230280e+000 -6.575984e-001 4.500000e-002
    endloop
  endfacet
  facet normal 8.577286e-001 -5.141027e-001 -6.727349e-016
    outer loop
      vertex   1.230280e+000 -6.575984e-001 0.000000e+000
      vertex   1.230280e+000 -6.575984e-001 4.500000e-002
      vertex   1.159900e+000 -7.750205e-001 4.500000e-002
    endloop
  endfacet
  facet normal 8.032075e-001 -5.956993e-001 0.000000e+000
    outer loop
      vertex   1.159900e+000 -7.750205e-001 0.000000e+000
      vertex   1.159900e+000 -7.750205e-001 4.500000e-002
      vertex   1.078350e+000 -8.849786e-001 4.500000e-002
    endloop
  endfacet
  facet normal 7.409511e-001 -6.715590e-001 3.148423e-015
    outer loop
      vertex   1.078350e+000 -8.849786e-001 0.000000e+000
      vertex   1.078350e+000 -8.849786e-001 4.500000e-002
      vertex   9.864140e-001 -9.864140e-001 0.000000e+000
    endloop
  endfacet
  facet normal 8.032075e-001 -5.956993e-001 3.840903e-015
    outer loop
      vertex   1.078350e+000 -8.849786e-001 0.000000e+000
      vertex   1.159900e+000 -7.750205e-001 0.000000e+000
      vertex   1.078350e+000 -8.849786e-001 4.500000e-002
    endloop
  endfacet
  facet normal 9.891765e-001 -1.467305e-001 -4.988298e-016
    outer loop
      vertex   1.368195e+000 -2.721510e-001 4.500000e-002
      vertex   1.388283e+000 -1.367339e-001 0.000000e+000
      vertex   1.388283e+000 -1.367339e-001 4.500000e-002
    endloop
  endfacet
  facet normal 9.891765e-001 -1.467305e-001 -5.548643e-015
    outer loop
      vertex   1.368195e+000 -2.721510e-001 4.500000e-002
      vertex   1.368195e+000 -2.721510e-001 0.000000e+000
      vertex   1.388283e+000 -1.367339e-001 0.000000e+000
    endloop
  endfacet
  facet normal 7.409511e-001 -6.715590e-001 -5.392181e-016
    outer loop
      vertex   1.078350e+000 -8.849786e-001 4.500000e-002
      vertex   9.864140e-001 -9.864140e-001 4.500000e-002
      vertex   9.864140e-001 -9.864140e-001 0.000000e+000
    endloop
  endfacet
  facet normal 6.715590e-001 -7.409511e-001 5.392181e-016
    outer loop
      vertex   9.864140e-001 -9.864140e-001 0.000000e+000
      vertex   9.864140e-001 -9.864140e-001 4.500000e-002
      vertex   8.849786e-001 -1.078350e+000 4.500000e-002
    endloop
  endfacet
  facet normal 5.956993e-001 -8.032075e-001 -2.210243e-015
    outer loop
      vertex   8.849786e-001 -1.078350e+000 0.000000e+000
      vertex   8.849786e-001 -1.078350e+000 4.500000e-002
      vertex   7.750205e-001 -1.159900e+000 4.500000e-002
    endloop
  endfacet
  facet normal 5.141027e-001 -8.577286e-001 -3.259855e-016
    outer loop
      vertex   7.750205e-001 -1.159900e+000 0.000000e+000
      vertex   7.750205e-001 -1.159900e+000 4.500000e-002
      vertex   6.575984e-001 -1.230280e+000 4.500000e-002
    endloop
  endfacet
  facet normal 4.275551e-001 -9.039893e-001 -3.322355e-015
    outer loop
      vertex   6.575984e-001 -1.230280e+000 0.000000e+000
      vertex   6.575984e-001 -1.230280e+000 4.500000e-002
      vertex   5.338434e-001 -1.288812e+000 4.500000e-002
    endloop
  endfacet
  facet normal 3.368899e-001 -9.415441e-001 -6.007436e-015
    outer loop
      vertex   5.338434e-001 -1.288812e+000 0.000000e+000
      vertex   5.338434e-001 -1.288812e+000 4.500000e-002
      vertex   4.049471e-001 -1.334932e+000 0.000000e+000
    endloop
  endfacet
  facet normal 4.275551e-001 -9.039893e-001 -5.237595e-015
    outer loop
      vertex   5.338434e-001 -1.288812e+000 0.000000e+000
      vertex   6.575984e-001 -1.230280e+000 0.000000e+000
      vertex   5.338434e-001 -1.288812e+000 4.500000e-002
    endloop
  endfacet
  facet normal 3.368899e-001 -9.415441e-001 -7.717706e-016
    outer loop
      vertex   5.338434e-001 -1.288812e+000 4.500000e-002
      vertex   4.049471e-001 -1.334932e+000 4.500000e-002
      vertex   4.049471e-001 -1.334932e+000 0.000000e+000
    endloop
  endfacet
  facet normal 2.429802e-001 -9.700313e-001 -2.817467e-015
    outer loop
      vertex   4.049471e-001 -1.334932e+000 0.000000e+000
      vertex   4.049471e-001 -1.334932e+000 4.500000e-002
      vertex   2.721510e-001 -1.368195e+000 4.500000e-002
    endloop
  endfacet
  facet normal 1.467305e-001 -9.891765e-001 0.000000e+000
    outer loop
      vertex   2.721510e-001 -1.368195e+000 0.000000e+000
      vertex   2.721510e-001 -1.368195e+000 4.500000e-002
      vertex   1.367339e-001 -1.388283e+000 4.500000e-002
    endloop
  endfacet
  facet normal 4.906767e-002 -9.987955e-001 6.712697e-015
    outer loop
      vertex   1.367339e-001 -1.388283e+000 0.000000e+000
      vertex   1.367339e-001 -1.388283e+000 4.500000e-002
      vertex   8.541629e-017 -1.395000e+000 4.500000e-002
    endloop
  endfacet
  facet normal -4.906767e-002 -9.987955e-001 3.725492e-016
    outer loop
      vertex   -2.562489e-016 -1.395000e+000 0.000000e+000
      vertex   8.541629e-017 -1.395000e+000 4.500000e-002
      vertex   -1.367339e-001 -1.388283e+000 4.500000e-002
    endloop
  endfacet
  facet normal -1.467305e-001 -9.891765e-001 -9.263981e-016
    outer loop
      vertex   -1.367339e-001 -1.388283e+000 0.000000e+000
      vertex   -1.367339e-001 -1.388283e+000 4.500000e-002
      vertex   -2.721510e-001 -1.368195e+000 0.000000e+000
    endloop
  endfacet
  facet normal -4.906767e-002 -9.987955e-001 -3.055263e-016
    outer loop
      vertex   -1.367339e-001 -1.388283e+000 0.000000e+000
      vertex   -2.562489e-016 -1.395000e+000 0.000000e+000
      vertex   -1.367339e-001 -1.388283e+000 4.500000e-002
    endloop
  endfacet
  facet normal -1.467305e-001 -9.891765e-001 -5.691166e-015
    outer loop
      vertex   -1.367339e-001 -1.388283e+000 4.500000e-002
      vertex   -2.721510e-001 -1.368195e+000 4.500000e-002
      vertex   -2.721510e-001 -1.368195e+000 0.000000e+000
    endloop
  endfacet
  facet normal -2.429802e-001 -9.700313e-001 -4.233541e-015
    outer loop
      vertex   -2.721510e-001 -1.368195e+000 0.000000e+000
      vertex   -2.721510e-001 -1.368195e+000 4.500000e-002
      vertex   -4.049471e-001 -1.334932e+000 4.500000e-002
    endloop
  endfacet
  facet normal -3.368899e-001 -9.415441e-001 4.463895e-015
    outer loop
      vertex   -4.049471e-001 -1.334932e+000 0.000000e+000
      vertex   -4.049471e-001 -1.334932e+000 4.500000e-002
      vertex   -5.338434e-001 -1.288812e+000 4.500000e-002
    endloop
  endfacet
  facet normal -4.275551e-001 -9.039893e-001 4.507693e-016
    outer loop
      vertex   -5.338434e-001 -1.288812e+000 0.000000e+000
      vertex   -5.338434e-001 -1.288812e+000 4.500000e-002
      vertex   -6.575984e-001 -1.230280e+000 4.500000e-002
    endloop
  endfacet
  facet normal -5.141027e-001 -8.577286e-001 1.997441e-015
    outer loop
      vertex   -6.575984e-001 -1.230280e+000 0.000000e+000
      vertex   -6.575984e-001 -1.230280e+000 4.500000e-002
      vertex   -7.750205e-001 -1.159900e+000 4.500000e-002
    endloop
  endfacet
  facet normal -5.956993e-001 -8.032075e-001 -1.612461e-015
    outer loop
      vertex   -7.750205e-001 -1.159900e+000 0.000000e+000
      vertex   -7.750205e-001 -1.159900e+000 4.500000e-002
      vertex   -8.849786e-001 -1.078350e+000 0.000000e+000
    endloop
  endfacet
  facet normal -5.141027e-001 -8.577286e-001 -2.618797e-015
    outer loop
      vertex   -7.750205e-001 -1.159900e+000 0.000000e+000
      vertex   -6.575984e-001 -1.230280e+000 0.000000e+000
      vertex   -7.750205e-001 -1.159900e+000 4.500000e-002
    endloop
  endfacet
  facet normal -5.956993e-001 -8.032075e-001 -4.628935e-015
    outer loop
      vertex   -7.750205e-001 -1.159900e+000 4.500000e-002
      vertex   -8.849786e-001 -1.078350e+000 4.500000e-002
      vertex   -8.849786e-001 -1.078350e+000 0.000000e+000
    endloop
  endfacet
  facet normal -6.715590e-001 -7.409511e-001 -5.218409e-015
    outer loop
      vertex   -8.849786e-001 -1.078350e+000 0.000000e+000
      vertex   -8.849786e-001 -1.078350e+000 4.500000e-002
      vertex   -9.864140e-001 -9.864140e-001 4.500000e-002
    endloop
  endfacet
  facet normal -7.409511e-001 -6.715590e-001 5.757627e-015
    outer loop
      vertex   -9.864140e-001 -9.864140e-001 0.000000e+000
      vertex   -9.864140e-001 -9.864140e-001 4.500000e-002
      vertex   -1.078350e+000 -8.849786e-001 4.500000e-002
    endloop
  endfacet
  facet normal -8.032075e-001 -5.956993e-001 3.926929e-015
    outer loop
      vertex   -1.078350e+000 -8.849786e-001 0.000000e+000
      vertex   -1.078350e+000 -8.849786e-001 4.500000e-002
      vertex   -1.159900e+000 -7.750205e-001 4.500000e-002
    endloop
  endfacet
  facet normal -8.577286e-001 -5.141027e-001 -3.994882e-015
    outer loop
      vertex   -1.159900e+000 -7.750205e-001 0.000000e+000
      vertex   -1.159900e+000 -7.750205e-001 4.500000e-002
      vertex   -1.230280e+000 -6.575984e-001 4.500000e-002
    endloop
  endfacet
  facet normal -9.039893e-001 -4.275551e-001 -3.322355e-015
    outer loop
      vertex   -1.230280e+000 -6.575984e-001 0.000000e+000
      vertex   -1.230280e+000 -6.575984e-001 4.500000e-002
      vertex   -1.288812e+000 -5.338434e-001 0.000000e+000
    endloop
  endfacet
  facet normal -8.577286e-001 -5.141027e-001 -4.015489e-015
    outer loop
      vertex   -1.230280e+000 -6.575984e-001 0.000000e+000
      vertex   -1.159900e+000 -7.750205e-001 0.000000e+000
      vertex   -1.230280e+000 -6.575984e-001 4.500000e-002
    endloop
  endfacet
  facet normal -9.039893e-001 -4.275551e-001 -2.491766e-015
    outer loop
      vertex   -1.230280e+000 -6.575984e-001 4.500000e-002
      vertex   -1.288812e+000 -5.338434e-001 4.500000e-002
      vertex   -1.288812e+000 -5.338434e-001 0.000000e+000
    endloop
  endfacet
  facet normal -9.415441e-001 -3.368899e-001 -1.963375e-015
    outer loop
      vertex   -1.288812e+000 -5.338434e-001 0.000000e+000
      vertex   -1.288812e+000 -5.338434e-001 4.500000e-002
      vertex   -1.334932e+000 -4.049471e-001 4.500000e-002
    endloop
  endfacet
  facet normal -9.700313e-001 -2.429802e-001 -2.832149e-015
    outer loop
      vertex   -1.334932e+000 -4.049471e-001 0.000000e+000
      vertex   -1.334932e+000 -4.049471e-001 4.500000e-002
      vertex   -1.368195e+000 -2.721510e-001 4.500000e-002
    endloop
  endfacet
  facet normal -9.891765e-001 -1.467305e-001 -9.976595e-016
    outer loop
      vertex   -1.368195e+000 -2.721510e-001 0.000000e+000
      vertex   -1.368195e+000 -2.721510e-001 4.500000e-002
      vertex   -1.388283e+000 -1.367339e-001 4.500000e-002
    endloop
  endfacet
  facet normal -9.987955e-001 -4.906767e-002 7.379945e-015
    outer loop
      vertex   -1.388283e+000 -1.367339e-001 0.000000e+000
      vertex   -1.388283e+000 -1.367339e-001 4.500000e-002
      vertex   -1.395000e+000 1.708326e-016 0.000000e+000
    endloop
  endfacet
  facet normal -9.891765e-001 -1.467305e-001 6.546993e-015
    outer loop
      vertex   -1.388283e+000 -1.367339e-001 0.000000e+000
      vertex   -1.368195e+000 -2.721510e-001 0.000000e+000
      vertex   -1.388283e+000 -1.367339e-001 4.500000e-002
    endloop
  endfacet
  facet normal -9.987955e-001 -4.906767e-002 -3.725492e-016
    outer loop
      vertex   -1.388283e+000 -1.367339e-001 4.500000e-002
      vertex   -1.395000e+000 -1.708326e-016 4.500000e-002
      vertex   -1.395000e+000 1.708326e-016 0.000000e+000
    endloop
  endfacet
  facet normal -9.987955e-001 4.906767e-002 3.725492e-016
    outer loop
      vertex   -1.395000e+000 1.708326e-016 0.000000e+000
      vertex   -1.395000e+000 -1.708326e-016 4.500000e-002
      vertex   -1.388283e+000 1.367339e-001 0.000000e+000
    endloop
  endfacet
  facet normal -9.987955e-001 4.906767e-002 -7.376279e-015
    outer loop
      vertex   -1.388283e+000 1.367339e-001 0.000000e+000
      vertex   -1.395000e+000 -1.708326e-016 4.500000e-002
      vertex   -1.388283e+000 1.367339e-001 4.500000e-002
    endloop
  endfacet
  facet normal -9.891765e-001 1.467305e-001 -6.546303e-015
    outer loop
      vertex   -1.368195e+000 2.721510e-001 4.500000e-002
      vertex   -1.388283e+000 1.367339e-001 0.000000e+000
      vertex   -1.388283e+000 1.367339e-001 4.500000e-002
    endloop
  endfacet
  facet normal -9.891765e-001 1.467305e-001 9.976595e-016
    outer loop
      vertex   -1.368195e+000 2.721510e-001 4.500000e-002
      vertex   -1.368195e+000 2.721510e-001 0.000000e+000
      vertex   -1.388283e+000 1.367339e-001 0.000000e+000
    endloop
  endfacet
  facet normal -9.700313e-001 2.429802e-001 1.658572e-015
    outer loop
      vertex   -1.368195e+000 2.721510e-001 4.500000e-002
      vertex   -1.334932e+000 4.049471e-001 4.500000e-002
      vertex   -1.368195e+000 2.721510e-001 0.000000e+000
    endloop
  endfacet
  facet normal -9.700313e-001 2.429802e-001 2.832149e-015
    outer loop
      vertex   -1.368195e+000 2.721510e-001 0.000000e+000
      vertex   -1.334932e+000 4.049471e-001 4.500000e-002
      vertex   -1.334932e+000 4.049471e-001 0.000000e+000
    endloop
  endfacet
  facet normal -9.415441e-001 3.368899e-001 3.926749e-015
    outer loop
      vertex   -1.334932e+000 4.049471e-001 0.000000e+000
      vertex   -1.334932e+000 4.049471e-001 4.500000e-002
      vertex   -1.288812e+000 5.338434e-001 4.500000e-002
    endloop
  endfacet
  facet normal -9.039893e-001 4.275551e-001 2.491766e-015
    outer loop
      vertex   -1.288812e+000 5.338434e-001 0.000000e+000
      vertex   -1.288812e+000 5.338434e-001 4.500000e-002
      vertex   -1.230280e+000 6.575984e-001 0.000000e+000
    endloop
  endfacet
  facet normal -9.415441e-001 3.368899e-001 1.920451e-015
    outer loop
      vertex   -1.288812e+000 5.338434e-001 0.000000e+000
      vertex   -1.334932e+000 4.049471e-001 0.000000e+000
      vertex   -1.288812e+000 5.338434e-001 4.500000e-002
    endloop
  endfacet
  facet normal -9.039893e-001 4.275551e-001 3.322355e-015
    outer loop
      vertex   -1.288812e+000 5.338434e-001 4.500000e-002
      vertex   -1.230280e+000 6.575984e-001 4.500000e-002
      vertex   -1.230280e+000 6.575984e-001 0.000000e+000
    endloop
  endfacet
  facet normal -8.577286e-001 5.141027e-001 3.994882e-015
    outer loop
      vertex   -1.230280e+000 6.575984e-001 0.000000e+000
      vertex   -1.230280e+000 6.575984e-001 4.500000e-002
      vertex   -1.159900e+000 7.750205e-001 4.500000e-002
    endloop
  endfacet
  facet normal -8.032075e-001 5.956993e-001 4.628935e-015
    outer loop
      vertex   -1.159900e+000 7.750205e-001 0.000000e+000
      vertex   -1.159900e+000 7.750205e-001 4.500000e-002
      vertex   -1.078350e+000 8.849786e-001 4.500000e-002
    endloop
  endfacet
  facet normal -7.409511e-001 6.715590e-001 -3.148423e-015
    outer loop
      vertex   -1.078350e+000 8.849786e-001 0.000000e+000
      vertex   -1.078350e+000 8.849786e-001 4.500000e-002
      vertex   -9.864140e-001 9.864140e-001 4.500000e-002
    endloop
  endfacet
  facet normal -6.715590e-001 7.409511e-001 -5.218409e-015
    outer loop
      vertex   -9.864140e-001 9.864140e-001 0.000000e+000
      vertex   -9.864140e-001 9.864140e-001 4.500000e-002
      vertex   -8.849786e-001 1.078350e+000 4.500000e-002
    endloop
  endfacet
  facet normal -5.956993e-001 8.032075e-001 4.628935e-015
    outer loop
      vertex   -8.849786e-001 1.078350e+000 0.000000e+000
      vertex   -8.849786e-001 1.078350e+000 4.500000e-002
      vertex   -7.750205e-001 1.159900e+000 0.000000e+000
    endloop
  endfacet
  facet normal -6.715590e-001 7.409511e-001 5.237595e-015
    outer loop
      vertex   -8.849786e-001 1.078350e+000 0.000000e+000
      vertex   -9.864140e-001 9.864140e-001 0.000000e+000
      vertex   -8.849786e-001 1.078350e+000 4.500000e-002
    endloop
  endfacet
  facet normal -5.956993e-001 8.032075e-001 1.612461e-015
    outer loop
      vertex   -8.849786e-001 1.078350e+000 4.500000e-002
      vertex   -7.750205e-001 1.159900e+000 4.500000e-002
      vertex   -7.750205e-001 1.159900e+000 0.000000e+000
    endloop
  endfacet
  facet normal -5.141027e-001 8.577286e-001 2.670176e-015
    outer loop
      vertex   -7.750205e-001 1.159900e+000 0.000000e+000
      vertex   -7.750205e-001 1.159900e+000 4.500000e-002
      vertex   -6.575984e-001 1.230280e+000 4.500000e-002
    endloop
  endfacet
  facet normal -4.275551e-001 9.039893e-001 -1.661178e-015
    outer loop
      vertex   -6.575984e-001 1.230280e+000 0.000000e+000
      vertex   -6.575984e-001 1.230280e+000 4.500000e-002
      vertex   -5.338434e-001 1.288812e+000 4.500000e-002
    endloop
  endfacet
  facet normal -3.368899e-001 9.415441e-001 1.426229e-015
    outer loop
      vertex   -5.338434e-001 1.288812e+000 0.000000e+000
      vertex   -5.338434e-001 1.288812e+000 4.500000e-002
      vertex   -4.049471e-001 1.334932e+000 4.500000e-002
    endloop
  endfacet
  facet normal -2.429802e-001 9.700313e-001 -9.587319e-016
    outer loop
      vertex   -4.049471e-001 1.334932e+000 0.000000e+000
      vertex   -4.049471e-001 1.334932e+000 4.500000e-002
      vertex   -2.721510e-001 1.368195e+000 4.500000e-002
    endloop
  endfacet
  facet normal -1.467305e-001 9.891765e-001 5.691166e-015
    outer loop
      vertex   -2.721510e-001 1.368195e+000 0.000000e+000
      vertex   -2.721510e-001 1.368195e+000 4.500000e-002
      vertex   -1.367339e-001 1.388283e+000 0.000000e+000
    endloop
  endfacet
  facet normal -2.429802e-001 9.700313e-001 4.190076e-015
    outer loop
      vertex   -2.721510e-001 1.368195e+000 0.000000e+000
      vertex   -4.049471e-001 1.334932e+000 0.000000e+000
      vertex   -2.721510e-001 1.368195e+000 4.500000e-002
    endloop
  endfacet
  facet normal -1.467305e-001 9.891765e-001 9.263981e-016
    outer loop
      vertex   -2.721510e-001 1.368195e+000 4.500000e-002
      vertex   -1.367339e-001 1.388283e+000 4.500000e-002
      vertex   -1.367339e-001 1.388283e+000 0.000000e+000
    endloop
  endfacet
  facet normal -4.906767e-002 9.987955e-001 3.097939e-016
    outer loop
      vertex   -1.367339e-001 1.388283e+000 0.000000e+000
      vertex   -1.367339e-001 1.388283e+000 4.500000e-002
      vertex   -2.562489e-016 1.395000e+000 4.500000e-002
    endloop
  endfacet
  facet normal 4.906767e-002 9.987955e-001 3.725492e-016
    outer loop
      vertex   8.541629e-017 1.395000e+000 0.000000e+000
      vertex   -2.562489e-016 1.395000e+000 4.500000e-002
      vertex   1.367339e-001 1.388283e+000 4.500000e-002
    endloop
  endfacet
  facet normal 1.467305e-001 9.891765e-001 -4.550984e-015
    outer loop
      vertex   1.367339e-001 1.388283e+000 0.000000e+000
      vertex   1.367339e-001 1.388283e+000 4.500000e-002
      vertex   2.721510e-001 1.368195e+000 4.500000e-002
    endloop
  endfacet
  facet normal 2.429802e-001 9.700313e-001 -0.000000e+000
    outer loop
      vertex   2.721510e-001 1.368195e+000 0.000000e+000
      vertex   2.721510e-001 1.368195e+000 4.500000e-002
      vertex   4.049471e-001 1.334932e+000 4.500000e-002
    endloop
  endfacet
  facet normal 3.368899e-001 9.415441e-001 7.717706e-016
    outer loop
      vertex   4.049471e-001 1.334932e+000 0.000000e+000
      vertex   4.049471e-001 1.334932e+000 4.500000e-002
      vertex   5.338434e-001 1.288812e+000 0.000000e+000
    endloop
  endfacet
  facet normal 2.429802e-001 9.700313e-001 2.793384e-015
    outer loop
      vertex   4.049471e-001 1.334932e+000 0.000000e+000
      vertex   2.721510e-001 1.368195e+000 0.000000e+000
      vertex   4.049471e-001 1.334932e+000 4.500000e-002
    endloop
  endfacet
  facet normal 3.368899e-001 9.415441e-001 6.007436e-015
    outer loop
      vertex   4.049471e-001 1.334932e+000 4.500000e-002
      vertex   5.338434e-001 1.288812e+000 4.500000e-002
      vertex   5.338434e-001 1.288812e+000 0.000000e+000
    endloop
  endfacet
  facet normal 4.275551e-001 9.039893e-001 5.363352e-015
    outer loop
      vertex   5.338434e-001 1.288812e+000 0.000000e+000
      vertex   5.338434e-001 1.288812e+000 4.500000e-002
      vertex   6.575984e-001 1.230280e+000 4.500000e-002
    endloop
  endfacet
  facet normal 5.141027e-001 8.577286e-001 3.994882e-015
    outer loop
      vertex   6.575984e-001 1.230280e+000 0.000000e+000
      vertex   6.575984e-001 1.230280e+000 4.500000e-002
      vertex   7.750205e-001 1.159900e+000 4.500000e-002
    endloop
  endfacet
  facet normal 5.956993e-001 8.032075e-001 1.859240e-015
    outer loop
      vertex   7.750205e-001 1.159900e+000 0.000000e+000
      vertex   7.750205e-001 1.159900e+000 4.500000e-002
      vertex   8.849786e-001 1.078350e+000 4.500000e-002
    endloop
  endfacet
  facet normal 6.715590e-001 7.409511e-001 4.409582e-015
    outer loop
      vertex   8.849786e-001 1.078350e+000 0.000000e+000
      vertex   8.849786e-001 1.078350e+000 4.500000e-002
      vertex   9.864140e-001 9.864140e-001 4.500000e-002
    endloop
  endfacet
  facet normal 7.409511e-001 6.715590e-001 5.392181e-016
    outer loop
      vertex   9.864140e-001 9.864140e-001 0.000000e+000
      vertex   9.864140e-001 9.864140e-001 4.500000e-002
      vertex   1.078350e+000 8.849786e-001 0.000000e+000
    endloop
  endfacet
  facet normal 6.715590e-001 7.409511e-001 -5.237595e-016
    outer loop
      vertex   9.864140e-001 9.864140e-001 0.000000e+000
      vertex   8.849786e-001 1.078350e+000 0.000000e+000
      vertex   9.864140e-001 9.864140e-001 4.500000e-002
    endloop
  endfacet
  facet normal 7.409511e-001 6.715590e-001 -3.148423e-015
    outer loop
      vertex   9.864140e-001 9.864140e-001 4.500000e-002
      vertex   1.078350e+000 8.849786e-001 4.500000e-002
      vertex   1.078350e+000 8.849786e-001 0.000000e+000
    endloop
  endfacet
  facet normal 8.032075e-001 5.956993e-001 -3.926929e-015
    outer loop
      vertex   1.078350e+000 8.849786e-001 0.000000e+000
      vertex   1.078350e+000 8.849786e-001 4.500000e-002
      vertex   1.159900e+000 7.750205e-001 4.500000e-002
    endloop
  endfacet
  facet normal 8.577286e-001 5.141027e-001 -0.000000e+000
    outer loop
      vertex   1.159900e+000 7.750205e-001 0.000000e+000
      vertex   1.159900e+000 7.750205e-001 4.500000e-002
      vertex   1.230280e+000 6.575984e-001 4.500000e-002
    endloop
  endfacet
  facet normal 9.039893e-001 4.275551e-001 2.040997e-015
    outer loop
      vertex   1.230280e+000 6.575984e-001 0.000000e+000
      vertex   1.230280e+000 6.575984e-001 4.500000e-002
      vertex   1.288812e+000 5.338434e-001 4.500000e-002
    endloop
  endfacet
  facet normal 9.415441e-001 3.368899e-001 7.717706e-016
    outer loop
      vertex   1.288812e+000 5.338434e-001 0.000000e+000
      vertex   1.288812e+000 5.338434e-001 4.500000e-002
      vertex   1.334932e+000 4.049471e-001 4.500000e-002
    endloop
  endfacet
  facet normal 9.700313e-001 2.429802e-001 -1.468227e-017
    outer loop
      vertex   1.334932e+000 4.049471e-001 0.000000e+000
      vertex   1.334932e+000 4.049471e-001 4.500000e-002
      vertex   1.368195e+000 2.721510e-001 0.000000e+000
    endloop
  endfacet
  facet normal 9.415441e-001 3.368899e-001 -3.142557e-015
    outer loop
      vertex   1.334932e+000 4.049471e-001 0.000000e+000
      vertex   1.288812e+000 5.338434e-001 0.000000e+000
      vertex   1.334932e+000 4.049471e-001 4.500000e-002
    endloop
  endfacet
  facet normal 9.700313e-001 2.429802e-001 3.997529e-015
    outer loop
      vertex   1.334932e+000 4.049471e-001 4.500000e-002
      vertex   1.368195e+000 2.721510e-001 4.500000e-002
      vertex   1.368195e+000 2.721510e-001 0.000000e+000
    endloop
  endfacet
  facet normal 9.891765e-001 1.467305e-001 5.548643e-015
    outer loop
      vertex   1.368195e+000 2.721510e-001 0.000000e+000
      vertex   1.368195e+000 2.721510e-001 4.500000e-002
      vertex   1.388283e+000 1.367339e-001 4.500000e-002
    endloop
  endfacet
  facet normal 9.987955e-001 4.906767e-002 1.668121e-016
    outer loop
      vertex   1.388283e+000 1.367339e-001 0.000000e+000
      vertex   1.388283e+000 1.367339e-001 4.500000e-002
      vertex   1.395000e+000 0.000000e+000 4.500000e-002
    endloop
  endfacet
  facet normal 9.987955e-001 -4.906767e-002 0.000000e+000
    outer loop
      vertex   1.395000e+000 0.000000e+000 0.000000e+000
      vertex   1.395000e+000 0.000000e+000 4.500000e-002
      vertex   1.388283e+000 -1.367339e-001 4.500000e-002
    endloop
  endfacet
  facet normal 9.987955e-001 -4.906767e-002 -1.527632e-016
    outer loop
      vertex   1.388283e+000 -1.367339e-001 0.000000e+000
      vertex   1.395000e+000 0.000000e+000 0.000000e+000
      vertex   1.388283e+000 -1.367339e-001 4.500000e-002
    endloop
  endfacet
  facet normal 9.987955e-001 4.906767e-002 0.000000e+000
    outer loop
      vertex   1.395000e+000 0.000000e+000 0.000000e+000
      vertex   1.388283e+000 1.367339e-001 0.000000e+000
      vertex   1.395000e+000 0.000000e+000 4.500000e-002
    endloop
  endfacet
  facet normal 9.891765e-001 1.467305e-001 5.237595e-016
    outer loop
      vertex   1.388283e+000 1.367339e-001 0.000000e+000
      vertex   1.368195e+000 2.721510e-001 0.000000e+000
      vertex   1.388283e+000 1.367339e-001 4.500000e-002
    endloop
  endfacet
  facet normal 9.039893e-001 4.275551e-001 -1.222105e-015
    outer loop
      vertex   1.288812e+000 5.338434e-001 0.000000e+000
      vertex   1.230280e+000 6.575984e-001 0.000000e+000
      vertex   1.288812e+000 5.338434e-001 4.500000e-002
    endloop
  endfacet
  facet normal 8.577286e-001 5.141027e-001 6.983459e-016
    outer loop
      vertex   1.230280e+000 6.575984e-001 0.000000e+000
      vertex   1.159900e+000 7.750205e-001 0.000000e+000
      vertex   1.230280e+000 6.575984e-001 4.500000e-002
    endloop
  endfacet
  facet normal 8.032075e-001 5.956993e-001 0.000000e+000
    outer loop
      vertex   1.159900e+000 7.750205e-001 0.000000e+000
      vertex   1.078350e+000 8.849786e-001 0.000000e+000
      vertex   1.159900e+000 7.750205e-001 4.500000e-002
    endloop
  endfacet
  facet normal 5.956993e-001 8.032075e-001 2.269624e-015
    outer loop
      vertex   8.849786e-001 1.078350e+000 0.000000e+000
      vertex   7.750205e-001 1.159900e+000 0.000000e+000
      vertex   8.849786e-001 1.078350e+000 4.500000e-002
    endloop
  endfacet
  facet normal 5.141027e-001 8.577286e-001 3.491730e-016
    outer loop
      vertex   7.750205e-001 1.159900e+000 0.000000e+000
      vertex   6.575984e-001 1.230280e+000 0.000000e+000
      vertex   7.750205e-001 1.159900e+000 4.500000e-002
    endloop
  endfacet
  facet normal 4.275551e-001 9.039893e-001 3.317143e-015
    outer loop
      vertex   6.575984e-001 1.230280e+000 0.000000e+000
      vertex   5.338434e-001 1.288812e+000 0.000000e+000
      vertex   6.575984e-001 1.230280e+000 4.500000e-002
    endloop
  endfacet
  facet normal 1.467305e-001 9.891765e-001 0.000000e+000
    outer loop
      vertex   2.721510e-001 1.368195e+000 0.000000e+000
      vertex   1.367339e-001 1.388283e+000 0.000000e+000
      vertex   2.721510e-001 1.368195e+000 4.500000e-002
    endloop
  endfacet
  facet normal 4.906767e-002 9.987955e-001 -6.699756e-015
    outer loop
      vertex   1.367339e-001 1.388283e+000 0.000000e+000
      vertex   8.541629e-017 1.395000e+000 0.000000e+000
      vertex   1.367339e-001 1.388283e+000 4.500000e-002
    endloop
  endfacet
  facet normal -4.906767e-002 9.987955e-001 -3.928196e-016
    outer loop
      vertex   8.541629e-017 1.395000e+000 0.000000e+000
      vertex   -1.367339e-001 1.388283e+000 0.000000e+000
      vertex   -2.562489e-016 1.395000e+000 4.500000e-002
    endloop
  endfacet
  facet normal -3.368899e-001 9.415441e-001 -4.539249e-015
    outer loop
      vertex   -4.049471e-001 1.334932e+000 0.000000e+000
      vertex   -5.338434e-001 1.288812e+000 0.000000e+000
      vertex   -4.049471e-001 1.334932e+000 4.500000e-002
    endloop
  endfacet
  facet normal -4.275551e-001 9.039893e-001 -5.237595e-016
    outer loop
      vertex   -5.338434e-001 1.288812e+000 0.000000e+000
      vertex   -6.575984e-001 1.230280e+000 0.000000e+000
      vertex   -5.338434e-001 1.288812e+000 4.500000e-002
    endloop
  endfacet
  facet normal -5.141027e-001 8.577286e-001 -1.920451e-015
    outer loop
      vertex   -6.575984e-001 1.230280e+000 0.000000e+000
      vertex   -7.750205e-001 1.159900e+000 0.000000e+000
      vertex   -6.575984e-001 1.230280e+000 4.500000e-002
    endloop
  endfacet
  facet normal -7.409511e-001 6.715590e-001 -5.761354e-015
    outer loop
      vertex   -9.864140e-001 9.864140e-001 0.000000e+000
      vertex   -1.078350e+000 8.849786e-001 0.000000e+000
      vertex   -9.864140e-001 9.864140e-001 4.500000e-002
    endloop
  endfacet
  facet normal -8.032075e-001 5.956993e-001 -4.015489e-015
    outer loop
      vertex   -1.078350e+000 8.849786e-001 0.000000e+000
      vertex   -1.159900e+000 7.750205e-001 0.000000e+000
      vertex   -1.078350e+000 8.849786e-001 4.500000e-002
    endloop
  endfacet
  facet normal -8.577286e-001 5.141027e-001 4.015489e-015
    outer loop
      vertex   -1.159900e+000 7.750205e-001 0.000000e+000
      vertex   -1.230280e+000 6.575984e-001 0.000000e+000
      vertex   -1.159900e+000 7.750205e-001 4.500000e-002
    endloop
  endfacet
  facet normal -9.700313e-001 -2.429802e-001 -1.658572e-015
    outer loop
      vertex   -1.368195e+000 -2.721510e-001 0.000000e+000
      vertex   -1.334932e+000 -4.049471e-001 0.000000e+000
      vertex   -1.368195e+000 -2.721510e-001 4.500000e-002
    endloop
  endfacet
  facet normal -9.415441e-001 -3.368899e-001 -3.840903e-015
    outer loop
      vertex   -1.334932e+000 -4.049471e-001 0.000000e+000
      vertex   -1.288812e+000 -5.338434e-001 0.000000e+000
      vertex   -1.334932e+000 -4.049471e-001 4.500000e-002
    endloop
  endfacet
  facet normal -8.032075e-001 -5.956993e-001 -4.713835e-015
    outer loop
      vertex   -1.159900e+000 -7.750205e-001 0.000000e+000
      vertex   -1.078350e+000 -8.849786e-001 0.000000e+000
      vertex   -1.159900e+000 -7.750205e-001 4.500000e-002
    endloop
  endfacet
  facet normal -7.409511e-001 -6.715590e-001 3.142557e-015
    outer loop
      vertex   -1.078350e+000 -8.849786e-001 0.000000e+000
      vertex   -9.864140e-001 -9.864140e-001 0.000000e+000
      vertex   -1.078350e+000 -8.849786e-001 4.500000e-002
    endloop
  endfacet
  facet normal -6.715590e-001 -7.409511e-001 5.237595e-015
    outer loop
      vertex   -9.864140e-001 -9.864140e-001 0.000000e+000
      vertex   -8.849786e-001 -1.078350e+000 0.000000e+000
      vertex   -9.864140e-001 -9.864140e-001 4.500000e-002
    endloop
  endfacet
  facet normal -4.275551e-001 -9.039893e-001 1.745865e-015
    outer loop
      vertex   -6.575984e-001 -1.230280e+000 0.000000e+000
      vertex   -5.338434e-001 -1.288812e+000 0.000000e+000
      vertex   -6.575984e-001 -1.230280e+000 4.500000e-002
    endloop
  endfacet
  facet normal -3.368899e-001 -9.415441e-001 -1.396692e-015
    outer loop
      vertex   -5.338434e-001 -1.288812e+000 0.000000e+000
      vertex   -4.049471e-001 -1.334932e+000 0.000000e+000
      vertex   -5.338434e-001 -1.288812e+000 4.500000e-002
    endloop
  endfacet
  facet normal -2.429802e-001 -9.700313e-001 9.602257e-016
    outer loop
      vertex   -4.049471e-001 -1.334932e+000 0.000000e+000
      vertex   -2.721510e-001 -1.368195e+000 0.000000e+000
      vertex   -4.049471e-001 -1.334932e+000 4.500000e-002
    endloop
  endfacet
  facet normal 4.906767e-002 -9.987955e-001 -3.709963e-016
    outer loop
      vertex   -2.562489e-016 -1.395000e+000 0.000000e+000
      vertex   1.367339e-001 -1.388283e+000 0.000000e+000
      vertex   8.541629e-017 -1.395000e+000 4.500000e-002
    endloop
  endfacet
  facet normal 1.467305e-001 -9.891765e-001 4.539249e-015
    outer loop
      vertex   1.367339e-001 -1.388283e+000 0.000000e+000
      vertex   2.721510e-001 -1.368195e+000 0.000000e+000
      vertex   1.367339e-001 -1.388283e+000 4.500000e-002
    endloop
  endfacet
  facet normal 2.429802e-001 -9.700313e-001 0.000000e+000
    outer loop
      vertex   2.721510e-001 -1.368195e+000 0.000000e+000
      vertex   4.049471e-001 -1.334932e+000 0.000000e+000
      vertex   2.721510e-001 -1.368195e+000 4.500000e-002
    endloop
  endfacet
  facet normal 5.141027e-001 -8.577286e-001 -4.015489e-015
    outer loop
      vertex   6.575984e-001 -1.230280e+000 0.000000e+000
      vertex   7.750205e-001 -1.159900e+000 0.000000e+000
      vertex   6.575984e-001 -1.230280e+000 4.500000e-002
    endloop
  endfacet
  facet normal 5.956993e-001 -8.032075e-001 -1.920451e-015
    outer loop
      vertex   7.750205e-001 -1.159900e+000 0.000000e+000
      vertex   8.849786e-001 -1.078350e+000 0.000000e+000
      vertex   7.750205e-001 -1.159900e+000 4.500000e-002
    endloop
  endfacet
  facet normal 6.715590e-001 -7.409511e-001 -4.364662e-015
    outer loop
      vertex   8.849786e-001 -1.078350e+000 0.000000e+000
      vertex   9.864140e-001 -9.864140e-001 0.000000e+000
      vertex   8.849786e-001 -1.078350e+000 4.500000e-002
    endloop
  endfacet
  facet normal 8.577286e-001 -5.141027e-001 0.000000e+000
    outer loop
      vertex   1.159900e+000 -7.750205e-001 0.000000e+000
      vertex   1.230280e+000 -6.575984e-001 0.000000e+000
      vertex   1.159900e+000 -7.750205e-001 4.500000e-002
    endloop
  endfacet
  facet normal 9.039893e-001 -4.275551e-001 -2.095038e-015
    outer loop
      vertex   1.230280e+000 -6.575984e-001 0.000000e+000
      vertex   1.288812e+000 -5.338434e-001 0.000000e+000
      vertex   1.230280e+000 -6.575984e-001 4.500000e-002
    endloop
  endfacet
  facet normal 0.000000e+000 0.000000e+000 1.000000e+000
    outer loop
      vertex   1.367339e-001 1.388283e+000 4.500000e-002
      vertex   -1.367339e-001 1.388283e+000 4.500000e-002
      vertex   2.721510e-001 1.368195e+000 4.500000e-002
    endloop
  endfacet
  facet normal 0.000000e+000 0.000000e+000 1.000000e+000
    outer loop
      vertex   1.367339e-001 1.388283e+000 4.500000e-002
      vertex   -2.562489e-016 1.395000e+000 4.500000e-002
      vertex   -1.367339e-001 1.388283e+000 4.500000e-002
    endloop
  endfacet
  facet normal 0.000000e+000 0.000000e+000 1.000000e+000
    outer loop
      vertex   2.721510e-001 1.368195e+000 4.500000e-002
      vertex   -2.721510e-001 1.368195e+000 4.500000e-002
      vertex   4.049471e-001 1.334932e+000 4.500000e-002
    endloop
  endfacet
  facet normal 0.000000e+000 0.000000e+000 1.000000e+000
    outer loop
      vertex   2.721510e-001 1.368195e+000 4.500000e-002
      vertex   -1.367339e-001 1.388283e+000 4.500000e-002
      vertex   -2.721510e-001 1.368195e+000 4.500000e-002
    endloop
  endfacet
  facet normal 0.000000e+000 0.000000e+000 1.000000e+000
    outer loop
      vertex   4.049471e-001 1.334932e+000 4.500000e-002
      vertex   -4.049471e-001 1.334932e+000 4.500000e-002
      vertex   5.338434e-001 1.288812e+000 4.500000e-002
    endloop
  endfacet
  facet normal 0.000000e+000 0.000000e+000 1.000000e+000
    outer loop
      vertex   4.049471e-001 1.334932e+000 4.500000e-002
      vertex   -2.721510e-001 1.368195e+000 4.500000e-002
      vertex   -4.049471e-001 1.334932e+000 4.500000e-002
    endloop
  endfacet
  facet normal 0.000000e+000 0.000000e+000 1.000000e+000
    outer loop
      vertex   5.338434e-001 1.288812e+000 4.500000e-002
      vertex   -5.338434e-001 1.288812e+000 4.500000e-002
      vertex   6.575984e-001 1.230280e+000 4.500000e-002
    endloop
  endfacet
  facet normal 0.000000e+000 0.000000e+000 1.000000e+000
    outer loop
      vertex   5.338434e-001 1.288812e+000 4.500000e-002
      vertex   -4.049471e-001 1.334932e+000 4.500000e-002
      vertex   -5.338434e-001 1.288812e+000 4.500000e-002
    endloop
  endfacet
  facet normal 0.000000e+000 0.000000e+000 1.000000e+000
    outer loop
      vertex   6.575984e-001 1.230280e+000 4.500000e-002
      vertex   -6.575984e-001 1.230280e+000 4.500000e-002
      vertex   7.750205e-001 1.159900e+000 4.500000e-002
    endloop
  endfacet
  facet normal 0.000000e+000 0.000000e+000 1.000000e+000
    outer loop
      vertex   6.575984e-001 1.230280e+000 4.500000e-002
      vertex   -5.338434e-001 1.288812e+000 4.500000e-002
      vertex   -6.575984e-001 1.230280e+000 4.500000e-002
    endloop
  endfacet
  facet normal 0.000000e+000 0.000000e+000 1.000000e+000
    outer loop
      vertex   7.750205e-001 1.159900e+000 4.500000e-002
      vertex   -7.750205e-001 1.159900e+000 4.500000e-002
      vertex   8.849786e-001 1.078350e+000 4.500000e-002
    endloop
  endfacet
  facet normal 0.000000e+000 0.000000e+000 1.000000e+000
    outer loop
      vertex   7.750205e-001 1.159900e+000 4.500000e-002
      vertex   -6.575984e-001 1.230280e+000 4.500000e-002
      vertex   -7.750205e-001 1.159900e+000 4.500000e-002
    endloop
  endfacet
  facet normal 0.000000e+000 0.000000e+000 1.000000e+000
    outer loop
      vertex   8.849786e-001 1.078350e+000 4.500000e-002
      vertex   -8.849786e-001 1.078350e+000 4.500000e-002
      vertex   9.864140e-001 9.864140e-001 4.500000e-002
    endloop
  endfacet
  facet normal 0.000000e+000 0.000000e+000 1.000000e+000
    outer loop
      vertex   8.849786e-001 1.078350e+000 4.500000e-002
      vertex   -7.750205e-001 1.159900e+000 4.500000e-002
      vertex   -8.849786e-001 1.078350e+000 4.500000e-002
    endloop
  endfacet
  facet normal 0.000000e+000 0.000000e+000 1.000000e+000
    outer loop
      vertex   9.864140e-001 9.864140e-001 4.500000e-002
      vertex   -9.864140e-001 9.864140e-001 4.500000e-002
      vertex   1.078350e+000 8.849786e-001 4.500000e-002
    endloop
  endfacet
  facet normal 0.000000e+000 0.000000e+000 1.000000e+000
    outer loop
      vertex   9.864140e-001 9.864140e-001 4.500000e-002
      vertex   -8.849786e-001 1.078350e+000 4.500000e-002
      vertex   -9.864140e-001 9.864140e-001 4.500000e-002
    endloop
  endfacet
  facet normal -0.000000e+000 0.000000e+000 1.000000e+000
    outer loop
      vertex   -9.864140e-001 9.864140e-001 4.500000e-002
      vertex   -1.078350e+000 8.849786e-001 4.500000e-002
      vertex   1.078350e+000 8.849786e-001 4.500000e-002
    endloop
  endfacet
  facet normal 0.000000e+000 0.000000e+000 1.000000e+000
    outer loop
      vertex   1.078350e+000 8.849786e-001 4.500000e-002
      vertex   -1.078350e+000 8.849786e-001 4.500000e-002
      vertex   1.159900e+000 7.750205e-001 4.500000e-002
    endloop
  endfacet
  facet normal 0.000000e+000 0.000000e+000 1.000000e+000
    outer loop
      vertex   1.159900e+000 7.750205e-001 4.500000e-002
      vertex   -1.078350e+000 8.849786e-001 4.500000e-002
      vertex   -1.159900e+000 7.750205e-001 4.500000e-002
    endloop
  endfacet
  facet normal 0.000000e+000 0.000000e+000 1.000000e+000
    outer loop
      vertex   1.230280e+000 6.575984e-001 4.500000e-002
      vertex   -1.159900e+000 7.750205e-001 4.500000e-002
      vertex   -1.230280e+000 6.575984e-001 4.500000e-002
    endloop
  endfacet
  facet normal 0.000000e+000 0.000000e+000 1.000000e+000
    outer loop
      vertex   1.288812e+000 5.338434e-001 4.500000e-002
      vertex   -1.230280e+000 6.575984e-001 4.500000e-002
      vertex   -1.288812e+000 5.338434e-001 4.500000e-002
    endloop
  endfacet
  facet normal 0.000000e+000 0.000000e+000 1.000000e+000
    outer loop
      vertex   1.334932e+000 4.049471e-001 4.500000e-002
      vertex   -1.288812e+000 5.338434e-001 4.500000e-002
      vertex   -1.334932e+000 4.049471e-001 4.500000e-002
    endloop
  endfacet
  facet normal 0.000000e+000 0.000000e+000 1.000000e+000
    outer loop
      vertex   1.368195e+000 2.721510e-001 4.500000e-002
      vertex   -1.334932e+000 4.049471e-001 4.500000e-002
      vertex   -1.368195e+000 2.721510e-001 4.500000e-002
    endloop
  endfacet
  facet normal 0.000000e+000 0.000000e+000 1.000000e+000
    outer loop
      vertex   1.388283e+000 1.367339e-001 4.500000e-002
      vertex   -1.368195e+000 2.721510e-001 4.500000e-002
      vertex   -1.388283e+000 1.367339e-001 4.500000e-002
    endloop
  endfacet
  facet normal 0.000000e+000 0.000000e+000 1.000000e+000
    outer loop
      vertex   1.395000e+000 0.000000e+000 4.500000e-002
      vertex   -1.388283e+000 1.367339e-001 4.500000e-002
      vertex   -1.395000e+000 -1.708326e-016 4.500000e-002
    endloop
  endfacet
  facet normal 0.000000e+000 0.000000e+000 1.000000e+000
    outer loop
      vertex   1.388283e+000 -1.367339e-001 4.500000e-002
      vertex   -1.395000e+000 -1.708326e-016 4.500000e-002
      vertex   -1.388283e+000 -1.367339e-001 4.500000e-002
    endloop
  endfacet
  facet normal 0.000000e+000 0.000000e+000 1.000000e+000
    outer loop
      vertex   1.368195e+000 -2.721510e-001 4.500000e-002
      vertex   -1.388283e+000 -1.367339e-001 4.500000e-002
      vertex   -1.368195e+000 -2.721510e-001 4.500000e-002
    endloop
  endfacet
  facet normal 0.000000e+000 0.000000e+000 1.000000e+000
    outer loop
      vertex   1.334932e+000 -4.049471e-001 4.500000e-002
      vertex   -1.368195e+000 -2.721510e-001 4.500000e-002
      vertex   -1.334932e+000 -4.049471e-001 4.500000e-002
    endloop
  endfacet
  facet normal 0.000000e+000 0.000000e+000 1.000000e+000
    outer loop
      vertex   1.288812e+000 -5.338434e-001 4.500000e-002
      vertex   -1.334932e+000 -4.049471e-001 4.500000e-002
      vertex   -1.288812e+000 -5.338434e-001 4.500000e-002
    endloop
  endfacet
  facet normal 0.000000e+000 0.000000e+000 1.000000e+000
    outer loop
      vertex   1.230280e+000 -6.575984e-001 4.500000e-002
      vertex   -1.288812e+000 -5.338434e-001 4.500000e-002
      vertex   -1.230280e+000 -6.575984e-001 4.500000e-002
    endloop
  endfacet
  facet normal 0.000000e+000 0.000000e+000 1.000000e+000
    outer loop
      vertex   1.159900e+000 -7.750205e-001 4.500000e-002
      vertex   -1.230280e+000 -6.575984e-001 4.500000e-002
      vertex   -1.159900e+000 -7.750205e-001 4.500000e-002
    endloop
  endfacet
  facet normal 0.000000e+000 0.000000e+000 1.000000e+000
    outer loop
      vertex   1.078350e+000 -8.849786e-001 4.500000e-002
      vertex   -1.159900e+000 -7.750205e-001 4.500000e-002
      vertex   -1.078350e+000 -8.849786e-001 4.500000e-002
    endloop
  endfacet
  facet normal 0.000000e+000 0.000000e+000 1.000000e+000
    outer loop
      vertex   9.864140e-001 -9.864140e-001 4.500000e-002
      vertex   -1.078350e+000 -8.849786e-001 4.500000e-002
      vertex   -9.864140e-001 -9.864140e-001 4.500000e-002
    endloop
  endfacet
  facet normal 0.000000e+000 0.000000e+000 1.000000e+000
    outer loop
      vertex   8.849786e-001 -1.078350e+000 4.500000e-002
      vertex   -9.864140e-001 -9.864140e-001 4.500000e-002
      vertex   -8.849786e-001 -1.078350e+000 4.500000e-002
    endloop
  endfacet
  facet normal 0.000000e+000 0.000000e+000 1.000000e+000
    outer loop
      vertex   7.750205e-001 -1.159900e+000 4.500000e-002
      vertex   -8.849786e-001 -1.078350e+000 4.500000e-002
      vertex   -7.750205e-001 -1.159900e+000 4.500000e-002
    endloop
  endfacet
  facet normal 0.000000e+000 0.000000e+000 1.000000e+000
    outer loop
      vertex   6.575984e-001 -1.230280e+000 4.500000e-002
      vertex   -7.750205e-001 -1.159900e+000 4.500000e-002
      vertex   -6.575984e-001 -1.230280e+000 4.500000e-002
    endloop
  endfacet
  facet normal 0.000000e+000 0.000000e+000 1.000000e+000
    outer loop
      vertex   5.338434e-001 -1.288812e+000 4.500000e-002
      vertex   -6.575984e-001 -1.230280e+000 4.500000e-002
      vertex   -5.338434e-001 -1.288812e+000 4.500000e-002
    endloop
  endfacet
  facet normal 0.000000e+000 0.000000e+000 1.000000e+000
    outer loop
      vertex   4.049471e-001 -1.334932e+000 4.500000e-002
      vertex   -5.338434e-001 -1.288812e+000 4.500000e-002
      vertex   -4.049471e-001 -1.334932e+000 4.500000e-002
    endloop
  endfacet
  facet normal 0.000000e+000 0.000000e+000 1.000000e+000
    outer loop
      vertex   2.721510e-001 -1.368195e+000 4.500000e-002
      vertex   -4.049471e-001 -1.334932e+000 4.500000e-002
      vertex   -2.721510e-001 -1.368195e+000 4.500000e-002
    endloop
  endfacet
  facet normal 0.000000e+000 0.000000e+000 1.000000e+000
    outer loop
      vertex   1.367339e-001 -1.388283e+000 4.500000e-002
      vertex   -2.721510e-001 -1.368195e+000 4.500000e-002
      vertex   -1.367339e-001 -1.388283e+000 4.500000e-002
    endloop
  endfacet
  facet normal 0.000000e+000 -0.000000e+000 1.000000e+000
    outer loop
      vertex   8.541629e-017 -1.395000e+000 4.500000e-002
      vertex   1.367339e-001 -1.388283e+000 4.500000e-002
      vertex   -1.367339e-001 -1.388283e+000 4.500000e-002
    endloop
  endfacet
  facet normal 0.000000e+000 -0.000000e+000 1.000000e+000
    outer loop
      vertex   1.367339e-001 -1.388283e+000 4.500000e-002
      vertex   2.721510e-001 -1.368195e+000 4.500000e-002
      vertex   -2.721510e-001 -1.368195e+000 4.500000e-002
    endloop
  endfacet
  facet normal 0.000000e+000 -0.000000e+000 1.000000e+000
    outer loop
      vertex   2.721510e-001 -1.368195e+000 4.500000e-002
      vertex   4.049471e-001 -1.334932e+000 4.500000e-002
      vertex   -4.049471e-001 -1.334932e+000 4.500000e-002
    endloop
  endfacet
  facet normal 0.000000e+000 -0.000000e+000 1.000000e+000
    outer loop
      vertex   4.049471e-001 -1.334932e+000 4.500000e-002
      vertex   5.338434e-001 -1.288812e+000 4.500000e-002
      vertex   -5.338434e-001 -1.288812e+000 4.500000e-002
    endloop
  endfacet
  facet normal 0.000000e+000 -0.000000e+000 1.000000e+000
    outer loop
      vertex   5.338434e-001 -1.288812e+000 4.500000e-002
      vertex   6.575984e-001 -1.230280e+000 4.500000e-002
      vertex   -6.575984e-001 -1.230280e+000 4.500000e-002
    endloop
  endfacet
  facet normal 0.000000e+000 -0.000000e+000 1.000000e+000
    outer loop
      vertex   6.575984e-001 -1.230280e+000 4.500000e-002
      vertex   7.750205e-001 -1.159900e+000 4.500000e-002
      vertex   -7.750205e-001 -1.159900e+000 4.500000e-002
    endloop
  endfacet
  facet normal 0.000000e+000 -0.000000e+000 1.000000e+000
    outer loop
      vertex   7.750205e-001 -1.159900e+000 4.500000e-002
      vertex   8.849786e-001 -1.078350e+000 4.500000e-002
      vertex   -8.849786e-001 -1.078350e+000 4.500000e-002
    endloop
  endfacet
  facet normal 0.000000e+000 -0.000000e+000 1.000000e+000
    outer loop
      vertex   8.849786e-001 -1.078350e+000 4.500000e-002
      vertex   9.864140e-001 -9.864140e-001 4.500000e-002
      vertex   -9.864140e-001 -9.864140e-001 4.500000e-002
    endloop
  endfacet
  facet normal 0.000000e+000 -0.000000e+000 1.000000e+000
    outer loop
      vertex   9.864140e-001 -9.864140e-001 4.500000e-002
      vertex   1.078350e+000 -8.849786e-001 4.500000e-002
      vertex   -1.078350e+000 -8.849786e-001 4.500000e-002
    endloop
  endfacet
  facet normal 0.000000e+000 -0.000000e+000 1.000000e+000
    outer loop
      vertex   1.078350e+000 -8.849786e-001 4.500000e-002
      vertex   1.159900e+000 -7.750205e-001 4.500000e-002
      vertex   -1.159900e+000 -7.750205e-001 4.500000e-002
    endloop
  endfacet
  facet normal 0.000000e+000 -0.000000e+000 1.000000e+000
    outer loop
      vertex   1.159900e+000 -7.750205e-001 4.500000e-002
      vertex   1.230280e+000 -6.575984e-001 4.500000e-002
      vertex   -1.230280e+000 -6.575984e-001 4.500000e-002
    endloop
  endfacet
  facet normal 0.000000e+000 -0.000000e+000 1.000000e+000
    outer loop
      vertex   1.230280e+000 -6.575984e-001 4.500000e-002
      vertex   1.288812e+000 -5.338434e-001 4.500000e-002
      vertex   -1.288812e+000 -5.338434e-001 4.500000e-002
    endloop
  endfacet
  facet normal 0.000000e+000 -0.000000e+000 1.000000e+000
    outer loop
      vertex   1.288812e+000 -5.338434e-001 4.500000e-002
      vertex   1.334932e+000 -4.049471e-001 4.500000e-002
      vertex   -1.334932e+000 -4.049471e-001 4.500000e-002
    endloop
  endfacet
  facet normal 0.000000e+000 -0.000000e+000 1.000000e+000
    outer loop
      vertex   1.334932e+000 -4.049471e-001 4.500000e-002
      vertex   1.368195e+000 -2.721510e-001 4.500000e-002
      vertex   -1.368195e+000 -2.721510e-001 4.500000e-002
    endloop
  endfacet
  facet normal 0.000000e+000 -0.000000e+000 1.000000e+000
    outer loop
      vertex   1.368195e+000 -2.721510e-001 4.500000e-002
      vertex   1.388283e+000 -1.367339e-001 4.500000e-002
      vertex   -1.388283e+000 -1.367339e-001 4.500000e-002
    endloop
  endfacet
  facet normal 0.000000e+000 -0.000000e+000 1.000000e+000
    outer loop
      vertex   1.388283e+000 -1.367339e-001 4.500000e-002
      vertex   1.395000e+000 0.000000e+000 4.500000e-002
      vertex   -1.395000e+000 -1.708326e-016 4.500000e-002
    endloop
  endfacet
  facet normal -0.000000e+000 -0.000000e+000 1.000000e+000
    outer loop
      vertex   -1.388283e+000 1.367339e-001 4.500000e-002
      vertex   1.395000e+000 0.000000e+000 4.500000e-002
      vertex   1.388283e+000 1.367339e-001 4.500000e-002
    endloop
  endfacet
  facet normal -0.000000e+000 -0.000000e+000 1.000000e+000
    outer loop
      vertex   -1.368195e+000 2.721510e-001 4.500000e-002
      vertex   1.388283e+000 1.367339e-001 4.500000e-002
      vertex   1.368195e+000 2.721510e-001 4.500000e-002
    endloop
  endfacet
  facet normal -0.000000e+000 -0.000000e+000 1.000000e+000
    outer loop
      vertex   -1.334932e+000 4.049471e-001 4.500000e-002
      vertex   1.368195e+000 2.721510e-001 4.500000e-002
      vertex   1.334932e+000 4.049471e-001 4.500000e-002
    endloop
  endfacet
  facet normal -0.000000e+000 -0.000000e+000 1.000000e+000
    outer loop
      vertex   -1.288812e+000 5.338434e-001 4.500000e-002
      vertex   1.334932e+000 4.049471e-001 4.500000e-002
      vertex   1.288812e+000 5.338434e-001 4.500000e-002
    endloop
  endfacet
  facet normal -0.000000e+000 -0.000000e+000 1.000000e+000
    outer loop
      vertex   -1.230280e+000 6.575984e-001 4.500000e-002
      vertex   1.288812e+000 5.338434e-001 4.500000e-002
      vertex   1.230280e+000 6.575984e-001 4.500000e-002
    endloop
  endfacet
  facet normal -0.000000e+000 -0.000000e+000 1.000000e+000
    outer loop
      vertex   -1.159900e+000 7.750205e-001 4.500000e-002
      vertex   1.230280e+000 6.575984e-001 4.500000e-002
      vertex   1.159900e+000 7.750205e-001 4.500000e-002
    endloop
  endfacet
  facet normal 0.000000e+000 0.000000e+000 -1.000000e+000
    outer loop
      vertex   1.367339e-001 -1.388283e+000 0.000000e+000
      vertex   -1.367339e-001 -1.388283e+000 0.000000e+000
      vertex   2.721510e-001 -1.368195e+000 0.000000e+000
    endloop
  endfacet
  facet normal -0.000000e+000 0.000000e+000 -1.000000e+000
    outer loop
      vertex   1.367339e-001 -1.388283e+000 0.000000e+000
      vertex   -2.562489e-016 -1.395000e+000 0.000000e+000
      vertex   -1.367339e-001 -1.388283e+000 0.000000e+000
    endloop
  endfacet
  facet normal 0.000000e+000 0.000000e+000 -1.000000e+000
    outer loop
      vertex   2.721510e-001 -1.368195e+000 0.000000e+000
      vertex   -2.721510e-001 -1.368195e+000 0.000000e+000
      vertex   4.049471e-001 -1.334932e+000 0.000000e+000
    endloop
  endfacet
  facet normal -0.000000e+000 0.000000e+000 -1.000000e+000
    outer loop
      vertex   2.721510e-001 -1.368195e+000 0.000000e+000
      vertex   -1.367339e-001 -1.388283e+000 0.000000e+000
      vertex   -2.721510e-001 -1.368195e+000 0.000000e+000
    endloop
  endfacet
  facet normal 0.000000e+000 0.000000e+000 -1.000000e+000
    outer loop
      vertex   4.049471e-001 -1.334932e+000 0.000000e+000
      vertex   -4.049471e-001 -1.334932e+000 0.000000e+000
      vertex   5.338434e-001 -1.288812e+000 0.000000e+000
    endloop
  endfacet
  facet normal -0.000000e+000 0.000000e+000 -1.000000e+000
    outer loop
      vertex   4.049471e-001 -1.334932e+000 0.000000e+000
      vertex   -2.721510e-001 -1.368195e+000 0.000000e+000
      vertex   -4.049471e-001 -1.334932e+000 0.000000e+000
    endloop
  endfacet
  facet normal 0.000000e+000 0.000000e+000 -1.000000e+000
    outer loop
      vertex   5.338434e-001 -1.288812e+000 0.000000e+000
      vertex   -5.338434e-001 -1.288812e+000 0.000000e+000
      vertex   6.575984e-001 -1.230280e+000 0.000000e+000
    endloop
  endfacet
  facet normal -0.000000e+000 0.000000e+000 -1.000000e+000
    outer loop
      vertex   5.338434e-001 -1.288812e+000 0.000000e+000
      vertex   -4.049471e-001 -1.334932e+000 0.000000e+000
      vertex   -5.338434e-001 -1.288812e+000 0.000000e+000
    endloop
  endfacet
  facet normal 0.000000e+000 0.000000e+000 -1.000000e+000
    outer loop
      vertex   6.575984e-001 -1.230280e+000 0.000000e+000
      vertex   -6.575984e-001 -1.230280e+000 0.000000e+000
      vertex   7.750205e-001 -1.159900e+000 0.000000e+000
    endloop
  endfacet
  facet normal -0.000000e+000 0.000000e+000 -1.000000e+000
    outer loop
      vertex   6.575984e-001 -1.230280e+000 0.000000e+000
      vertex   -5.338434e-001 -1.288812e+000 0.000000e+000
      vertex   -6.575984e-001 -1.230280e+000 0.000000e+000
    endloop
  endfacet
  facet normal 0.000000e+000 0.000000e+000 -1.000000e+000
    outer loop
      vertex   7.750205e-001 -1.159900e+000 0.000000e+000
      vertex   -7.750205e-001 -1.159900e+000 0.000000e+000
      vertex   8.849786e-001 -1.078350e+000 0.000000e+000
    endloop
  endfacet
  facet normal -0.000000e+000 0.000000e+000 -1.000000e+000
    outer loop
      vertex   7.750205e-001 -1.159900e+000 0.000000e+000
      vertex   -6.575984e-001 -1.230280e+000 0.000000e+000
      vertex   -7.750205e-001 -1.159900e+000 0.000000e+000
    endloop
  endfacet
  facet normal 0.000000e+000 0.000000e+000 -1.000000e+000
    outer loop
      vertex   8.849786e-001 -1.078350e+000 0.000000e+000
      vertex   -8.849786e-001 -1.078350e+000 0.000000e+000
      vertex   9.864140e-001 -9.864140e-001 0.000000e+000
    endloop
  endfacet
  facet normal -0.000000e+000 0.000000e+000 -1.000000e+000
    outer loop
      vertex   8.849786e-001 -1.078350e+000 0.000000e+000
      vertex   -7.750205e-001 -1.159900e+000 0.000000e+000
      vertex   -8.849786e-001 -1.078350e+000 0.000000e+000
    endloop
  endfacet
  facet normal 0.000000e+000 0.000000e+000 -1.000000e+000
    outer loop
      vertex   9.864140e-001 -9.864140e-001 0.000000e+000
      vertex   -9.864140e-001 -9.864140e-001 0.000000e+000
      vertex   1.078350e+000 -8.849786e-001 0.000000e+000
    endloop
  endfacet
  facet normal -0.000000e+000 0.000000e+000 -1.000000e+000
    outer loop
      vertex   9.864140e-001 -9.864140e-001 0.000000e+000
      vertex   -8.849786e-001 -1.078350e+000 0.000000e+000
      vertex   -9.864140e-001 -9.864140e-001 0.000000e+000
    endloop
  endfacet
  facet normal 0.000000e+000 0.000000e+000 -1.000000e+000
    outer loop
      vertex   -9.864140e-001 -9.864140e-001 0.000000e+000
      vertex   -1.078350e+000 -8.849786e-001 0.000000e+000
      vertex   1.078350e+000 -8.849786e-001 0.000000e+000
    endloop
  endfacet
  facet normal 0.000000e+000 0.000000e+000 -1.000000e+000
    outer loop
      vertex   1.078350e+000 -8.849786e-001 0.000000e+000
      vertex   -1.078350e+000 -8.849786e-001 0.000000e+000
      vertex   1.159900e+000 -7.750205e-001 0.000000e+000
    endloop
  endfacet
  facet normal -0.000000e+000 0.000000e+000 -1.000000e+000
    outer loop
      vertex   1.159900e+000 -7.750205e-001 0.000000e+000
      vertex   -1.078350e+000 -8.849786e-001 0.000000e+000
      vertex   -1.159900e+000 -7.750205e-001 0.000000e+000
    endloop
  endfacet
  facet normal -0.000000e+000 0.000000e+000 -1.000000e+000
    outer loop
      vertex   1.230280e+000 -6.575984e-001 0.000000e+000
      vertex   -1.159900e+000 -7.750205e-001 0.000000e+000
      vertex   -1.230280e+000 -6.575984e-001 0.000000e+000
    endloop
  endfacet
  facet normal -0.000000e+000 0.000000e+000 -1.000000e+000
    outer loop
      vertex   1.288812e+000 -5.338434e-001 0.000000e+000
      vertex   -1.230280e+000 -6.575984e-001 0.000000e+000
      vertex   -1.288812e+000 -5.338434e-001 0.000000e+000
    endloop
  endfacet
  facet normal -0.000000e+000 0.000000e+000 -1.000000e+000
    outer loop
      vertex   1.334932e+000 -4.049471e-001 0.000000e+000
      vertex   -1.288812e+000 -5.338434e-001 0.000000e+000
      vertex   -1.334932e+000 -4.049471e-001 0.000000e+000
    endloop
  endfacet
  facet normal -0.000000e+000 0.000000e+000 -1.000000e+000
    outer loop
      vertex   1.368195e+000 -2.721510e-001 0.000000e+000
      vertex   -1.334932e+000 -4.049471e-001 0.000000e+000
      vertex   -1.368195e+000 -2.721510e-001 0.000000e+000
    endloop
  endfacet
  facet normal -0.000000e+000 0.000000e+000 -1.000000e+000
    outer loop
      vertex   1.388283e+000 -1.367339e-001 0.000000e+000
      vertex   -1.368195e+000 -2.721510e-001 0.000000e+000
      vertex   -1.388283e+000 -1.367339e-001 0.000000e+000
    endloop
  endfacet
  facet normal -0.000000e+000 0.000000e+000 -1.000000e+000
    outer loop
      vertex   1.395000e+000 0.000000e+000 0.000000e+000
      vertex   -1.388283e+000 -1.367339e-001 0.000000e+000
      vertex   -1.395000e+000 1.708326e-016 0.000000e+000
    endloop
  endfacet
  facet normal -0.000000e+000 0.000000e+000 -1.000000e+000
    outer loop
      vertex   1.388283e+000 1.367339e-001 0.000000e+000
      vertex   -1.395000e+000 1.708326e-016 0.000000e+000
      vertex   -1.388283e+000 1.367339e-001 0.000000e+000
    endloop
  endfacet
  facet normal -0.000000e+000 0.000000e+000 -1.000000e+000
    outer loop
      vertex   1.368195e+000 2.721510e-001 0.000000e+000
      vertex   -1.388283e+000 1.367339e-001 0.000000e+000
      vertex   -1.368195e+000 2.721510e-001 0.000000e+000
    endloop
  endfacet
  facet normal -0.000000e+000 0.000000e+000 -1.000000e+000
    outer loop
      vertex   1.334932e+000 4.049471e-001 0.000000e+000
      vertex   -1.368195e+000 2.721510e-001 0.000000e+000
      vertex   -1.334932e+000 4.049471e-001 0.000000e+000
    endloop
  endfacet
  facet normal -0.000000e+000 0.000000e+000 -1.000000e+000
    outer loop
      vertex   1.288812e+000 5.338434e-001 0.000000e+000
      vertex   -1.334932e+000 4.049471e-001 0.000000e+000
      vertex   -1.288812e+000 5.338434e-001 0.000000e+000
    endloop
  endfacet
  facet normal -0.000000e+000 0.000000e+000 -1.000000e+000
    outer loop
      vertex   1.230280e+000 6.575984e-001 0.000000e+000
      vertex   -1.288812e+000 5.338434e-001 0.000000e+000
      vertex   -1.230280e+000 6.575984e-001 0.000000e+000
    endloop
  endfacet
  facet normal -0.000000e+000 0.000000e+000 -1.000000e+000
    outer loop
      vertex   1.159900e+000 7.750205e-001 0.000000e+000
      vertex   -1.230280e+000 6.575984e-001 0.000000e+000
      vertex   -1.159900e+000 7.750205e-001 0.000000e+000
    endloop
  endfacet
  facet normal -0.000000e+000 0.000000e+000 -1.000000e+000
    outer loop
      vertex   1.078350e+000 8.849786e-001 0.000000e+000
      vertex   -1.159900e+000 7.750205e-001 0.000000e+000
      vertex   -1.078350e+000 8.849786e-001 0.000000e+000
    endloop
  endfacet
  facet normal -0.000000e+000 0.000000e+000 -1.000000e+000
    outer loop
      vertex   9.864140e-001 9.864140e-001 0.000000e+000
      vertex   -1.078350e+000 8.849786e-001 0.000000e+000
      vertex   -9.864140e-001 9.864140e-001 0.000000e+000
    endloop
  endfacet
  facet normal -0.000000e+000 0.000000e+000 -1.000000e+000
    outer loop
      vertex   8.849786e-001 1.078350e+000 0.000000e+000
      vertex   -9.864140e-001 9.864140e-001 0.000000e+000
      vertex   -8.849786e-001 1.078350e+000 0.000000e+000
    endloop
  endfacet
  facet normal -0.000000e+000 0.000000e+000 -1.000000e+000
    outer loop
      vertex   7.750205e-001 1.159900e+000 0.000000e+000
      vertex   -8.849786e-001 1.078350e+000 0.000000e+000
      vertex   -7.750205e-001 1.159900e+000 0.000000e+000
    endloop
  endfacet
  facet normal -0.000000e+000 0.000000e+000 -1.000000e+000
    outer loop
      vertex   6.575984e-001 1.230280e+000 0.000000e+000
      vertex   -7.750205e-001 1.159900e+000 0.000000e+000
      vertex   -6.575984e-001 1.230280e+000 0.000000e+000
    endloop
  endfacet
  facet normal -0.000000e+000 0.000000e+000 -1.000000e+000
    outer loop
      vertex   5.338434e-001 1.288812e+000 0.000000e+000
      vertex   -6.575984e-001 1.230280e+000 0.000000e+000
      vertex   -5.338434e-001 1.288812e+000 0.000000e+000
    endloop
  endfacet
  facet normal -0.000000e+000 0.000000e+000 -1.000000e+000
    outer loop
      vertex   4.049471e-001 1.334932e+000 0.000000e+000
      vertex   -5.338434e-001 1.288812e+000 0.000000e+000
      vertex   -4.049471e-001 1.334932e+000 0.000000e+000
    endloop
  endfacet
  facet normal -0.000000e+000 0.000000e+000 -1.000000e+000
    outer loop
      vertex   2.721510e-001 1.368195e+000 0.000000e+000
      vertex   -4.049471e-001 1.334932e+000 0.000000e+000
      vertex   -2.721510e-001 1.368195e+000 0.000000e+000
    endloop
  endfacet
  facet normal -0.000000e+000 0.000000e+000 -1.000000e+000
    outer loop
      vertex   1.367339e-001 1.388283e+000 0.000000e+000
      vertex   -2.721510e-001 1.368195e+000 0.000000e+000
      vertex   -1.367339e-001 1.388283e+000 0.000000e+000
    endloop
  endfacet
  facet normal -0.000000e+000 -0.000000e+000 -1.000000e+000
    outer loop
      vertex   8.541629e-017 1.395000e+000 0.000000e+000
      vertex   1.367339e-001 1.388283e+000 0.000000e+000
      vertex   -1.367339e-001 1.388283e+000 0.000000e+000
    endloop
  endfacet
  facet normal -0.000000e+000 -0.000000e+000 -1.000000e+000
    outer loop
      vertex   1.367339e-001 1.388283e+000 0.000000e+000
      vertex   2.721510e-001 1.368195e+000 0.000000e+000
      vertex   -2.721510e-001 1.368195e+000 0.000000e+000
    endloop
  endfacet
  facet normal -0.000000e+000 -0.000000e+000 -1.000000e+000
    outer loop
      vertex   2.721510e-001 1.368195e+000 0.000000e+000
      vertex   4.049471e-001 1.334932e+000 0.000000e+000
      vertex   -4.049471e-001 1.334932e+000 0.000000e+000
    endloop
  endfacet
  facet normal -0.000000e+000 -0.000000e+000 -1.000000e+000
    outer loop
      vertex   4.049471e-001 1.334932e+000 0.000000e+000
      vertex   5.338434e-001 1.288812e+000 0.000000e+000
      vertex   -5.338434e-001 1.288812e+000 0.000000e+000
    endloop
  endfacet
  facet normal -0.000000e+000 -0.000000e+000 -1.000000e+000
    outer loop
      vertex   5.338434e-001 1.288812e+000 0.000000e+000
      vertex   6.575984e-001 1.230280e+000 0.000000e+000
      vertex   -6.575984e-001 1.230280e+000 0.000000e+000
    endloop
  endfacet
  facet normal -0.000000e+000 -0.000000e+000 -1.000000e+000
    outer loop
      vertex   6.575984e-001 1.230280e+000 0.000000e+000
      vertex   7.750205e-001 1.159900e+000 0.000000e+000
      vertex   -7.750205e-001 1.159900e+000 0.000000e+000
    endloop
  endfacet
  facet normal -0.000000e+000 -0.000000e+000 -1.000000e+000
    outer loop
      vertex   7.750205e-001 1.159900e+000 0.000000e+000
      vertex   8.849786e-001 1.078350e+000 0.000000e+000
      vertex   -8.849786e-001 1.078350e+000 0.000000e+000
    endloop
  endfacet
  facet normal -0.000000e+000 -0.000000e+000 -1.000000e+000
    outer loop
      vertex   8.849786e-001 1.078350e+000 0.000000e+000
      vertex   9.864140e-001 9.864140e-001 0.000000e+000
      vertex   -9.864140e-001 9.864140e-001 0.000000e+000
    endloop
  endfacet
  facet normal -0.000000e+000 -0.000000e+000 -1.000000e+000
    outer loop
      vertex   9.864140e-001 9.864140e-001 0.000000e+000
      vertex   1.078350e+000 8.849786e-001 0.000000e+000
      vertex   -1.078350e+000 8.849786e-001 0.000000e+000
    endloop
  endfacet
  facet normal -0.000000e+000 -0.000000e+000 -1.000000e+000
    outer loop
      vertex   1.078350e+000 8.849786e-001 0.000000e+000
      vertex   1.159900e+000 7.750205e-001 0.000000e+000
      vertex   -1.159900e+000 7.750205e-001 0.000000e+000
    endloop
  endfacet
  facet normal -0.000000e+000 -0.000000e+000 -1.000000e+000
    outer loop
      vertex   1.159900e+000 7.750205e-001 0.000000e+000
      vertex   1.230280e+000 6.575984e-001 0.000000e+000
      vertex   -1.230280e+000 6.575984e-001 0.000000e+000
    endloop
  endfacet
  facet normal -0.000000e+000 -0.000000e+000 -1.000000e+000
    outer loop
      vertex   1.230280e+000 6.575984e-001 0.000000e+000
      vertex   1.288812e+000 5.338434e-001 0.000000e+000
      vertex   -1.288812e+000 5.338434e-001 0.000000e+000
    endloop
  endfacet
  facet normal -0.000000e+000 -0.000000e+000 -1.000000e+000
    outer loop
      vertex   1.288812e+000 5.338434e-001 0.000000e+000
      vertex   1.334932e+000 4.049471e-001 0.000000e+000
      vertex   -1.334932e+000 4.049471e-001 0.000000e+000
    endloop
  endfacet
  facet normal -0.000000e+000 -0.000000e+000 -1.000000e+000
    outer loop
      vertex   1.334932e+000 4.049471e-001 0.000000e+000
      vertex   1.368195e+000 2.721510e-001 0.000000e+000
      vertex   -1.368195e+000 2.721510e-001 0.000000e+000
    endloop
  endfacet
  facet normal -0.000000e+000 -0.000000e+000 -1.000000e+000
    outer loop
      vertex   1.368195e+000 2.721510e-001 0.000000e+000
      vertex   1.388283e+000 1.367339e-001 0.000000e+000
      vertex   -1.388283e+000 1.367339e-001 0.000000e+000
    endloop
  endfacet
  facet normal -0.000000e+000 -0.000000e+000 -1.000000e+000
    outer loop
      vertex   1.388283e+000 1.367339e-001 0.000000e+000
      vertex   1.395000e+000 0.000000e+000 0.000000e+000
      vertex   -1.395000e+000 1.708326e-016 0.000000e+000
    endloop
  endfacet
  facet normal 0.000000e+000 0.000000e+000 -1.000000e+000
    outer loop
      vertex   1.159900e+000 -7.750205e-001 0.000000e+000
      vertex   -1.159900e+000 -7.750205e-001 0.000000e+000
      vertex   1.230280e+000 -6.575984e-001 0.000000e+000
    endloop
  endfacet
  facet normal 0.000000e+000 0.000000e+000 -1.000000e+000
    outer loop
      vertex   1.230280e+000 -6.575984e-001 0.000000e+000
      vertex   -1.230280e+000 -6.575984e-001 0.000000e+000
      vertex   1.288812e+000 -5.338434e-001 0.000000e+000
    endloop
  endfacet
  facet normal 0.000000e+000 0.000000e+000 -1.000000e+000
    outer loop
      vertex   1.288812e+000 -5.338434e-001 0.000000e+000
      vertex   -1.288812e+000 -5.338434e-001 0.000000e+000
      vertex   1.334932e+000 -4.049471e-001 0.000000e+000
    endloop
  endfacet
  facet normal 0.000000e+000 0.000000e+000 -1.000000e+000
    outer loop
      vertex   1.334932e+000 -4.049471e-001 0.000000e+000
      vertex   -1.334932e+000 -4.049471e-001 0.000000e+000
      vertex   1.368195e+000 -2.721510e-001 0.000000e+000
    endloop
  endfacet
  facet normal 0.000000e+000 0.000000e+000 -1.000000e+000
    outer loop
      vertex   1.368195e+000 -2.721510e-001 0.000000e+000
      vertex   -1.368195e+000 -2.721510e-001 0.000000e+000
      vertex   1.388283e+000 -1.367339e-001 0.000000e+000
    endloop
  endfacet
  facet normal -0.000000e+000 0.000000e+000 -1.000000e+000
    outer loop
      vertex   1.388283e+000 -1.367339e-001 0.000000e+000
      vertex   -1.388283e+000 -1.367339e-001 0.000000e+000
      vertex   1.395000e+000 0.000000e+000 0.000000e+000
    endloop
  endfacet
endsolid
